M48
; DRILL file {KiCad (7.0.0)} date Thu Apr 20 17:04:19 2023
; FORMAT={-:-/ absolute / inch / decimal}
; #@! TF.CreationDate,2023-04-20T17:04:19-06:00
; #@! TF.GenerationSoftware,Kicad,Pcbnew,(7.0.0)
; #@! TF.FileFunction,Plated,1,2,PTH
FMAT,2
INCH
; #@! TA.AperFunction,Plated,PTH,ViaDrill
T1C0.0157
; #@! TA.AperFunction,Plated,PTH,ComponentDrill
T2C0.0394
%
G90
G05
T1
X4.2Y-2.9
X4.2692Y-2.9711
X4.2713Y-3.2376
X4.3Y-2.9
X4.3452Y-3.0017
X4.3467Y-3.2376
X4.4Y-2.9
X4.4Y-3.1
X4.4326Y-2.949
X4.5Y-3.0
X4.6Y-3.7345
X4.6Y-3.8
X4.6142Y-2.9851
X4.7023Y-3.0
X4.74Y-2.2658
X4.7458Y-3.2968
X4.7587Y-3.2065
X4.809Y-2.3348
X4.8097Y-3.5652
X4.8616Y-3.671
X4.8686Y-3.7345
X4.8813Y-3.9852
X4.8942Y-2.0632
X4.9Y-2.8
X4.9006Y-2.8527
X4.9503Y-1.888
X4.954Y-3.8458
X4.969Y-2.7329
X4.9754Y-2.851
X4.9992Y-2.3395
X5.0034Y-3.9847
X5.0439Y-3.0652
X5.0542Y-3.7469
X5.1218Y-3.6
X5.1503Y-3.6703
X5.1516Y-3.8136
X5.2Y-3.0
X5.2Y-3.1
X5.2Y-3.4
X5.2116Y-3.2697
X5.2174Y-4.0455
X5.2179Y-3.785
X5.2212Y-3.5
X5.2212Y-3.6
X5.2544Y-2.4159
X5.259Y-4.0249
X5.2619Y-2.7581
X5.3Y-4.1
X5.3295Y-2.8256
X5.3484Y-2.2468
X5.3577Y-4.0384
X5.3652Y-1.9981
X5.3715Y-2.2
X5.3715Y-2.3981
X5.3715Y-2.4456
X5.372Y-2.6022
X5.4245Y-4.1868
X5.4419Y-3.1064
X5.4462Y-2.0
X5.464Y-2.2
X5.464Y-2.4
X5.4664Y-2.8379
X5.4759Y-3.1262
X5.5Y-4.0
X5.5033Y-2.4
X5.5043Y-3.0449
X5.5164Y-4.2758
X5.571Y-2.1713
X5.5856Y-3.8845
X5.5858Y-3.8198
X5.5975Y-3.2
X5.6568Y-3.0988
X5.6609Y-3.8845
X5.7Y-3.2
X5.7148Y-2.8858
X5.7206Y-4.149
X5.7332Y-3.9729
X5.7625Y-3.1028
X5.7758Y-4.1307
X5.7779Y-2.8854
X5.8083Y-3.057
X5.8151Y-3.7527
X5.8377Y-3.3923
X5.8523Y-3.8549
X5.9475Y-3.2456
X6.0Y-4.2
X6.0178Y-3.3178
X6.0825Y-4.1089
T2
X4.3Y-4.2
X4.3Y-4.3
X4.4Y-4.2
X4.4Y-4.3
X4.5Y-4.2
X4.5Y-4.3
X4.6Y-4.2
X4.6Y-4.3
X4.8Y-1.8
X4.8Y-2.4
X4.9Y-1.8
X4.9Y-2.4
X4.9529Y-3.4439
X4.9529Y-3.5439
X4.9529Y-3.6439
X5.0Y-1.8
X5.0Y-2.4
X5.0529Y-3.4439
X5.0529Y-3.5439
X5.0529Y-3.6439
X5.1Y-1.8
X5.1Y-2.4
X5.2Y-1.8
X5.2Y-2.4
X5.3Y-1.8
X5.3Y-2.4
X6.3442Y-2.6934
X6.6434Y-2.6934
T0
M30
