%TF.GenerationSoftware,KiCad,Pcbnew,(7.0.0)*%
%TF.CreationDate,2023-05-31T23:54:01-06:00*%
%TF.ProjectId,Final Project - Shield (2),46696e61-6c20-4507-926f-6a656374202d,rev?*%
%TF.SameCoordinates,Original*%
%TF.FileFunction,Paste,Top*%
%TF.FilePolarity,Positive*%
%FSLAX46Y46*%
G04 Gerber Fmt 4.6, Leading zero omitted, Abs format (unit mm)*
G04 Created by KiCad (PCBNEW (7.0.0)) date 2023-05-31 23:54:01*
%MOMM*%
%LPD*%
G01*
G04 APERTURE LIST*
G04 Aperture macros list*
%AMRoundRect*
0 Rectangle with rounded corners*
0 $1 Rounding radius*
0 $2 $3 $4 $5 $6 $7 $8 $9 X,Y pos of 4 corners*
0 Add a 4 corners polygon primitive as box body*
4,1,4,$2,$3,$4,$5,$6,$7,$8,$9,$2,$3,0*
0 Add four circle primitives for the rounded corners*
1,1,$1+$1,$2,$3*
1,1,$1+$1,$4,$5*
1,1,$1+$1,$6,$7*
1,1,$1+$1,$8,$9*
0 Add four rect primitives between the rounded corners*
20,1,$1+$1,$2,$3,$4,$5,0*
20,1,$1+$1,$4,$5,$6,$7,0*
20,1,$1+$1,$6,$7,$8,$9,0*
20,1,$1+$1,$8,$9,$2,$3,0*%
G04 Aperture macros list end*
%ADD10R,0.550000X0.380000*%
%ADD11R,1.400000X1.200000*%
%ADD12RoundRect,0.079500X0.079500X0.100500X-0.079500X0.100500X-0.079500X-0.100500X0.079500X-0.100500X0*%
%ADD13R,1.050000X0.650000*%
%ADD14RoundRect,0.079500X-0.079500X-0.100500X0.079500X-0.100500X0.079500X0.100500X-0.079500X0.100500X0*%
G04 APERTURE END LIST*
D10*
%TO.C,D8*%
X102049999Y-120419999D03*
X101149999Y-120419999D03*
D11*
X101599999Y-119379999D03*
%TD*%
D12*
%TO.C,R4*%
X115570000Y-73660000D03*
X114880000Y-73660000D03*
%TD*%
D10*
%TO.C,D10*%
X102049999Y-135139999D03*
X101149999Y-135139999D03*
D11*
X101599999Y-134099999D03*
%TD*%
D13*
%TO.C,SW1*%
X180804999Y-75124999D03*
X184954999Y-75124999D03*
X180804999Y-77274999D03*
X184954999Y-77274999D03*
%TD*%
D12*
%TO.C,R10*%
X110515000Y-132080000D03*
X109825000Y-132080000D03*
%TD*%
D14*
%TO.C,R11*%
X184150000Y-95250000D03*
X184840000Y-95250000D03*
%TD*%
D12*
%TO.C,R8*%
X114325000Y-124460000D03*
X113635000Y-124460000D03*
%TD*%
D10*
%TO.C,D7*%
X102049999Y-112799999D03*
X101149999Y-112799999D03*
D11*
X101599999Y-111759999D03*
%TD*%
D12*
%TO.C,R6*%
X120070000Y-116840000D03*
X119380000Y-116840000D03*
%TD*%
%TO.C,R12*%
X111785000Y-63500000D03*
X111095000Y-63500000D03*
%TD*%
%TO.C,R2*%
X115810000Y-66302765D03*
X115120000Y-66302765D03*
%TD*%
D13*
%TO.C,SW2*%
X184954999Y-89974999D03*
X180804999Y-89974999D03*
X184954999Y-87824999D03*
X180804999Y-87824999D03*
%TD*%
D10*
%TO.C,D2*%
X102049999Y-74699999D03*
X101149999Y-74699999D03*
D11*
X101599999Y-73659999D03*
%TD*%
D14*
%TO.C,R1*%
X184730000Y-68580000D03*
X185420000Y-68580000D03*
%TD*%
D12*
%TO.C,R3*%
X115570000Y-69850000D03*
X114880000Y-69850000D03*
%TD*%
D10*
%TO.C,D1*%
X102049999Y-67079999D03*
X101149999Y-67079999D03*
D11*
X101599999Y-66039999D03*
%TD*%
D10*
%TO.C,D9*%
X102049999Y-128039999D03*
X101149999Y-128039999D03*
D11*
X101599999Y-126999999D03*
%TD*%
D10*
%TO.C,D6*%
X102049999Y-105179999D03*
X101149999Y-105179999D03*
D11*
X101599999Y-104139999D03*
%TD*%
D10*
%TO.C,D3*%
X102049999Y-82319999D03*
X101149999Y-82319999D03*
D11*
X101599999Y-81279999D03*
%TD*%
D12*
%TO.C,R7*%
X116865000Y-120650000D03*
X116175000Y-120650000D03*
%TD*%
D10*
%TO.C,D4*%
X102049999Y-89419999D03*
X101149999Y-89419999D03*
D11*
X101599999Y-88379999D03*
%TD*%
D10*
%TO.C,D5*%
X102049999Y-97559999D03*
X101149999Y-97559999D03*
D11*
X101599999Y-96519999D03*
%TD*%
D12*
%TO.C,R9*%
X110490000Y-128270000D03*
X109800000Y-128270000D03*
%TD*%
%TO.C,R5*%
X118135000Y-78740000D03*
X117445000Y-78740000D03*
%TD*%
M02*
