%TF.GenerationSoftware,KiCad,Pcbnew,(7.0.0)*%
%TF.CreationDate,2023-05-31T23:54:01-06:00*%
%TF.ProjectId,Final Project - Shield (2),46696e61-6c20-4507-926f-6a656374202d,rev?*%
%TF.SameCoordinates,Original*%
%TF.FileFunction,Legend,Top*%
%TF.FilePolarity,Positive*%
%FSLAX46Y46*%
G04 Gerber Fmt 4.6, Leading zero omitted, Abs format (unit mm)*
G04 Created by KiCad (PCBNEW (7.0.0)) date 2023-05-31 23:54:01*
%MOMM*%
%LPD*%
G01*
G04 APERTURE LIST*
%ADD10C,0.100000*%
%ADD11C,0.150000*%
%ADD12C,0.120000*%
G04 APERTURE END LIST*
D10*
X148129523Y-53027142D02*
X148081904Y-53074761D01*
X148081904Y-53074761D02*
X147939047Y-53122380D01*
X147939047Y-53122380D02*
X147843809Y-53122380D01*
X147843809Y-53122380D02*
X147700952Y-53074761D01*
X147700952Y-53074761D02*
X147605714Y-52979523D01*
X147605714Y-52979523D02*
X147558095Y-52884285D01*
X147558095Y-52884285D02*
X147510476Y-52693809D01*
X147510476Y-52693809D02*
X147510476Y-52550952D01*
X147510476Y-52550952D02*
X147558095Y-52360476D01*
X147558095Y-52360476D02*
X147605714Y-52265238D01*
X147605714Y-52265238D02*
X147700952Y-52170000D01*
X147700952Y-52170000D02*
X147843809Y-52122380D01*
X147843809Y-52122380D02*
X147939047Y-52122380D01*
X147939047Y-52122380D02*
X148081904Y-52170000D01*
X148081904Y-52170000D02*
X148129523Y-52217619D01*
X148748571Y-52646190D02*
X148748571Y-53122380D01*
X148415238Y-52122380D02*
X148748571Y-52646190D01*
X148748571Y-52646190D02*
X149081904Y-52122380D01*
X149986666Y-53027142D02*
X149939047Y-53074761D01*
X149939047Y-53074761D02*
X149796190Y-53122380D01*
X149796190Y-53122380D02*
X149700952Y-53122380D01*
X149700952Y-53122380D02*
X149558095Y-53074761D01*
X149558095Y-53074761D02*
X149462857Y-52979523D01*
X149462857Y-52979523D02*
X149415238Y-52884285D01*
X149415238Y-52884285D02*
X149367619Y-52693809D01*
X149367619Y-52693809D02*
X149367619Y-52550952D01*
X149367619Y-52550952D02*
X149415238Y-52360476D01*
X149415238Y-52360476D02*
X149462857Y-52265238D01*
X149462857Y-52265238D02*
X149558095Y-52170000D01*
X149558095Y-52170000D02*
X149700952Y-52122380D01*
X149700952Y-52122380D02*
X149796190Y-52122380D01*
X149796190Y-52122380D02*
X149939047Y-52170000D01*
X149939047Y-52170000D02*
X149986666Y-52217619D01*
X150891428Y-53122380D02*
X150415238Y-53122380D01*
X150415238Y-53122380D02*
X150415238Y-52122380D01*
X151415238Y-52122380D02*
X151605714Y-52122380D01*
X151605714Y-52122380D02*
X151700952Y-52170000D01*
X151700952Y-52170000D02*
X151796190Y-52265238D01*
X151796190Y-52265238D02*
X151843809Y-52455714D01*
X151843809Y-52455714D02*
X151843809Y-52789047D01*
X151843809Y-52789047D02*
X151796190Y-52979523D01*
X151796190Y-52979523D02*
X151700952Y-53074761D01*
X151700952Y-53074761D02*
X151605714Y-53122380D01*
X151605714Y-53122380D02*
X151415238Y-53122380D01*
X151415238Y-53122380D02*
X151320000Y-53074761D01*
X151320000Y-53074761D02*
X151224762Y-52979523D01*
X151224762Y-52979523D02*
X151177143Y-52789047D01*
X151177143Y-52789047D02*
X151177143Y-52455714D01*
X151177143Y-52455714D02*
X151224762Y-52265238D01*
X151224762Y-52265238D02*
X151320000Y-52170000D01*
X151320000Y-52170000D02*
X151415238Y-52122380D01*
X152272381Y-53122380D02*
X152272381Y-52122380D01*
X152272381Y-52122380D02*
X152843809Y-53122380D01*
X152843809Y-53122380D02*
X152843809Y-52122380D01*
X153320000Y-52598571D02*
X153653333Y-52598571D01*
X153796190Y-53122380D02*
X153320000Y-53122380D01*
X153320000Y-53122380D02*
X153320000Y-52122380D01*
X153320000Y-52122380D02*
X153796190Y-52122380D01*
X154681905Y-52122380D02*
X155015238Y-53122380D01*
X155015238Y-53122380D02*
X155348571Y-52122380D01*
X156205714Y-53122380D02*
X155634286Y-53122380D01*
X155920000Y-53122380D02*
X155920000Y-52122380D01*
X155920000Y-52122380D02*
X155824762Y-52265238D01*
X155824762Y-52265238D02*
X155729524Y-52360476D01*
X155729524Y-52360476D02*
X155634286Y-52408095D01*
X156634286Y-53027142D02*
X156681905Y-53074761D01*
X156681905Y-53074761D02*
X156634286Y-53122380D01*
X156634286Y-53122380D02*
X156586667Y-53074761D01*
X156586667Y-53074761D02*
X156634286Y-53027142D01*
X156634286Y-53027142D02*
X156634286Y-53122380D01*
X157634285Y-53122380D02*
X157062857Y-53122380D01*
X157348571Y-53122380D02*
X157348571Y-52122380D01*
X157348571Y-52122380D02*
X157253333Y-52265238D01*
X157253333Y-52265238D02*
X157158095Y-52360476D01*
X157158095Y-52360476D02*
X157062857Y-52408095D01*
D11*
X137481428Y-105963571D02*
X137481428Y-104463571D01*
X138124285Y-104963571D02*
X138124285Y-105963571D01*
X138124285Y-105106428D02*
X138188571Y-105035000D01*
X138188571Y-105035000D02*
X138317142Y-104963571D01*
X138317142Y-104963571D02*
X138509999Y-104963571D01*
X138509999Y-104963571D02*
X138638571Y-105035000D01*
X138638571Y-105035000D02*
X138702857Y-105177857D01*
X138702857Y-105177857D02*
X138702857Y-105963571D01*
X139281428Y-105892142D02*
X139410000Y-105963571D01*
X139410000Y-105963571D02*
X139667143Y-105963571D01*
X139667143Y-105963571D02*
X139795714Y-105892142D01*
X139795714Y-105892142D02*
X139860000Y-105749285D01*
X139860000Y-105749285D02*
X139860000Y-105677857D01*
X139860000Y-105677857D02*
X139795714Y-105535000D01*
X139795714Y-105535000D02*
X139667143Y-105463571D01*
X139667143Y-105463571D02*
X139474286Y-105463571D01*
X139474286Y-105463571D02*
X139345714Y-105392142D01*
X139345714Y-105392142D02*
X139281428Y-105249285D01*
X139281428Y-105249285D02*
X139281428Y-105177857D01*
X139281428Y-105177857D02*
X139345714Y-105035000D01*
X139345714Y-105035000D02*
X139474286Y-104963571D01*
X139474286Y-104963571D02*
X139667143Y-104963571D01*
X139667143Y-104963571D02*
X139795714Y-105035000D01*
X140245714Y-104963571D02*
X140760000Y-104963571D01*
X140438571Y-104463571D02*
X140438571Y-105749285D01*
X140438571Y-105749285D02*
X140502857Y-105892142D01*
X140502857Y-105892142D02*
X140631428Y-105963571D01*
X140631428Y-105963571D02*
X140760000Y-105963571D01*
X141210000Y-105963571D02*
X141210000Y-104963571D01*
X141210000Y-105249285D02*
X141274286Y-105106428D01*
X141274286Y-105106428D02*
X141338572Y-105035000D01*
X141338572Y-105035000D02*
X141467143Y-104963571D01*
X141467143Y-104963571D02*
X141595714Y-104963571D01*
X142624286Y-104963571D02*
X142624286Y-105963571D01*
X142045714Y-104963571D02*
X142045714Y-105749285D01*
X142045714Y-105749285D02*
X142110000Y-105892142D01*
X142110000Y-105892142D02*
X142238571Y-105963571D01*
X142238571Y-105963571D02*
X142431428Y-105963571D01*
X142431428Y-105963571D02*
X142560000Y-105892142D01*
X142560000Y-105892142D02*
X142624286Y-105820714D01*
X143845715Y-105892142D02*
X143717143Y-105963571D01*
X143717143Y-105963571D02*
X143460000Y-105963571D01*
X143460000Y-105963571D02*
X143331429Y-105892142D01*
X143331429Y-105892142D02*
X143267143Y-105820714D01*
X143267143Y-105820714D02*
X143202857Y-105677857D01*
X143202857Y-105677857D02*
X143202857Y-105249285D01*
X143202857Y-105249285D02*
X143267143Y-105106428D01*
X143267143Y-105106428D02*
X143331429Y-105035000D01*
X143331429Y-105035000D02*
X143460000Y-104963571D01*
X143460000Y-104963571D02*
X143717143Y-104963571D01*
X143717143Y-104963571D02*
X143845715Y-105035000D01*
X144231429Y-104963571D02*
X144745715Y-104963571D01*
X144424286Y-104463571D02*
X144424286Y-105749285D01*
X144424286Y-105749285D02*
X144488572Y-105892142D01*
X144488572Y-105892142D02*
X144617143Y-105963571D01*
X144617143Y-105963571D02*
X144745715Y-105963571D01*
X145195715Y-105963571D02*
X145195715Y-104963571D01*
X145195715Y-104463571D02*
X145131429Y-104535000D01*
X145131429Y-104535000D02*
X145195715Y-104606428D01*
X145195715Y-104606428D02*
X145260001Y-104535000D01*
X145260001Y-104535000D02*
X145195715Y-104463571D01*
X145195715Y-104463571D02*
X145195715Y-104606428D01*
X146031429Y-105963571D02*
X145902858Y-105892142D01*
X145902858Y-105892142D02*
X145838572Y-105820714D01*
X145838572Y-105820714D02*
X145774286Y-105677857D01*
X145774286Y-105677857D02*
X145774286Y-105249285D01*
X145774286Y-105249285D02*
X145838572Y-105106428D01*
X145838572Y-105106428D02*
X145902858Y-105035000D01*
X145902858Y-105035000D02*
X146031429Y-104963571D01*
X146031429Y-104963571D02*
X146224286Y-104963571D01*
X146224286Y-104963571D02*
X146352858Y-105035000D01*
X146352858Y-105035000D02*
X146417144Y-105106428D01*
X146417144Y-105106428D02*
X146481429Y-105249285D01*
X146481429Y-105249285D02*
X146481429Y-105677857D01*
X146481429Y-105677857D02*
X146417144Y-105820714D01*
X146417144Y-105820714D02*
X146352858Y-105892142D01*
X146352858Y-105892142D02*
X146224286Y-105963571D01*
X146224286Y-105963571D02*
X146031429Y-105963571D01*
X147060001Y-104963571D02*
X147060001Y-105963571D01*
X147060001Y-105106428D02*
X147124287Y-105035000D01*
X147124287Y-105035000D02*
X147252858Y-104963571D01*
X147252858Y-104963571D02*
X147445715Y-104963571D01*
X147445715Y-104963571D02*
X147574287Y-105035000D01*
X147574287Y-105035000D02*
X147638573Y-105177857D01*
X147638573Y-105177857D02*
X147638573Y-105963571D01*
X148217144Y-105892142D02*
X148345716Y-105963571D01*
X148345716Y-105963571D02*
X148602859Y-105963571D01*
X148602859Y-105963571D02*
X148731430Y-105892142D01*
X148731430Y-105892142D02*
X148795716Y-105749285D01*
X148795716Y-105749285D02*
X148795716Y-105677857D01*
X148795716Y-105677857D02*
X148731430Y-105535000D01*
X148731430Y-105535000D02*
X148602859Y-105463571D01*
X148602859Y-105463571D02*
X148410002Y-105463571D01*
X148410002Y-105463571D02*
X148281430Y-105392142D01*
X148281430Y-105392142D02*
X148217144Y-105249285D01*
X148217144Y-105249285D02*
X148217144Y-105177857D01*
X148217144Y-105177857D02*
X148281430Y-105035000D01*
X148281430Y-105035000D02*
X148410002Y-104963571D01*
X148410002Y-104963571D02*
X148602859Y-104963571D01*
X148602859Y-104963571D02*
X148731430Y-105035000D01*
X149374287Y-105820714D02*
X149438573Y-105892142D01*
X149438573Y-105892142D02*
X149374287Y-105963571D01*
X149374287Y-105963571D02*
X149310001Y-105892142D01*
X149310001Y-105892142D02*
X149374287Y-105820714D01*
X149374287Y-105820714D02*
X149374287Y-105963571D01*
X149374287Y-105035000D02*
X149438573Y-105106428D01*
X149438573Y-105106428D02*
X149374287Y-105177857D01*
X149374287Y-105177857D02*
X149310001Y-105106428D01*
X149310001Y-105106428D02*
X149374287Y-105035000D01*
X149374287Y-105035000D02*
X149374287Y-105177857D01*
X137481428Y-108393571D02*
X137481428Y-106893571D01*
X137481428Y-106893571D02*
X137995714Y-106893571D01*
X137995714Y-106893571D02*
X138124285Y-106965000D01*
X138124285Y-106965000D02*
X138188571Y-107036428D01*
X138188571Y-107036428D02*
X138252857Y-107179285D01*
X138252857Y-107179285D02*
X138252857Y-107393571D01*
X138252857Y-107393571D02*
X138188571Y-107536428D01*
X138188571Y-107536428D02*
X138124285Y-107607857D01*
X138124285Y-107607857D02*
X137995714Y-107679285D01*
X137995714Y-107679285D02*
X137481428Y-107679285D01*
X138831428Y-108393571D02*
X138831428Y-107393571D01*
X138831428Y-107679285D02*
X138895714Y-107536428D01*
X138895714Y-107536428D02*
X138960000Y-107465000D01*
X138960000Y-107465000D02*
X139088571Y-107393571D01*
X139088571Y-107393571D02*
X139217142Y-107393571D01*
X140181428Y-108322142D02*
X140052856Y-108393571D01*
X140052856Y-108393571D02*
X139795714Y-108393571D01*
X139795714Y-108393571D02*
X139667142Y-108322142D01*
X139667142Y-108322142D02*
X139602856Y-108179285D01*
X139602856Y-108179285D02*
X139602856Y-107607857D01*
X139602856Y-107607857D02*
X139667142Y-107465000D01*
X139667142Y-107465000D02*
X139795714Y-107393571D01*
X139795714Y-107393571D02*
X140052856Y-107393571D01*
X140052856Y-107393571D02*
X140181428Y-107465000D01*
X140181428Y-107465000D02*
X140245714Y-107607857D01*
X140245714Y-107607857D02*
X140245714Y-107750714D01*
X140245714Y-107750714D02*
X139602856Y-107893571D01*
X140759999Y-108322142D02*
X140888571Y-108393571D01*
X140888571Y-108393571D02*
X141145714Y-108393571D01*
X141145714Y-108393571D02*
X141274285Y-108322142D01*
X141274285Y-108322142D02*
X141338571Y-108179285D01*
X141338571Y-108179285D02*
X141338571Y-108107857D01*
X141338571Y-108107857D02*
X141274285Y-107965000D01*
X141274285Y-107965000D02*
X141145714Y-107893571D01*
X141145714Y-107893571D02*
X140952857Y-107893571D01*
X140952857Y-107893571D02*
X140824285Y-107822142D01*
X140824285Y-107822142D02*
X140759999Y-107679285D01*
X140759999Y-107679285D02*
X140759999Y-107607857D01*
X140759999Y-107607857D02*
X140824285Y-107465000D01*
X140824285Y-107465000D02*
X140952857Y-107393571D01*
X140952857Y-107393571D02*
X141145714Y-107393571D01*
X141145714Y-107393571D02*
X141274285Y-107465000D01*
X141852856Y-108322142D02*
X141981428Y-108393571D01*
X141981428Y-108393571D02*
X142238571Y-108393571D01*
X142238571Y-108393571D02*
X142367142Y-108322142D01*
X142367142Y-108322142D02*
X142431428Y-108179285D01*
X142431428Y-108179285D02*
X142431428Y-108107857D01*
X142431428Y-108107857D02*
X142367142Y-107965000D01*
X142367142Y-107965000D02*
X142238571Y-107893571D01*
X142238571Y-107893571D02*
X142045714Y-107893571D01*
X142045714Y-107893571D02*
X141917142Y-107822142D01*
X141917142Y-107822142D02*
X141852856Y-107679285D01*
X141852856Y-107679285D02*
X141852856Y-107607857D01*
X141852856Y-107607857D02*
X141917142Y-107465000D01*
X141917142Y-107465000D02*
X142045714Y-107393571D01*
X142045714Y-107393571D02*
X142238571Y-107393571D01*
X142238571Y-107393571D02*
X142367142Y-107465000D01*
X144269999Y-107607857D02*
X144462856Y-107679285D01*
X144462856Y-107679285D02*
X144527142Y-107750714D01*
X144527142Y-107750714D02*
X144591428Y-107893571D01*
X144591428Y-107893571D02*
X144591428Y-108107857D01*
X144591428Y-108107857D02*
X144527142Y-108250714D01*
X144527142Y-108250714D02*
X144462856Y-108322142D01*
X144462856Y-108322142D02*
X144334285Y-108393571D01*
X144334285Y-108393571D02*
X143819999Y-108393571D01*
X143819999Y-108393571D02*
X143819999Y-106893571D01*
X143819999Y-106893571D02*
X144269999Y-106893571D01*
X144269999Y-106893571D02*
X144398571Y-106965000D01*
X144398571Y-106965000D02*
X144462856Y-107036428D01*
X144462856Y-107036428D02*
X144527142Y-107179285D01*
X144527142Y-107179285D02*
X144527142Y-107322142D01*
X144527142Y-107322142D02*
X144462856Y-107465000D01*
X144462856Y-107465000D02*
X144398571Y-107536428D01*
X144398571Y-107536428D02*
X144269999Y-107607857D01*
X144269999Y-107607857D02*
X143819999Y-107607857D01*
X145748571Y-107393571D02*
X145748571Y-108393571D01*
X145169999Y-107393571D02*
X145169999Y-108179285D01*
X145169999Y-108179285D02*
X145234285Y-108322142D01*
X145234285Y-108322142D02*
X145362856Y-108393571D01*
X145362856Y-108393571D02*
X145555713Y-108393571D01*
X145555713Y-108393571D02*
X145684285Y-108322142D01*
X145684285Y-108322142D02*
X145748571Y-108250714D01*
X146198571Y-107393571D02*
X146712857Y-107393571D01*
X146391428Y-106893571D02*
X146391428Y-108179285D01*
X146391428Y-108179285D02*
X146455714Y-108322142D01*
X146455714Y-108322142D02*
X146584285Y-108393571D01*
X146584285Y-108393571D02*
X146712857Y-108393571D01*
X146970000Y-107393571D02*
X147484286Y-107393571D01*
X147162857Y-106893571D02*
X147162857Y-108179285D01*
X147162857Y-108179285D02*
X147227143Y-108322142D01*
X147227143Y-108322142D02*
X147355714Y-108393571D01*
X147355714Y-108393571D02*
X147484286Y-108393571D01*
X148127143Y-108393571D02*
X147998572Y-108322142D01*
X147998572Y-108322142D02*
X147934286Y-108250714D01*
X147934286Y-108250714D02*
X147870000Y-108107857D01*
X147870000Y-108107857D02*
X147870000Y-107679285D01*
X147870000Y-107679285D02*
X147934286Y-107536428D01*
X147934286Y-107536428D02*
X147998572Y-107465000D01*
X147998572Y-107465000D02*
X148127143Y-107393571D01*
X148127143Y-107393571D02*
X148320000Y-107393571D01*
X148320000Y-107393571D02*
X148448572Y-107465000D01*
X148448572Y-107465000D02*
X148512858Y-107536428D01*
X148512858Y-107536428D02*
X148577143Y-107679285D01*
X148577143Y-107679285D02*
X148577143Y-108107857D01*
X148577143Y-108107857D02*
X148512858Y-108250714D01*
X148512858Y-108250714D02*
X148448572Y-108322142D01*
X148448572Y-108322142D02*
X148320000Y-108393571D01*
X148320000Y-108393571D02*
X148127143Y-108393571D01*
X149155715Y-107393571D02*
X149155715Y-108393571D01*
X149155715Y-107536428D02*
X149220001Y-107465000D01*
X149220001Y-107465000D02*
X149348572Y-107393571D01*
X149348572Y-107393571D02*
X149541429Y-107393571D01*
X149541429Y-107393571D02*
X149670001Y-107465000D01*
X149670001Y-107465000D02*
X149734287Y-107607857D01*
X149734287Y-107607857D02*
X149734287Y-108393571D01*
X151894287Y-108393571D02*
X151122858Y-108393571D01*
X151508573Y-108393571D02*
X151508573Y-106893571D01*
X151508573Y-106893571D02*
X151380001Y-107107857D01*
X151380001Y-107107857D02*
X151251430Y-107250714D01*
X151251430Y-107250714D02*
X151122858Y-107322142D01*
X153090001Y-107393571D02*
X153604287Y-107393571D01*
X153282858Y-106893571D02*
X153282858Y-108179285D01*
X153282858Y-108179285D02*
X153347144Y-108322142D01*
X153347144Y-108322142D02*
X153475715Y-108393571D01*
X153475715Y-108393571D02*
X153604287Y-108393571D01*
X154247144Y-108393571D02*
X154118573Y-108322142D01*
X154118573Y-108322142D02*
X154054287Y-108250714D01*
X154054287Y-108250714D02*
X153990001Y-108107857D01*
X153990001Y-108107857D02*
X153990001Y-107679285D01*
X153990001Y-107679285D02*
X154054287Y-107536428D01*
X154054287Y-107536428D02*
X154118573Y-107465000D01*
X154118573Y-107465000D02*
X154247144Y-107393571D01*
X154247144Y-107393571D02*
X154440001Y-107393571D01*
X154440001Y-107393571D02*
X154568573Y-107465000D01*
X154568573Y-107465000D02*
X154632859Y-107536428D01*
X154632859Y-107536428D02*
X154697144Y-107679285D01*
X154697144Y-107679285D02*
X154697144Y-108107857D01*
X154697144Y-108107857D02*
X154632859Y-108250714D01*
X154632859Y-108250714D02*
X154568573Y-108322142D01*
X154568573Y-108322142D02*
X154440001Y-108393571D01*
X154440001Y-108393571D02*
X154247144Y-108393571D01*
X139847142Y-110752142D02*
X139975714Y-110823571D01*
X139975714Y-110823571D02*
X140232857Y-110823571D01*
X140232857Y-110823571D02*
X140361428Y-110752142D01*
X140361428Y-110752142D02*
X140425714Y-110609285D01*
X140425714Y-110609285D02*
X140425714Y-110537857D01*
X140425714Y-110537857D02*
X140361428Y-110395000D01*
X140361428Y-110395000D02*
X140232857Y-110323571D01*
X140232857Y-110323571D02*
X140040000Y-110323571D01*
X140040000Y-110323571D02*
X139911428Y-110252142D01*
X139911428Y-110252142D02*
X139847142Y-110109285D01*
X139847142Y-110109285D02*
X139847142Y-110037857D01*
X139847142Y-110037857D02*
X139911428Y-109895000D01*
X139911428Y-109895000D02*
X140040000Y-109823571D01*
X140040000Y-109823571D02*
X140232857Y-109823571D01*
X140232857Y-109823571D02*
X140361428Y-109895000D01*
X141518571Y-110752142D02*
X141389999Y-110823571D01*
X141389999Y-110823571D02*
X141132857Y-110823571D01*
X141132857Y-110823571D02*
X141004285Y-110752142D01*
X141004285Y-110752142D02*
X140939999Y-110609285D01*
X140939999Y-110609285D02*
X140939999Y-110037857D01*
X140939999Y-110037857D02*
X141004285Y-109895000D01*
X141004285Y-109895000D02*
X141132857Y-109823571D01*
X141132857Y-109823571D02*
X141389999Y-109823571D01*
X141389999Y-109823571D02*
X141518571Y-109895000D01*
X141518571Y-109895000D02*
X141582857Y-110037857D01*
X141582857Y-110037857D02*
X141582857Y-110180714D01*
X141582857Y-110180714D02*
X140939999Y-110323571D01*
X142675714Y-110752142D02*
X142547142Y-110823571D01*
X142547142Y-110823571D02*
X142290000Y-110823571D01*
X142290000Y-110823571D02*
X142161428Y-110752142D01*
X142161428Y-110752142D02*
X142097142Y-110609285D01*
X142097142Y-110609285D02*
X142097142Y-110037857D01*
X142097142Y-110037857D02*
X142161428Y-109895000D01*
X142161428Y-109895000D02*
X142290000Y-109823571D01*
X142290000Y-109823571D02*
X142547142Y-109823571D01*
X142547142Y-109823571D02*
X142675714Y-109895000D01*
X142675714Y-109895000D02*
X142740000Y-110037857D01*
X142740000Y-110037857D02*
X142740000Y-110180714D01*
X142740000Y-110180714D02*
X142097142Y-110323571D01*
X143935714Y-109823571D02*
X144450000Y-109823571D01*
X144128571Y-109323571D02*
X144128571Y-110609285D01*
X144128571Y-110609285D02*
X144192857Y-110752142D01*
X144192857Y-110752142D02*
X144321428Y-110823571D01*
X144321428Y-110823571D02*
X144450000Y-110823571D01*
X145478572Y-110823571D02*
X145478572Y-110037857D01*
X145478572Y-110037857D02*
X145414286Y-109895000D01*
X145414286Y-109895000D02*
X145285714Y-109823571D01*
X145285714Y-109823571D02*
X145028572Y-109823571D01*
X145028572Y-109823571D02*
X144900000Y-109895000D01*
X145478572Y-110752142D02*
X145350000Y-110823571D01*
X145350000Y-110823571D02*
X145028572Y-110823571D01*
X145028572Y-110823571D02*
X144900000Y-110752142D01*
X144900000Y-110752142D02*
X144835714Y-110609285D01*
X144835714Y-110609285D02*
X144835714Y-110466428D01*
X144835714Y-110466428D02*
X144900000Y-110323571D01*
X144900000Y-110323571D02*
X145028572Y-110252142D01*
X145028572Y-110252142D02*
X145350000Y-110252142D01*
X145350000Y-110252142D02*
X145478572Y-110180714D01*
X146121429Y-110823571D02*
X146121429Y-109823571D01*
X146121429Y-110109285D02*
X146185715Y-109966428D01*
X146185715Y-109966428D02*
X146250001Y-109895000D01*
X146250001Y-109895000D02*
X146378572Y-109823571D01*
X146378572Y-109823571D02*
X146507143Y-109823571D01*
X147535715Y-109823571D02*
X147535715Y-111037857D01*
X147535715Y-111037857D02*
X147471429Y-111180714D01*
X147471429Y-111180714D02*
X147407143Y-111252142D01*
X147407143Y-111252142D02*
X147278572Y-111323571D01*
X147278572Y-111323571D02*
X147085715Y-111323571D01*
X147085715Y-111323571D02*
X146957143Y-111252142D01*
X147535715Y-110752142D02*
X147407143Y-110823571D01*
X147407143Y-110823571D02*
X147150000Y-110823571D01*
X147150000Y-110823571D02*
X147021429Y-110752142D01*
X147021429Y-110752142D02*
X146957143Y-110680714D01*
X146957143Y-110680714D02*
X146892857Y-110537857D01*
X146892857Y-110537857D02*
X146892857Y-110109285D01*
X146892857Y-110109285D02*
X146957143Y-109966428D01*
X146957143Y-109966428D02*
X147021429Y-109895000D01*
X147021429Y-109895000D02*
X147150000Y-109823571D01*
X147150000Y-109823571D02*
X147407143Y-109823571D01*
X147407143Y-109823571D02*
X147535715Y-109895000D01*
X148692858Y-110752142D02*
X148564286Y-110823571D01*
X148564286Y-110823571D02*
X148307144Y-110823571D01*
X148307144Y-110823571D02*
X148178572Y-110752142D01*
X148178572Y-110752142D02*
X148114286Y-110609285D01*
X148114286Y-110609285D02*
X148114286Y-110037857D01*
X148114286Y-110037857D02*
X148178572Y-109895000D01*
X148178572Y-109895000D02*
X148307144Y-109823571D01*
X148307144Y-109823571D02*
X148564286Y-109823571D01*
X148564286Y-109823571D02*
X148692858Y-109895000D01*
X148692858Y-109895000D02*
X148757144Y-110037857D01*
X148757144Y-110037857D02*
X148757144Y-110180714D01*
X148757144Y-110180714D02*
X148114286Y-110323571D01*
X149142858Y-109823571D02*
X149657144Y-109823571D01*
X149335715Y-109323571D02*
X149335715Y-110609285D01*
X149335715Y-110609285D02*
X149400001Y-110752142D01*
X149400001Y-110752142D02*
X149528572Y-110823571D01*
X149528572Y-110823571D02*
X149657144Y-110823571D01*
X151560001Y-110823571D02*
X150917144Y-110823571D01*
X150917144Y-110823571D02*
X150917144Y-109323571D01*
X152010001Y-110037857D02*
X152460001Y-110037857D01*
X152652858Y-110823571D02*
X152010001Y-110823571D01*
X152010001Y-110823571D02*
X152010001Y-109323571D01*
X152010001Y-109323571D02*
X152652858Y-109323571D01*
X153231430Y-110823571D02*
X153231430Y-109323571D01*
X153231430Y-109323571D02*
X153552859Y-109323571D01*
X153552859Y-109323571D02*
X153745716Y-109395000D01*
X153745716Y-109395000D02*
X153874287Y-109537857D01*
X153874287Y-109537857D02*
X153938573Y-109680714D01*
X153938573Y-109680714D02*
X154002859Y-109966428D01*
X154002859Y-109966428D02*
X154002859Y-110180714D01*
X154002859Y-110180714D02*
X153938573Y-110466428D01*
X153938573Y-110466428D02*
X153874287Y-110609285D01*
X153874287Y-110609285D02*
X153745716Y-110752142D01*
X153745716Y-110752142D02*
X153552859Y-110823571D01*
X153552859Y-110823571D02*
X153231430Y-110823571D01*
X137417142Y-113182142D02*
X137610000Y-113253571D01*
X137610000Y-113253571D02*
X137931428Y-113253571D01*
X137931428Y-113253571D02*
X138060000Y-113182142D01*
X138060000Y-113182142D02*
X138124285Y-113110714D01*
X138124285Y-113110714D02*
X138188571Y-112967857D01*
X138188571Y-112967857D02*
X138188571Y-112825000D01*
X138188571Y-112825000D02*
X138124285Y-112682142D01*
X138124285Y-112682142D02*
X138060000Y-112610714D01*
X138060000Y-112610714D02*
X137931428Y-112539285D01*
X137931428Y-112539285D02*
X137674285Y-112467857D01*
X137674285Y-112467857D02*
X137545714Y-112396428D01*
X137545714Y-112396428D02*
X137481428Y-112325000D01*
X137481428Y-112325000D02*
X137417142Y-112182142D01*
X137417142Y-112182142D02*
X137417142Y-112039285D01*
X137417142Y-112039285D02*
X137481428Y-111896428D01*
X137481428Y-111896428D02*
X137545714Y-111825000D01*
X137545714Y-111825000D02*
X137674285Y-111753571D01*
X137674285Y-111753571D02*
X137995714Y-111753571D01*
X137995714Y-111753571D02*
X138188571Y-111825000D01*
X139281428Y-113182142D02*
X139152856Y-113253571D01*
X139152856Y-113253571D02*
X138895714Y-113253571D01*
X138895714Y-113253571D02*
X138767142Y-113182142D01*
X138767142Y-113182142D02*
X138702856Y-113039285D01*
X138702856Y-113039285D02*
X138702856Y-112467857D01*
X138702856Y-112467857D02*
X138767142Y-112325000D01*
X138767142Y-112325000D02*
X138895714Y-112253571D01*
X138895714Y-112253571D02*
X139152856Y-112253571D01*
X139152856Y-112253571D02*
X139281428Y-112325000D01*
X139281428Y-112325000D02*
X139345714Y-112467857D01*
X139345714Y-112467857D02*
X139345714Y-112610714D01*
X139345714Y-112610714D02*
X138702856Y-112753571D01*
X140502857Y-112253571D02*
X140502857Y-113753571D01*
X140502857Y-113182142D02*
X140374285Y-113253571D01*
X140374285Y-113253571D02*
X140117142Y-113253571D01*
X140117142Y-113253571D02*
X139988571Y-113182142D01*
X139988571Y-113182142D02*
X139924285Y-113110714D01*
X139924285Y-113110714D02*
X139859999Y-112967857D01*
X139859999Y-112967857D02*
X139859999Y-112539285D01*
X139859999Y-112539285D02*
X139924285Y-112396428D01*
X139924285Y-112396428D02*
X139988571Y-112325000D01*
X139988571Y-112325000D02*
X140117142Y-112253571D01*
X140117142Y-112253571D02*
X140374285Y-112253571D01*
X140374285Y-112253571D02*
X140502857Y-112325000D01*
X141724286Y-112253571D02*
X141724286Y-113253571D01*
X141145714Y-112253571D02*
X141145714Y-113039285D01*
X141145714Y-113039285D02*
X141210000Y-113182142D01*
X141210000Y-113182142D02*
X141338571Y-113253571D01*
X141338571Y-113253571D02*
X141531428Y-113253571D01*
X141531428Y-113253571D02*
X141660000Y-113182142D01*
X141660000Y-113182142D02*
X141724286Y-113110714D01*
X142881429Y-113182142D02*
X142752857Y-113253571D01*
X142752857Y-113253571D02*
X142495715Y-113253571D01*
X142495715Y-113253571D02*
X142367143Y-113182142D01*
X142367143Y-113182142D02*
X142302857Y-113039285D01*
X142302857Y-113039285D02*
X142302857Y-112467857D01*
X142302857Y-112467857D02*
X142367143Y-112325000D01*
X142367143Y-112325000D02*
X142495715Y-112253571D01*
X142495715Y-112253571D02*
X142752857Y-112253571D01*
X142752857Y-112253571D02*
X142881429Y-112325000D01*
X142881429Y-112325000D02*
X142945715Y-112467857D01*
X142945715Y-112467857D02*
X142945715Y-112610714D01*
X142945715Y-112610714D02*
X142302857Y-112753571D01*
X143524286Y-112253571D02*
X143524286Y-113253571D01*
X143524286Y-112396428D02*
X143588572Y-112325000D01*
X143588572Y-112325000D02*
X143717143Y-112253571D01*
X143717143Y-112253571D02*
X143910000Y-112253571D01*
X143910000Y-112253571D02*
X144038572Y-112325000D01*
X144038572Y-112325000D02*
X144102858Y-112467857D01*
X144102858Y-112467857D02*
X144102858Y-113253571D01*
X145324287Y-113182142D02*
X145195715Y-113253571D01*
X145195715Y-113253571D02*
X144938572Y-113253571D01*
X144938572Y-113253571D02*
X144810001Y-113182142D01*
X144810001Y-113182142D02*
X144745715Y-113110714D01*
X144745715Y-113110714D02*
X144681429Y-112967857D01*
X144681429Y-112967857D02*
X144681429Y-112539285D01*
X144681429Y-112539285D02*
X144745715Y-112396428D01*
X144745715Y-112396428D02*
X144810001Y-112325000D01*
X144810001Y-112325000D02*
X144938572Y-112253571D01*
X144938572Y-112253571D02*
X145195715Y-112253571D01*
X145195715Y-112253571D02*
X145324287Y-112325000D01*
X146417144Y-113182142D02*
X146288572Y-113253571D01*
X146288572Y-113253571D02*
X146031430Y-113253571D01*
X146031430Y-113253571D02*
X145902858Y-113182142D01*
X145902858Y-113182142D02*
X145838572Y-113039285D01*
X145838572Y-113039285D02*
X145838572Y-112467857D01*
X145838572Y-112467857D02*
X145902858Y-112325000D01*
X145902858Y-112325000D02*
X146031430Y-112253571D01*
X146031430Y-112253571D02*
X146288572Y-112253571D01*
X146288572Y-112253571D02*
X146417144Y-112325000D01*
X146417144Y-112325000D02*
X146481430Y-112467857D01*
X146481430Y-112467857D02*
X146481430Y-112610714D01*
X146481430Y-112610714D02*
X145838572Y-112753571D01*
X147741430Y-112253571D02*
X147998573Y-113253571D01*
X147998573Y-113253571D02*
X148255715Y-112539285D01*
X148255715Y-112539285D02*
X148512858Y-113253571D01*
X148512858Y-113253571D02*
X148770001Y-112253571D01*
X149284287Y-113253571D02*
X149284287Y-112253571D01*
X149284287Y-111753571D02*
X149220001Y-111825000D01*
X149220001Y-111825000D02*
X149284287Y-111896428D01*
X149284287Y-111896428D02*
X149348573Y-111825000D01*
X149348573Y-111825000D02*
X149284287Y-111753571D01*
X149284287Y-111753571D02*
X149284287Y-111896428D01*
X150120001Y-113253571D02*
X149991430Y-113182142D01*
X149991430Y-113182142D02*
X149927144Y-113039285D01*
X149927144Y-113039285D02*
X149927144Y-111753571D01*
X150827144Y-113253571D02*
X150698573Y-113182142D01*
X150698573Y-113182142D02*
X150634287Y-113039285D01*
X150634287Y-113039285D02*
X150634287Y-111753571D01*
X152151430Y-113253571D02*
X152151430Y-111753571D01*
X152151430Y-112325000D02*
X152280002Y-112253571D01*
X152280002Y-112253571D02*
X152537144Y-112253571D01*
X152537144Y-112253571D02*
X152665716Y-112325000D01*
X152665716Y-112325000D02*
X152730002Y-112396428D01*
X152730002Y-112396428D02*
X152794287Y-112539285D01*
X152794287Y-112539285D02*
X152794287Y-112967857D01*
X152794287Y-112967857D02*
X152730002Y-113110714D01*
X152730002Y-113110714D02*
X152665716Y-113182142D01*
X152665716Y-113182142D02*
X152537144Y-113253571D01*
X152537144Y-113253571D02*
X152280002Y-113253571D01*
X152280002Y-113253571D02*
X152151430Y-113182142D01*
X153887145Y-113182142D02*
X153758573Y-113253571D01*
X153758573Y-113253571D02*
X153501431Y-113253571D01*
X153501431Y-113253571D02*
X153372859Y-113182142D01*
X153372859Y-113182142D02*
X153308573Y-113039285D01*
X153308573Y-113039285D02*
X153308573Y-112467857D01*
X153308573Y-112467857D02*
X153372859Y-112325000D01*
X153372859Y-112325000D02*
X153501431Y-112253571D01*
X153501431Y-112253571D02*
X153758573Y-112253571D01*
X153758573Y-112253571D02*
X153887145Y-112325000D01*
X153887145Y-112325000D02*
X153951431Y-112467857D01*
X153951431Y-112467857D02*
X153951431Y-112610714D01*
X153951431Y-112610714D02*
X153308573Y-112753571D01*
X155108574Y-112253571D02*
X155108574Y-113467857D01*
X155108574Y-113467857D02*
X155044288Y-113610714D01*
X155044288Y-113610714D02*
X154980002Y-113682142D01*
X154980002Y-113682142D02*
X154851431Y-113753571D01*
X154851431Y-113753571D02*
X154658574Y-113753571D01*
X154658574Y-113753571D02*
X154530002Y-113682142D01*
X155108574Y-113182142D02*
X154980002Y-113253571D01*
X154980002Y-113253571D02*
X154722859Y-113253571D01*
X154722859Y-113253571D02*
X154594288Y-113182142D01*
X154594288Y-113182142D02*
X154530002Y-113110714D01*
X154530002Y-113110714D02*
X154465716Y-112967857D01*
X154465716Y-112967857D02*
X154465716Y-112539285D01*
X154465716Y-112539285D02*
X154530002Y-112396428D01*
X154530002Y-112396428D02*
X154594288Y-112325000D01*
X154594288Y-112325000D02*
X154722859Y-112253571D01*
X154722859Y-112253571D02*
X154980002Y-112253571D01*
X154980002Y-112253571D02*
X155108574Y-112325000D01*
X155751431Y-113253571D02*
X155751431Y-112253571D01*
X155751431Y-111753571D02*
X155687145Y-111825000D01*
X155687145Y-111825000D02*
X155751431Y-111896428D01*
X155751431Y-111896428D02*
X155815717Y-111825000D01*
X155815717Y-111825000D02*
X155751431Y-111753571D01*
X155751431Y-111753571D02*
X155751431Y-111896428D01*
X156394288Y-112253571D02*
X156394288Y-113253571D01*
X156394288Y-112396428D02*
X156458574Y-112325000D01*
X156458574Y-112325000D02*
X156587145Y-112253571D01*
X156587145Y-112253571D02*
X156780002Y-112253571D01*
X156780002Y-112253571D02*
X156908574Y-112325000D01*
X156908574Y-112325000D02*
X156972860Y-112467857D01*
X156972860Y-112467857D02*
X156972860Y-113253571D01*
X137481428Y-115683571D02*
X137481428Y-114183571D01*
X137481428Y-114183571D02*
X137995714Y-114183571D01*
X137995714Y-114183571D02*
X138124285Y-114255000D01*
X138124285Y-114255000D02*
X138188571Y-114326428D01*
X138188571Y-114326428D02*
X138252857Y-114469285D01*
X138252857Y-114469285D02*
X138252857Y-114683571D01*
X138252857Y-114683571D02*
X138188571Y-114826428D01*
X138188571Y-114826428D02*
X138124285Y-114897857D01*
X138124285Y-114897857D02*
X137995714Y-114969285D01*
X137995714Y-114969285D02*
X137481428Y-114969285D01*
X138831428Y-115683571D02*
X138831428Y-114683571D01*
X138831428Y-114969285D02*
X138895714Y-114826428D01*
X138895714Y-114826428D02*
X138960000Y-114755000D01*
X138960000Y-114755000D02*
X139088571Y-114683571D01*
X139088571Y-114683571D02*
X139217142Y-114683571D01*
X140181428Y-115612142D02*
X140052856Y-115683571D01*
X140052856Y-115683571D02*
X139795714Y-115683571D01*
X139795714Y-115683571D02*
X139667142Y-115612142D01*
X139667142Y-115612142D02*
X139602856Y-115469285D01*
X139602856Y-115469285D02*
X139602856Y-114897857D01*
X139602856Y-114897857D02*
X139667142Y-114755000D01*
X139667142Y-114755000D02*
X139795714Y-114683571D01*
X139795714Y-114683571D02*
X140052856Y-114683571D01*
X140052856Y-114683571D02*
X140181428Y-114755000D01*
X140181428Y-114755000D02*
X140245714Y-114897857D01*
X140245714Y-114897857D02*
X140245714Y-115040714D01*
X140245714Y-115040714D02*
X139602856Y-115183571D01*
X140759999Y-115612142D02*
X140888571Y-115683571D01*
X140888571Y-115683571D02*
X141145714Y-115683571D01*
X141145714Y-115683571D02*
X141274285Y-115612142D01*
X141274285Y-115612142D02*
X141338571Y-115469285D01*
X141338571Y-115469285D02*
X141338571Y-115397857D01*
X141338571Y-115397857D02*
X141274285Y-115255000D01*
X141274285Y-115255000D02*
X141145714Y-115183571D01*
X141145714Y-115183571D02*
X140952857Y-115183571D01*
X140952857Y-115183571D02*
X140824285Y-115112142D01*
X140824285Y-115112142D02*
X140759999Y-114969285D01*
X140759999Y-114969285D02*
X140759999Y-114897857D01*
X140759999Y-114897857D02*
X140824285Y-114755000D01*
X140824285Y-114755000D02*
X140952857Y-114683571D01*
X140952857Y-114683571D02*
X141145714Y-114683571D01*
X141145714Y-114683571D02*
X141274285Y-114755000D01*
X141852856Y-115612142D02*
X141981428Y-115683571D01*
X141981428Y-115683571D02*
X142238571Y-115683571D01*
X142238571Y-115683571D02*
X142367142Y-115612142D01*
X142367142Y-115612142D02*
X142431428Y-115469285D01*
X142431428Y-115469285D02*
X142431428Y-115397857D01*
X142431428Y-115397857D02*
X142367142Y-115255000D01*
X142367142Y-115255000D02*
X142238571Y-115183571D01*
X142238571Y-115183571D02*
X142045714Y-115183571D01*
X142045714Y-115183571D02*
X141917142Y-115112142D01*
X141917142Y-115112142D02*
X141852856Y-114969285D01*
X141852856Y-114969285D02*
X141852856Y-114897857D01*
X141852856Y-114897857D02*
X141917142Y-114755000D01*
X141917142Y-114755000D02*
X142045714Y-114683571D01*
X142045714Y-114683571D02*
X142238571Y-114683571D01*
X142238571Y-114683571D02*
X142367142Y-114755000D01*
X144269999Y-114897857D02*
X144462856Y-114969285D01*
X144462856Y-114969285D02*
X144527142Y-115040714D01*
X144527142Y-115040714D02*
X144591428Y-115183571D01*
X144591428Y-115183571D02*
X144591428Y-115397857D01*
X144591428Y-115397857D02*
X144527142Y-115540714D01*
X144527142Y-115540714D02*
X144462856Y-115612142D01*
X144462856Y-115612142D02*
X144334285Y-115683571D01*
X144334285Y-115683571D02*
X143819999Y-115683571D01*
X143819999Y-115683571D02*
X143819999Y-114183571D01*
X143819999Y-114183571D02*
X144269999Y-114183571D01*
X144269999Y-114183571D02*
X144398571Y-114255000D01*
X144398571Y-114255000D02*
X144462856Y-114326428D01*
X144462856Y-114326428D02*
X144527142Y-114469285D01*
X144527142Y-114469285D02*
X144527142Y-114612142D01*
X144527142Y-114612142D02*
X144462856Y-114755000D01*
X144462856Y-114755000D02*
X144398571Y-114826428D01*
X144398571Y-114826428D02*
X144269999Y-114897857D01*
X144269999Y-114897857D02*
X143819999Y-114897857D01*
X145748571Y-114683571D02*
X145748571Y-115683571D01*
X145169999Y-114683571D02*
X145169999Y-115469285D01*
X145169999Y-115469285D02*
X145234285Y-115612142D01*
X145234285Y-115612142D02*
X145362856Y-115683571D01*
X145362856Y-115683571D02*
X145555713Y-115683571D01*
X145555713Y-115683571D02*
X145684285Y-115612142D01*
X145684285Y-115612142D02*
X145748571Y-115540714D01*
X146198571Y-114683571D02*
X146712857Y-114683571D01*
X146391428Y-114183571D02*
X146391428Y-115469285D01*
X146391428Y-115469285D02*
X146455714Y-115612142D01*
X146455714Y-115612142D02*
X146584285Y-115683571D01*
X146584285Y-115683571D02*
X146712857Y-115683571D01*
X146970000Y-114683571D02*
X147484286Y-114683571D01*
X147162857Y-114183571D02*
X147162857Y-115469285D01*
X147162857Y-115469285D02*
X147227143Y-115612142D01*
X147227143Y-115612142D02*
X147355714Y-115683571D01*
X147355714Y-115683571D02*
X147484286Y-115683571D01*
X148127143Y-115683571D02*
X147998572Y-115612142D01*
X147998572Y-115612142D02*
X147934286Y-115540714D01*
X147934286Y-115540714D02*
X147870000Y-115397857D01*
X147870000Y-115397857D02*
X147870000Y-114969285D01*
X147870000Y-114969285D02*
X147934286Y-114826428D01*
X147934286Y-114826428D02*
X147998572Y-114755000D01*
X147998572Y-114755000D02*
X148127143Y-114683571D01*
X148127143Y-114683571D02*
X148320000Y-114683571D01*
X148320000Y-114683571D02*
X148448572Y-114755000D01*
X148448572Y-114755000D02*
X148512858Y-114826428D01*
X148512858Y-114826428D02*
X148577143Y-114969285D01*
X148577143Y-114969285D02*
X148577143Y-115397857D01*
X148577143Y-115397857D02*
X148512858Y-115540714D01*
X148512858Y-115540714D02*
X148448572Y-115612142D01*
X148448572Y-115612142D02*
X148320000Y-115683571D01*
X148320000Y-115683571D02*
X148127143Y-115683571D01*
X149155715Y-114683571D02*
X149155715Y-115683571D01*
X149155715Y-114826428D02*
X149220001Y-114755000D01*
X149220001Y-114755000D02*
X149348572Y-114683571D01*
X149348572Y-114683571D02*
X149541429Y-114683571D01*
X149541429Y-114683571D02*
X149670001Y-114755000D01*
X149670001Y-114755000D02*
X149734287Y-114897857D01*
X149734287Y-114897857D02*
X149734287Y-115683571D01*
X151894287Y-115683571D02*
X151122858Y-115683571D01*
X151508573Y-115683571D02*
X151508573Y-114183571D01*
X151508573Y-114183571D02*
X151380001Y-114397857D01*
X151380001Y-114397857D02*
X151251430Y-114540714D01*
X151251430Y-114540714D02*
X151122858Y-114612142D01*
X153090001Y-114683571D02*
X153604287Y-114683571D01*
X153282858Y-114183571D02*
X153282858Y-115469285D01*
X153282858Y-115469285D02*
X153347144Y-115612142D01*
X153347144Y-115612142D02*
X153475715Y-115683571D01*
X153475715Y-115683571D02*
X153604287Y-115683571D01*
X154247144Y-115683571D02*
X154118573Y-115612142D01*
X154118573Y-115612142D02*
X154054287Y-115540714D01*
X154054287Y-115540714D02*
X153990001Y-115397857D01*
X153990001Y-115397857D02*
X153990001Y-114969285D01*
X153990001Y-114969285D02*
X154054287Y-114826428D01*
X154054287Y-114826428D02*
X154118573Y-114755000D01*
X154118573Y-114755000D02*
X154247144Y-114683571D01*
X154247144Y-114683571D02*
X154440001Y-114683571D01*
X154440001Y-114683571D02*
X154568573Y-114755000D01*
X154568573Y-114755000D02*
X154632859Y-114826428D01*
X154632859Y-114826428D02*
X154697144Y-114969285D01*
X154697144Y-114969285D02*
X154697144Y-115397857D01*
X154697144Y-115397857D02*
X154632859Y-115540714D01*
X154632859Y-115540714D02*
X154568573Y-115612142D01*
X154568573Y-115612142D02*
X154440001Y-115683571D01*
X154440001Y-115683571D02*
X154247144Y-115683571D01*
X139847142Y-118042142D02*
X139975714Y-118113571D01*
X139975714Y-118113571D02*
X140232857Y-118113571D01*
X140232857Y-118113571D02*
X140361428Y-118042142D01*
X140361428Y-118042142D02*
X140425714Y-117899285D01*
X140425714Y-117899285D02*
X140425714Y-117827857D01*
X140425714Y-117827857D02*
X140361428Y-117685000D01*
X140361428Y-117685000D02*
X140232857Y-117613571D01*
X140232857Y-117613571D02*
X140040000Y-117613571D01*
X140040000Y-117613571D02*
X139911428Y-117542142D01*
X139911428Y-117542142D02*
X139847142Y-117399285D01*
X139847142Y-117399285D02*
X139847142Y-117327857D01*
X139847142Y-117327857D02*
X139911428Y-117185000D01*
X139911428Y-117185000D02*
X140040000Y-117113571D01*
X140040000Y-117113571D02*
X140232857Y-117113571D01*
X140232857Y-117113571D02*
X140361428Y-117185000D01*
X140811428Y-117113571D02*
X141325714Y-117113571D01*
X141004285Y-116613571D02*
X141004285Y-117899285D01*
X141004285Y-117899285D02*
X141068571Y-118042142D01*
X141068571Y-118042142D02*
X141197142Y-118113571D01*
X141197142Y-118113571D02*
X141325714Y-118113571D01*
X141968571Y-118113571D02*
X141840000Y-118042142D01*
X141840000Y-118042142D02*
X141775714Y-117970714D01*
X141775714Y-117970714D02*
X141711428Y-117827857D01*
X141711428Y-117827857D02*
X141711428Y-117399285D01*
X141711428Y-117399285D02*
X141775714Y-117256428D01*
X141775714Y-117256428D02*
X141840000Y-117185000D01*
X141840000Y-117185000D02*
X141968571Y-117113571D01*
X141968571Y-117113571D02*
X142161428Y-117113571D01*
X142161428Y-117113571D02*
X142290000Y-117185000D01*
X142290000Y-117185000D02*
X142354286Y-117256428D01*
X142354286Y-117256428D02*
X142418571Y-117399285D01*
X142418571Y-117399285D02*
X142418571Y-117827857D01*
X142418571Y-117827857D02*
X142354286Y-117970714D01*
X142354286Y-117970714D02*
X142290000Y-118042142D01*
X142290000Y-118042142D02*
X142161428Y-118113571D01*
X142161428Y-118113571D02*
X141968571Y-118113571D01*
X142997143Y-117113571D02*
X142997143Y-118613571D01*
X142997143Y-117185000D02*
X143125715Y-117113571D01*
X143125715Y-117113571D02*
X143382857Y-117113571D01*
X143382857Y-117113571D02*
X143511429Y-117185000D01*
X143511429Y-117185000D02*
X143575715Y-117256428D01*
X143575715Y-117256428D02*
X143640000Y-117399285D01*
X143640000Y-117399285D02*
X143640000Y-117827857D01*
X143640000Y-117827857D02*
X143575715Y-117970714D01*
X143575715Y-117970714D02*
X143511429Y-118042142D01*
X143511429Y-118042142D02*
X143382857Y-118113571D01*
X143382857Y-118113571D02*
X143125715Y-118113571D01*
X143125715Y-118113571D02*
X142997143Y-118042142D01*
X145671429Y-118113571D02*
X145028572Y-118113571D01*
X145028572Y-118113571D02*
X145028572Y-116613571D01*
X146121429Y-117327857D02*
X146571429Y-117327857D01*
X146764286Y-118113571D02*
X146121429Y-118113571D01*
X146121429Y-118113571D02*
X146121429Y-116613571D01*
X146121429Y-116613571D02*
X146764286Y-116613571D01*
X147342858Y-118113571D02*
X147342858Y-116613571D01*
X147342858Y-116613571D02*
X147664287Y-116613571D01*
X147664287Y-116613571D02*
X147857144Y-116685000D01*
X147857144Y-116685000D02*
X147985715Y-116827857D01*
X147985715Y-116827857D02*
X148050001Y-116970714D01*
X148050001Y-116970714D02*
X148114287Y-117256428D01*
X148114287Y-117256428D02*
X148114287Y-117470714D01*
X148114287Y-117470714D02*
X148050001Y-117756428D01*
X148050001Y-117756428D02*
X147985715Y-117899285D01*
X147985715Y-117899285D02*
X147857144Y-118042142D01*
X147857144Y-118042142D02*
X147664287Y-118113571D01*
X147664287Y-118113571D02*
X147342858Y-118113571D01*
X149438572Y-118042142D02*
X149567144Y-118113571D01*
X149567144Y-118113571D02*
X149824287Y-118113571D01*
X149824287Y-118113571D02*
X149952858Y-118042142D01*
X149952858Y-118042142D02*
X150017144Y-117899285D01*
X150017144Y-117899285D02*
X150017144Y-117827857D01*
X150017144Y-117827857D02*
X149952858Y-117685000D01*
X149952858Y-117685000D02*
X149824287Y-117613571D01*
X149824287Y-117613571D02*
X149631430Y-117613571D01*
X149631430Y-117613571D02*
X149502858Y-117542142D01*
X149502858Y-117542142D02*
X149438572Y-117399285D01*
X149438572Y-117399285D02*
X149438572Y-117327857D01*
X149438572Y-117327857D02*
X149502858Y-117185000D01*
X149502858Y-117185000D02*
X149631430Y-117113571D01*
X149631430Y-117113571D02*
X149824287Y-117113571D01*
X149824287Y-117113571D02*
X149952858Y-117185000D01*
X151110001Y-118042142D02*
X150981429Y-118113571D01*
X150981429Y-118113571D02*
X150724287Y-118113571D01*
X150724287Y-118113571D02*
X150595715Y-118042142D01*
X150595715Y-118042142D02*
X150531429Y-117899285D01*
X150531429Y-117899285D02*
X150531429Y-117327857D01*
X150531429Y-117327857D02*
X150595715Y-117185000D01*
X150595715Y-117185000D02*
X150724287Y-117113571D01*
X150724287Y-117113571D02*
X150981429Y-117113571D01*
X150981429Y-117113571D02*
X151110001Y-117185000D01*
X151110001Y-117185000D02*
X151174287Y-117327857D01*
X151174287Y-117327857D02*
X151174287Y-117470714D01*
X151174287Y-117470714D02*
X150531429Y-117613571D01*
X152331430Y-117113571D02*
X152331430Y-118613571D01*
X152331430Y-118042142D02*
X152202858Y-118113571D01*
X152202858Y-118113571D02*
X151945715Y-118113571D01*
X151945715Y-118113571D02*
X151817144Y-118042142D01*
X151817144Y-118042142D02*
X151752858Y-117970714D01*
X151752858Y-117970714D02*
X151688572Y-117827857D01*
X151688572Y-117827857D02*
X151688572Y-117399285D01*
X151688572Y-117399285D02*
X151752858Y-117256428D01*
X151752858Y-117256428D02*
X151817144Y-117185000D01*
X151817144Y-117185000D02*
X151945715Y-117113571D01*
X151945715Y-117113571D02*
X152202858Y-117113571D01*
X152202858Y-117113571D02*
X152331430Y-117185000D01*
X153552859Y-117113571D02*
X153552859Y-118113571D01*
X152974287Y-117113571D02*
X152974287Y-117899285D01*
X152974287Y-117899285D02*
X153038573Y-118042142D01*
X153038573Y-118042142D02*
X153167144Y-118113571D01*
X153167144Y-118113571D02*
X153360001Y-118113571D01*
X153360001Y-118113571D02*
X153488573Y-118042142D01*
X153488573Y-118042142D02*
X153552859Y-117970714D01*
X154710002Y-118042142D02*
X154581430Y-118113571D01*
X154581430Y-118113571D02*
X154324288Y-118113571D01*
X154324288Y-118113571D02*
X154195716Y-118042142D01*
X154195716Y-118042142D02*
X154131430Y-117899285D01*
X154131430Y-117899285D02*
X154131430Y-117327857D01*
X154131430Y-117327857D02*
X154195716Y-117185000D01*
X154195716Y-117185000D02*
X154324288Y-117113571D01*
X154324288Y-117113571D02*
X154581430Y-117113571D01*
X154581430Y-117113571D02*
X154710002Y-117185000D01*
X154710002Y-117185000D02*
X154774288Y-117327857D01*
X154774288Y-117327857D02*
X154774288Y-117470714D01*
X154774288Y-117470714D02*
X154131430Y-117613571D01*
X155352859Y-117113571D02*
X155352859Y-118113571D01*
X155352859Y-117256428D02*
X155417145Y-117185000D01*
X155417145Y-117185000D02*
X155545716Y-117113571D01*
X155545716Y-117113571D02*
X155738573Y-117113571D01*
X155738573Y-117113571D02*
X155867145Y-117185000D01*
X155867145Y-117185000D02*
X155931431Y-117327857D01*
X155931431Y-117327857D02*
X155931431Y-118113571D01*
X157152860Y-118042142D02*
X157024288Y-118113571D01*
X157024288Y-118113571D02*
X156767145Y-118113571D01*
X156767145Y-118113571D02*
X156638574Y-118042142D01*
X156638574Y-118042142D02*
X156574288Y-117970714D01*
X156574288Y-117970714D02*
X156510002Y-117827857D01*
X156510002Y-117827857D02*
X156510002Y-117399285D01*
X156510002Y-117399285D02*
X156574288Y-117256428D01*
X156574288Y-117256428D02*
X156638574Y-117185000D01*
X156638574Y-117185000D02*
X156767145Y-117113571D01*
X156767145Y-117113571D02*
X157024288Y-117113571D01*
X157024288Y-117113571D02*
X157152860Y-117185000D01*
X158245717Y-118042142D02*
X158117145Y-118113571D01*
X158117145Y-118113571D02*
X157860003Y-118113571D01*
X157860003Y-118113571D02*
X157731431Y-118042142D01*
X157731431Y-118042142D02*
X157667145Y-117899285D01*
X157667145Y-117899285D02*
X157667145Y-117327857D01*
X157667145Y-117327857D02*
X157731431Y-117185000D01*
X157731431Y-117185000D02*
X157860003Y-117113571D01*
X157860003Y-117113571D02*
X158117145Y-117113571D01*
X158117145Y-117113571D02*
X158245717Y-117185000D01*
X158245717Y-117185000D02*
X158310003Y-117327857D01*
X158310003Y-117327857D02*
X158310003Y-117470714D01*
X158310003Y-117470714D02*
X157667145Y-117613571D01*
X137481428Y-120543571D02*
X137481428Y-119043571D01*
X137931428Y-119543571D02*
X138445714Y-119543571D01*
X138124285Y-120543571D02*
X138124285Y-119257857D01*
X138124285Y-119257857D02*
X138188571Y-119115000D01*
X138188571Y-119115000D02*
X138317142Y-119043571D01*
X138317142Y-119043571D02*
X138445714Y-119043571D01*
X139577143Y-119543571D02*
X139898571Y-120543571D01*
X140220000Y-119543571D02*
X139898571Y-120543571D01*
X139898571Y-120543571D02*
X139770000Y-120900714D01*
X139770000Y-120900714D02*
X139705714Y-120972142D01*
X139705714Y-120972142D02*
X139577143Y-121043571D01*
X140927142Y-120543571D02*
X140798571Y-120472142D01*
X140798571Y-120472142D02*
X140734285Y-120400714D01*
X140734285Y-120400714D02*
X140669999Y-120257857D01*
X140669999Y-120257857D02*
X140669999Y-119829285D01*
X140669999Y-119829285D02*
X140734285Y-119686428D01*
X140734285Y-119686428D02*
X140798571Y-119615000D01*
X140798571Y-119615000D02*
X140927142Y-119543571D01*
X140927142Y-119543571D02*
X141119999Y-119543571D01*
X141119999Y-119543571D02*
X141248571Y-119615000D01*
X141248571Y-119615000D02*
X141312857Y-119686428D01*
X141312857Y-119686428D02*
X141377142Y-119829285D01*
X141377142Y-119829285D02*
X141377142Y-120257857D01*
X141377142Y-120257857D02*
X141312857Y-120400714D01*
X141312857Y-120400714D02*
X141248571Y-120472142D01*
X141248571Y-120472142D02*
X141119999Y-120543571D01*
X141119999Y-120543571D02*
X140927142Y-120543571D01*
X142534286Y-119543571D02*
X142534286Y-120543571D01*
X141955714Y-119543571D02*
X141955714Y-120329285D01*
X141955714Y-120329285D02*
X142020000Y-120472142D01*
X142020000Y-120472142D02*
X142148571Y-120543571D01*
X142148571Y-120543571D02*
X142341428Y-120543571D01*
X142341428Y-120543571D02*
X142470000Y-120472142D01*
X142470000Y-120472142D02*
X142534286Y-120400714D01*
X143858572Y-119543571D02*
X144115715Y-120543571D01*
X144115715Y-120543571D02*
X144372857Y-119829285D01*
X144372857Y-119829285D02*
X144630000Y-120543571D01*
X144630000Y-120543571D02*
X144887143Y-119543571D01*
X145401429Y-120543571D02*
X145401429Y-119543571D01*
X145401429Y-119043571D02*
X145337143Y-119115000D01*
X145337143Y-119115000D02*
X145401429Y-119186428D01*
X145401429Y-119186428D02*
X145465715Y-119115000D01*
X145465715Y-119115000D02*
X145401429Y-119043571D01*
X145401429Y-119043571D02*
X145401429Y-119186428D01*
X146044286Y-119543571D02*
X146044286Y-120543571D01*
X146044286Y-119686428D02*
X146108572Y-119615000D01*
X146108572Y-119615000D02*
X146237143Y-119543571D01*
X146237143Y-119543571D02*
X146430000Y-119543571D01*
X146430000Y-119543571D02*
X146558572Y-119615000D01*
X146558572Y-119615000D02*
X146622858Y-119757857D01*
X146622858Y-119757857D02*
X146622858Y-120543571D01*
X147265715Y-120400714D02*
X147330001Y-120472142D01*
X147330001Y-120472142D02*
X147265715Y-120543571D01*
X147265715Y-120543571D02*
X147201429Y-120472142D01*
X147201429Y-120472142D02*
X147265715Y-120400714D01*
X147265715Y-120400714D02*
X147265715Y-120543571D01*
X147908572Y-120400714D02*
X147972858Y-120472142D01*
X147972858Y-120472142D02*
X147908572Y-120543571D01*
X147908572Y-120543571D02*
X147844286Y-120472142D01*
X147844286Y-120472142D02*
X147908572Y-120400714D01*
X147908572Y-120400714D02*
X147908572Y-120543571D01*
X148551429Y-120400714D02*
X148615715Y-120472142D01*
X148615715Y-120472142D02*
X148551429Y-120543571D01*
X148551429Y-120543571D02*
X148487143Y-120472142D01*
X148487143Y-120472142D02*
X148551429Y-120400714D01*
X148551429Y-120400714D02*
X148551429Y-120543571D01*
X137481428Y-122973571D02*
X137481428Y-121473571D01*
X137481428Y-121473571D02*
X137995714Y-121473571D01*
X137995714Y-121473571D02*
X138124285Y-121545000D01*
X138124285Y-121545000D02*
X138188571Y-121616428D01*
X138188571Y-121616428D02*
X138252857Y-121759285D01*
X138252857Y-121759285D02*
X138252857Y-121973571D01*
X138252857Y-121973571D02*
X138188571Y-122116428D01*
X138188571Y-122116428D02*
X138124285Y-122187857D01*
X138124285Y-122187857D02*
X137995714Y-122259285D01*
X137995714Y-122259285D02*
X137481428Y-122259285D01*
X138831428Y-122973571D02*
X138831428Y-121973571D01*
X138831428Y-122259285D02*
X138895714Y-122116428D01*
X138895714Y-122116428D02*
X138960000Y-122045000D01*
X138960000Y-122045000D02*
X139088571Y-121973571D01*
X139088571Y-121973571D02*
X139217142Y-121973571D01*
X140181428Y-122902142D02*
X140052856Y-122973571D01*
X140052856Y-122973571D02*
X139795714Y-122973571D01*
X139795714Y-122973571D02*
X139667142Y-122902142D01*
X139667142Y-122902142D02*
X139602856Y-122759285D01*
X139602856Y-122759285D02*
X139602856Y-122187857D01*
X139602856Y-122187857D02*
X139667142Y-122045000D01*
X139667142Y-122045000D02*
X139795714Y-121973571D01*
X139795714Y-121973571D02*
X140052856Y-121973571D01*
X140052856Y-121973571D02*
X140181428Y-122045000D01*
X140181428Y-122045000D02*
X140245714Y-122187857D01*
X140245714Y-122187857D02*
X140245714Y-122330714D01*
X140245714Y-122330714D02*
X139602856Y-122473571D01*
X140759999Y-122902142D02*
X140888571Y-122973571D01*
X140888571Y-122973571D02*
X141145714Y-122973571D01*
X141145714Y-122973571D02*
X141274285Y-122902142D01*
X141274285Y-122902142D02*
X141338571Y-122759285D01*
X141338571Y-122759285D02*
X141338571Y-122687857D01*
X141338571Y-122687857D02*
X141274285Y-122545000D01*
X141274285Y-122545000D02*
X141145714Y-122473571D01*
X141145714Y-122473571D02*
X140952857Y-122473571D01*
X140952857Y-122473571D02*
X140824285Y-122402142D01*
X140824285Y-122402142D02*
X140759999Y-122259285D01*
X140759999Y-122259285D02*
X140759999Y-122187857D01*
X140759999Y-122187857D02*
X140824285Y-122045000D01*
X140824285Y-122045000D02*
X140952857Y-121973571D01*
X140952857Y-121973571D02*
X141145714Y-121973571D01*
X141145714Y-121973571D02*
X141274285Y-122045000D01*
X141852856Y-122902142D02*
X141981428Y-122973571D01*
X141981428Y-122973571D02*
X142238571Y-122973571D01*
X142238571Y-122973571D02*
X142367142Y-122902142D01*
X142367142Y-122902142D02*
X142431428Y-122759285D01*
X142431428Y-122759285D02*
X142431428Y-122687857D01*
X142431428Y-122687857D02*
X142367142Y-122545000D01*
X142367142Y-122545000D02*
X142238571Y-122473571D01*
X142238571Y-122473571D02*
X142045714Y-122473571D01*
X142045714Y-122473571D02*
X141917142Y-122402142D01*
X141917142Y-122402142D02*
X141852856Y-122259285D01*
X141852856Y-122259285D02*
X141852856Y-122187857D01*
X141852856Y-122187857D02*
X141917142Y-122045000D01*
X141917142Y-122045000D02*
X142045714Y-121973571D01*
X142045714Y-121973571D02*
X142238571Y-121973571D01*
X142238571Y-121973571D02*
X142367142Y-122045000D01*
X144269999Y-122187857D02*
X144462856Y-122259285D01*
X144462856Y-122259285D02*
X144527142Y-122330714D01*
X144527142Y-122330714D02*
X144591428Y-122473571D01*
X144591428Y-122473571D02*
X144591428Y-122687857D01*
X144591428Y-122687857D02*
X144527142Y-122830714D01*
X144527142Y-122830714D02*
X144462856Y-122902142D01*
X144462856Y-122902142D02*
X144334285Y-122973571D01*
X144334285Y-122973571D02*
X143819999Y-122973571D01*
X143819999Y-122973571D02*
X143819999Y-121473571D01*
X143819999Y-121473571D02*
X144269999Y-121473571D01*
X144269999Y-121473571D02*
X144398571Y-121545000D01*
X144398571Y-121545000D02*
X144462856Y-121616428D01*
X144462856Y-121616428D02*
X144527142Y-121759285D01*
X144527142Y-121759285D02*
X144527142Y-121902142D01*
X144527142Y-121902142D02*
X144462856Y-122045000D01*
X144462856Y-122045000D02*
X144398571Y-122116428D01*
X144398571Y-122116428D02*
X144269999Y-122187857D01*
X144269999Y-122187857D02*
X143819999Y-122187857D01*
X145748571Y-121973571D02*
X145748571Y-122973571D01*
X145169999Y-121973571D02*
X145169999Y-122759285D01*
X145169999Y-122759285D02*
X145234285Y-122902142D01*
X145234285Y-122902142D02*
X145362856Y-122973571D01*
X145362856Y-122973571D02*
X145555713Y-122973571D01*
X145555713Y-122973571D02*
X145684285Y-122902142D01*
X145684285Y-122902142D02*
X145748571Y-122830714D01*
X146198571Y-121973571D02*
X146712857Y-121973571D01*
X146391428Y-121473571D02*
X146391428Y-122759285D01*
X146391428Y-122759285D02*
X146455714Y-122902142D01*
X146455714Y-122902142D02*
X146584285Y-122973571D01*
X146584285Y-122973571D02*
X146712857Y-122973571D01*
X146970000Y-121973571D02*
X147484286Y-121973571D01*
X147162857Y-121473571D02*
X147162857Y-122759285D01*
X147162857Y-122759285D02*
X147227143Y-122902142D01*
X147227143Y-122902142D02*
X147355714Y-122973571D01*
X147355714Y-122973571D02*
X147484286Y-122973571D01*
X148127143Y-122973571D02*
X147998572Y-122902142D01*
X147998572Y-122902142D02*
X147934286Y-122830714D01*
X147934286Y-122830714D02*
X147870000Y-122687857D01*
X147870000Y-122687857D02*
X147870000Y-122259285D01*
X147870000Y-122259285D02*
X147934286Y-122116428D01*
X147934286Y-122116428D02*
X147998572Y-122045000D01*
X147998572Y-122045000D02*
X148127143Y-121973571D01*
X148127143Y-121973571D02*
X148320000Y-121973571D01*
X148320000Y-121973571D02*
X148448572Y-122045000D01*
X148448572Y-122045000D02*
X148512858Y-122116428D01*
X148512858Y-122116428D02*
X148577143Y-122259285D01*
X148577143Y-122259285D02*
X148577143Y-122687857D01*
X148577143Y-122687857D02*
X148512858Y-122830714D01*
X148512858Y-122830714D02*
X148448572Y-122902142D01*
X148448572Y-122902142D02*
X148320000Y-122973571D01*
X148320000Y-122973571D02*
X148127143Y-122973571D01*
X149155715Y-121973571D02*
X149155715Y-122973571D01*
X149155715Y-122116428D02*
X149220001Y-122045000D01*
X149220001Y-122045000D02*
X149348572Y-121973571D01*
X149348572Y-121973571D02*
X149541429Y-121973571D01*
X149541429Y-121973571D02*
X149670001Y-122045000D01*
X149670001Y-122045000D02*
X149734287Y-122187857D01*
X149734287Y-122187857D02*
X149734287Y-122973571D01*
X151122858Y-121616428D02*
X151187144Y-121545000D01*
X151187144Y-121545000D02*
X151315716Y-121473571D01*
X151315716Y-121473571D02*
X151637144Y-121473571D01*
X151637144Y-121473571D02*
X151765716Y-121545000D01*
X151765716Y-121545000D02*
X151830001Y-121616428D01*
X151830001Y-121616428D02*
X151894287Y-121759285D01*
X151894287Y-121759285D02*
X151894287Y-121902142D01*
X151894287Y-121902142D02*
X151830001Y-122116428D01*
X151830001Y-122116428D02*
X151058573Y-122973571D01*
X151058573Y-122973571D02*
X151894287Y-122973571D01*
X153090001Y-121973571D02*
X153604287Y-121973571D01*
X153282858Y-121473571D02*
X153282858Y-122759285D01*
X153282858Y-122759285D02*
X153347144Y-122902142D01*
X153347144Y-122902142D02*
X153475715Y-122973571D01*
X153475715Y-122973571D02*
X153604287Y-122973571D01*
X154247144Y-122973571D02*
X154118573Y-122902142D01*
X154118573Y-122902142D02*
X154054287Y-122830714D01*
X154054287Y-122830714D02*
X153990001Y-122687857D01*
X153990001Y-122687857D02*
X153990001Y-122259285D01*
X153990001Y-122259285D02*
X154054287Y-122116428D01*
X154054287Y-122116428D02*
X154118573Y-122045000D01*
X154118573Y-122045000D02*
X154247144Y-121973571D01*
X154247144Y-121973571D02*
X154440001Y-121973571D01*
X154440001Y-121973571D02*
X154568573Y-122045000D01*
X154568573Y-122045000D02*
X154632859Y-122116428D01*
X154632859Y-122116428D02*
X154697144Y-122259285D01*
X154697144Y-122259285D02*
X154697144Y-122687857D01*
X154697144Y-122687857D02*
X154632859Y-122830714D01*
X154632859Y-122830714D02*
X154568573Y-122902142D01*
X154568573Y-122902142D02*
X154440001Y-122973571D01*
X154440001Y-122973571D02*
X154247144Y-122973571D01*
X140490000Y-125332142D02*
X140361428Y-125403571D01*
X140361428Y-125403571D02*
X140104285Y-125403571D01*
X140104285Y-125403571D02*
X139975714Y-125332142D01*
X139975714Y-125332142D02*
X139911428Y-125260714D01*
X139911428Y-125260714D02*
X139847142Y-125117857D01*
X139847142Y-125117857D02*
X139847142Y-124689285D01*
X139847142Y-124689285D02*
X139911428Y-124546428D01*
X139911428Y-124546428D02*
X139975714Y-124475000D01*
X139975714Y-124475000D02*
X140104285Y-124403571D01*
X140104285Y-124403571D02*
X140361428Y-124403571D01*
X140361428Y-124403571D02*
X140490000Y-124475000D01*
X141068571Y-125403571D02*
X141068571Y-123903571D01*
X141647143Y-125403571D02*
X141647143Y-124617857D01*
X141647143Y-124617857D02*
X141582857Y-124475000D01*
X141582857Y-124475000D02*
X141454285Y-124403571D01*
X141454285Y-124403571D02*
X141261428Y-124403571D01*
X141261428Y-124403571D02*
X141132857Y-124475000D01*
X141132857Y-124475000D02*
X141068571Y-124546428D01*
X142868572Y-125403571D02*
X142868572Y-124617857D01*
X142868572Y-124617857D02*
X142804286Y-124475000D01*
X142804286Y-124475000D02*
X142675714Y-124403571D01*
X142675714Y-124403571D02*
X142418572Y-124403571D01*
X142418572Y-124403571D02*
X142290000Y-124475000D01*
X142868572Y-125332142D02*
X142740000Y-125403571D01*
X142740000Y-125403571D02*
X142418572Y-125403571D01*
X142418572Y-125403571D02*
X142290000Y-125332142D01*
X142290000Y-125332142D02*
X142225714Y-125189285D01*
X142225714Y-125189285D02*
X142225714Y-125046428D01*
X142225714Y-125046428D02*
X142290000Y-124903571D01*
X142290000Y-124903571D02*
X142418572Y-124832142D01*
X142418572Y-124832142D02*
X142740000Y-124832142D01*
X142740000Y-124832142D02*
X142868572Y-124760714D01*
X143511429Y-124403571D02*
X143511429Y-125403571D01*
X143511429Y-124546428D02*
X143575715Y-124475000D01*
X143575715Y-124475000D02*
X143704286Y-124403571D01*
X143704286Y-124403571D02*
X143897143Y-124403571D01*
X143897143Y-124403571D02*
X144025715Y-124475000D01*
X144025715Y-124475000D02*
X144090001Y-124617857D01*
X144090001Y-124617857D02*
X144090001Y-125403571D01*
X145311430Y-124403571D02*
X145311430Y-125617857D01*
X145311430Y-125617857D02*
X145247144Y-125760714D01*
X145247144Y-125760714D02*
X145182858Y-125832142D01*
X145182858Y-125832142D02*
X145054287Y-125903571D01*
X145054287Y-125903571D02*
X144861430Y-125903571D01*
X144861430Y-125903571D02*
X144732858Y-125832142D01*
X145311430Y-125332142D02*
X145182858Y-125403571D01*
X145182858Y-125403571D02*
X144925715Y-125403571D01*
X144925715Y-125403571D02*
X144797144Y-125332142D01*
X144797144Y-125332142D02*
X144732858Y-125260714D01*
X144732858Y-125260714D02*
X144668572Y-125117857D01*
X144668572Y-125117857D02*
X144668572Y-124689285D01*
X144668572Y-124689285D02*
X144732858Y-124546428D01*
X144732858Y-124546428D02*
X144797144Y-124475000D01*
X144797144Y-124475000D02*
X144925715Y-124403571D01*
X144925715Y-124403571D02*
X145182858Y-124403571D01*
X145182858Y-124403571D02*
X145311430Y-124475000D01*
X146468573Y-125332142D02*
X146340001Y-125403571D01*
X146340001Y-125403571D02*
X146082859Y-125403571D01*
X146082859Y-125403571D02*
X145954287Y-125332142D01*
X145954287Y-125332142D02*
X145890001Y-125189285D01*
X145890001Y-125189285D02*
X145890001Y-124617857D01*
X145890001Y-124617857D02*
X145954287Y-124475000D01*
X145954287Y-124475000D02*
X146082859Y-124403571D01*
X146082859Y-124403571D02*
X146340001Y-124403571D01*
X146340001Y-124403571D02*
X146468573Y-124475000D01*
X146468573Y-124475000D02*
X146532859Y-124617857D01*
X146532859Y-124617857D02*
X146532859Y-124760714D01*
X146532859Y-124760714D02*
X145890001Y-124903571D01*
X148500002Y-124403571D02*
X148500002Y-125617857D01*
X148500002Y-125617857D02*
X148435716Y-125760714D01*
X148435716Y-125760714D02*
X148371430Y-125832142D01*
X148371430Y-125832142D02*
X148242859Y-125903571D01*
X148242859Y-125903571D02*
X148050002Y-125903571D01*
X148050002Y-125903571D02*
X147921430Y-125832142D01*
X148500002Y-125332142D02*
X148371430Y-125403571D01*
X148371430Y-125403571D02*
X148114287Y-125403571D01*
X148114287Y-125403571D02*
X147985716Y-125332142D01*
X147985716Y-125332142D02*
X147921430Y-125260714D01*
X147921430Y-125260714D02*
X147857144Y-125117857D01*
X147857144Y-125117857D02*
X147857144Y-124689285D01*
X147857144Y-124689285D02*
X147921430Y-124546428D01*
X147921430Y-124546428D02*
X147985716Y-124475000D01*
X147985716Y-124475000D02*
X148114287Y-124403571D01*
X148114287Y-124403571D02*
X148371430Y-124403571D01*
X148371430Y-124403571D02*
X148500002Y-124475000D01*
X149721431Y-125403571D02*
X149721431Y-124617857D01*
X149721431Y-124617857D02*
X149657145Y-124475000D01*
X149657145Y-124475000D02*
X149528573Y-124403571D01*
X149528573Y-124403571D02*
X149271431Y-124403571D01*
X149271431Y-124403571D02*
X149142859Y-124475000D01*
X149721431Y-125332142D02*
X149592859Y-125403571D01*
X149592859Y-125403571D02*
X149271431Y-125403571D01*
X149271431Y-125403571D02*
X149142859Y-125332142D01*
X149142859Y-125332142D02*
X149078573Y-125189285D01*
X149078573Y-125189285D02*
X149078573Y-125046428D01*
X149078573Y-125046428D02*
X149142859Y-124903571D01*
X149142859Y-124903571D02*
X149271431Y-124832142D01*
X149271431Y-124832142D02*
X149592859Y-124832142D01*
X149592859Y-124832142D02*
X149721431Y-124760714D01*
X150364288Y-125403571D02*
X150364288Y-124403571D01*
X150364288Y-124546428D02*
X150428574Y-124475000D01*
X150428574Y-124475000D02*
X150557145Y-124403571D01*
X150557145Y-124403571D02*
X150750002Y-124403571D01*
X150750002Y-124403571D02*
X150878574Y-124475000D01*
X150878574Y-124475000D02*
X150942860Y-124617857D01*
X150942860Y-124617857D02*
X150942860Y-125403571D01*
X150942860Y-124617857D02*
X151007145Y-124475000D01*
X151007145Y-124475000D02*
X151135717Y-124403571D01*
X151135717Y-124403571D02*
X151328574Y-124403571D01*
X151328574Y-124403571D02*
X151457145Y-124475000D01*
X151457145Y-124475000D02*
X151521431Y-124617857D01*
X151521431Y-124617857D02*
X151521431Y-125403571D01*
X152678574Y-125332142D02*
X152550002Y-125403571D01*
X152550002Y-125403571D02*
X152292860Y-125403571D01*
X152292860Y-125403571D02*
X152164288Y-125332142D01*
X152164288Y-125332142D02*
X152100002Y-125189285D01*
X152100002Y-125189285D02*
X152100002Y-124617857D01*
X152100002Y-124617857D02*
X152164288Y-124475000D01*
X152164288Y-124475000D02*
X152292860Y-124403571D01*
X152292860Y-124403571D02*
X152550002Y-124403571D01*
X152550002Y-124403571D02*
X152678574Y-124475000D01*
X152678574Y-124475000D02*
X152742860Y-124617857D01*
X152742860Y-124617857D02*
X152742860Y-124760714D01*
X152742860Y-124760714D02*
X152100002Y-124903571D01*
X154067145Y-125332142D02*
X154195717Y-125403571D01*
X154195717Y-125403571D02*
X154452860Y-125403571D01*
X154452860Y-125403571D02*
X154581431Y-125332142D01*
X154581431Y-125332142D02*
X154645717Y-125189285D01*
X154645717Y-125189285D02*
X154645717Y-125117857D01*
X154645717Y-125117857D02*
X154581431Y-124975000D01*
X154581431Y-124975000D02*
X154452860Y-124903571D01*
X154452860Y-124903571D02*
X154260003Y-124903571D01*
X154260003Y-124903571D02*
X154131431Y-124832142D01*
X154131431Y-124832142D02*
X154067145Y-124689285D01*
X154067145Y-124689285D02*
X154067145Y-124617857D01*
X154067145Y-124617857D02*
X154131431Y-124475000D01*
X154131431Y-124475000D02*
X154260003Y-124403571D01*
X154260003Y-124403571D02*
X154452860Y-124403571D01*
X154452860Y-124403571D02*
X154581431Y-124475000D01*
X155224288Y-124403571D02*
X155224288Y-125903571D01*
X155224288Y-124475000D02*
X155352860Y-124403571D01*
X155352860Y-124403571D02*
X155610002Y-124403571D01*
X155610002Y-124403571D02*
X155738574Y-124475000D01*
X155738574Y-124475000D02*
X155802860Y-124546428D01*
X155802860Y-124546428D02*
X155867145Y-124689285D01*
X155867145Y-124689285D02*
X155867145Y-125117857D01*
X155867145Y-125117857D02*
X155802860Y-125260714D01*
X155802860Y-125260714D02*
X155738574Y-125332142D01*
X155738574Y-125332142D02*
X155610002Y-125403571D01*
X155610002Y-125403571D02*
X155352860Y-125403571D01*
X155352860Y-125403571D02*
X155224288Y-125332142D01*
X156960003Y-125332142D02*
X156831431Y-125403571D01*
X156831431Y-125403571D02*
X156574289Y-125403571D01*
X156574289Y-125403571D02*
X156445717Y-125332142D01*
X156445717Y-125332142D02*
X156381431Y-125189285D01*
X156381431Y-125189285D02*
X156381431Y-124617857D01*
X156381431Y-124617857D02*
X156445717Y-124475000D01*
X156445717Y-124475000D02*
X156574289Y-124403571D01*
X156574289Y-124403571D02*
X156831431Y-124403571D01*
X156831431Y-124403571D02*
X156960003Y-124475000D01*
X156960003Y-124475000D02*
X157024289Y-124617857D01*
X157024289Y-124617857D02*
X157024289Y-124760714D01*
X157024289Y-124760714D02*
X156381431Y-124903571D01*
X158117146Y-125332142D02*
X157988574Y-125403571D01*
X157988574Y-125403571D02*
X157731432Y-125403571D01*
X157731432Y-125403571D02*
X157602860Y-125332142D01*
X157602860Y-125332142D02*
X157538574Y-125189285D01*
X157538574Y-125189285D02*
X157538574Y-124617857D01*
X157538574Y-124617857D02*
X157602860Y-124475000D01*
X157602860Y-124475000D02*
X157731432Y-124403571D01*
X157731432Y-124403571D02*
X157988574Y-124403571D01*
X157988574Y-124403571D02*
X158117146Y-124475000D01*
X158117146Y-124475000D02*
X158181432Y-124617857D01*
X158181432Y-124617857D02*
X158181432Y-124760714D01*
X158181432Y-124760714D02*
X157538574Y-124903571D01*
X159338575Y-125403571D02*
X159338575Y-123903571D01*
X159338575Y-125332142D02*
X159210003Y-125403571D01*
X159210003Y-125403571D02*
X158952860Y-125403571D01*
X158952860Y-125403571D02*
X158824289Y-125332142D01*
X158824289Y-125332142D02*
X158760003Y-125260714D01*
X158760003Y-125260714D02*
X158695717Y-125117857D01*
X158695717Y-125117857D02*
X158695717Y-124689285D01*
X158695717Y-124689285D02*
X158760003Y-124546428D01*
X158760003Y-124546428D02*
X158824289Y-124475000D01*
X158824289Y-124475000D02*
X158952860Y-124403571D01*
X158952860Y-124403571D02*
X159210003Y-124403571D01*
X159210003Y-124403571D02*
X159338575Y-124475000D01*
D10*
X147558095Y-50058571D02*
X147891428Y-50058571D01*
X148034285Y-50582380D02*
X147558095Y-50582380D01*
X147558095Y-50582380D02*
X147558095Y-49582380D01*
X147558095Y-49582380D02*
X148034285Y-49582380D01*
X148462857Y-50582380D02*
X148462857Y-49915714D01*
X148462857Y-50010952D02*
X148510476Y-49963333D01*
X148510476Y-49963333D02*
X148605714Y-49915714D01*
X148605714Y-49915714D02*
X148748571Y-49915714D01*
X148748571Y-49915714D02*
X148843809Y-49963333D01*
X148843809Y-49963333D02*
X148891428Y-50058571D01*
X148891428Y-50058571D02*
X148891428Y-50582380D01*
X148891428Y-50058571D02*
X148939047Y-49963333D01*
X148939047Y-49963333D02*
X149034285Y-49915714D01*
X149034285Y-49915714D02*
X149177142Y-49915714D01*
X149177142Y-49915714D02*
X149272381Y-49963333D01*
X149272381Y-49963333D02*
X149320000Y-50058571D01*
X149320000Y-50058571D02*
X149320000Y-50582380D01*
X149796190Y-50582380D02*
X149796190Y-49582380D01*
X149796190Y-49963333D02*
X149891428Y-49915714D01*
X149891428Y-49915714D02*
X150081904Y-49915714D01*
X150081904Y-49915714D02*
X150177142Y-49963333D01*
X150177142Y-49963333D02*
X150224761Y-50010952D01*
X150224761Y-50010952D02*
X150272380Y-50106190D01*
X150272380Y-50106190D02*
X150272380Y-50391904D01*
X150272380Y-50391904D02*
X150224761Y-50487142D01*
X150224761Y-50487142D02*
X150177142Y-50534761D01*
X150177142Y-50534761D02*
X150081904Y-50582380D01*
X150081904Y-50582380D02*
X149891428Y-50582380D01*
X149891428Y-50582380D02*
X149796190Y-50534761D01*
X151081904Y-50534761D02*
X150986666Y-50582380D01*
X150986666Y-50582380D02*
X150796190Y-50582380D01*
X150796190Y-50582380D02*
X150700952Y-50534761D01*
X150700952Y-50534761D02*
X150653333Y-50439523D01*
X150653333Y-50439523D02*
X150653333Y-50058571D01*
X150653333Y-50058571D02*
X150700952Y-49963333D01*
X150700952Y-49963333D02*
X150796190Y-49915714D01*
X150796190Y-49915714D02*
X150986666Y-49915714D01*
X150986666Y-49915714D02*
X151081904Y-49963333D01*
X151081904Y-49963333D02*
X151129523Y-50058571D01*
X151129523Y-50058571D02*
X151129523Y-50153809D01*
X151129523Y-50153809D02*
X150653333Y-50249047D01*
X151986666Y-50582380D02*
X151986666Y-49582380D01*
X151986666Y-50534761D02*
X151891428Y-50582380D01*
X151891428Y-50582380D02*
X151700952Y-50582380D01*
X151700952Y-50582380D02*
X151605714Y-50534761D01*
X151605714Y-50534761D02*
X151558095Y-50487142D01*
X151558095Y-50487142D02*
X151510476Y-50391904D01*
X151510476Y-50391904D02*
X151510476Y-50106190D01*
X151510476Y-50106190D02*
X151558095Y-50010952D01*
X151558095Y-50010952D02*
X151605714Y-49963333D01*
X151605714Y-49963333D02*
X151700952Y-49915714D01*
X151700952Y-49915714D02*
X151891428Y-49915714D01*
X151891428Y-49915714D02*
X151986666Y-49963333D01*
X152891428Y-50582380D02*
X152891428Y-49582380D01*
X152891428Y-50534761D02*
X152796190Y-50582380D01*
X152796190Y-50582380D02*
X152605714Y-50582380D01*
X152605714Y-50582380D02*
X152510476Y-50534761D01*
X152510476Y-50534761D02*
X152462857Y-50487142D01*
X152462857Y-50487142D02*
X152415238Y-50391904D01*
X152415238Y-50391904D02*
X152415238Y-50106190D01*
X152415238Y-50106190D02*
X152462857Y-50010952D01*
X152462857Y-50010952D02*
X152510476Y-49963333D01*
X152510476Y-49963333D02*
X152605714Y-49915714D01*
X152605714Y-49915714D02*
X152796190Y-49915714D01*
X152796190Y-49915714D02*
X152891428Y-49963333D01*
X153748571Y-50534761D02*
X153653333Y-50582380D01*
X153653333Y-50582380D02*
X153462857Y-50582380D01*
X153462857Y-50582380D02*
X153367619Y-50534761D01*
X153367619Y-50534761D02*
X153320000Y-50439523D01*
X153320000Y-50439523D02*
X153320000Y-50058571D01*
X153320000Y-50058571D02*
X153367619Y-49963333D01*
X153367619Y-49963333D02*
X153462857Y-49915714D01*
X153462857Y-49915714D02*
X153653333Y-49915714D01*
X153653333Y-49915714D02*
X153748571Y-49963333D01*
X153748571Y-49963333D02*
X153796190Y-50058571D01*
X153796190Y-50058571D02*
X153796190Y-50153809D01*
X153796190Y-50153809D02*
X153320000Y-50249047D01*
X154653333Y-50582380D02*
X154653333Y-49582380D01*
X154653333Y-50534761D02*
X154558095Y-50582380D01*
X154558095Y-50582380D02*
X154367619Y-50582380D01*
X154367619Y-50582380D02*
X154272381Y-50534761D01*
X154272381Y-50534761D02*
X154224762Y-50487142D01*
X154224762Y-50487142D02*
X154177143Y-50391904D01*
X154177143Y-50391904D02*
X154177143Y-50106190D01*
X154177143Y-50106190D02*
X154224762Y-50010952D01*
X154224762Y-50010952D02*
X154272381Y-49963333D01*
X154272381Y-49963333D02*
X154367619Y-49915714D01*
X154367619Y-49915714D02*
X154558095Y-49915714D01*
X154558095Y-49915714D02*
X154653333Y-49963333D01*
X155681905Y-50534761D02*
X155824762Y-50582380D01*
X155824762Y-50582380D02*
X156062857Y-50582380D01*
X156062857Y-50582380D02*
X156158095Y-50534761D01*
X156158095Y-50534761D02*
X156205714Y-50487142D01*
X156205714Y-50487142D02*
X156253333Y-50391904D01*
X156253333Y-50391904D02*
X156253333Y-50296666D01*
X156253333Y-50296666D02*
X156205714Y-50201428D01*
X156205714Y-50201428D02*
X156158095Y-50153809D01*
X156158095Y-50153809D02*
X156062857Y-50106190D01*
X156062857Y-50106190D02*
X155872381Y-50058571D01*
X155872381Y-50058571D02*
X155777143Y-50010952D01*
X155777143Y-50010952D02*
X155729524Y-49963333D01*
X155729524Y-49963333D02*
X155681905Y-49868095D01*
X155681905Y-49868095D02*
X155681905Y-49772857D01*
X155681905Y-49772857D02*
X155729524Y-49677619D01*
X155729524Y-49677619D02*
X155777143Y-49630000D01*
X155777143Y-49630000D02*
X155872381Y-49582380D01*
X155872381Y-49582380D02*
X156110476Y-49582380D01*
X156110476Y-49582380D02*
X156253333Y-49630000D01*
X156586667Y-49915714D02*
X156824762Y-50582380D01*
X157062857Y-49915714D02*
X156824762Y-50582380D01*
X156824762Y-50582380D02*
X156729524Y-50820476D01*
X156729524Y-50820476D02*
X156681905Y-50868095D01*
X156681905Y-50868095D02*
X156586667Y-50915714D01*
X157396191Y-50534761D02*
X157491429Y-50582380D01*
X157491429Y-50582380D02*
X157681905Y-50582380D01*
X157681905Y-50582380D02*
X157777143Y-50534761D01*
X157777143Y-50534761D02*
X157824762Y-50439523D01*
X157824762Y-50439523D02*
X157824762Y-50391904D01*
X157824762Y-50391904D02*
X157777143Y-50296666D01*
X157777143Y-50296666D02*
X157681905Y-50249047D01*
X157681905Y-50249047D02*
X157539048Y-50249047D01*
X157539048Y-50249047D02*
X157443810Y-50201428D01*
X157443810Y-50201428D02*
X157396191Y-50106190D01*
X157396191Y-50106190D02*
X157396191Y-50058571D01*
X157396191Y-50058571D02*
X157443810Y-49963333D01*
X157443810Y-49963333D02*
X157539048Y-49915714D01*
X157539048Y-49915714D02*
X157681905Y-49915714D01*
X157681905Y-49915714D02*
X157777143Y-49963333D01*
X158110477Y-49915714D02*
X158491429Y-49915714D01*
X158253334Y-49582380D02*
X158253334Y-50439523D01*
X158253334Y-50439523D02*
X158300953Y-50534761D01*
X158300953Y-50534761D02*
X158396191Y-50582380D01*
X158396191Y-50582380D02*
X158491429Y-50582380D01*
X159205715Y-50534761D02*
X159110477Y-50582380D01*
X159110477Y-50582380D02*
X158920001Y-50582380D01*
X158920001Y-50582380D02*
X158824763Y-50534761D01*
X158824763Y-50534761D02*
X158777144Y-50439523D01*
X158777144Y-50439523D02*
X158777144Y-50058571D01*
X158777144Y-50058571D02*
X158824763Y-49963333D01*
X158824763Y-49963333D02*
X158920001Y-49915714D01*
X158920001Y-49915714D02*
X159110477Y-49915714D01*
X159110477Y-49915714D02*
X159205715Y-49963333D01*
X159205715Y-49963333D02*
X159253334Y-50058571D01*
X159253334Y-50058571D02*
X159253334Y-50153809D01*
X159253334Y-50153809D02*
X158777144Y-50249047D01*
X159681906Y-50582380D02*
X159681906Y-49915714D01*
X159681906Y-50010952D02*
X159729525Y-49963333D01*
X159729525Y-49963333D02*
X159824763Y-49915714D01*
X159824763Y-49915714D02*
X159967620Y-49915714D01*
X159967620Y-49915714D02*
X160062858Y-49963333D01*
X160062858Y-49963333D02*
X160110477Y-50058571D01*
X160110477Y-50058571D02*
X160110477Y-50582380D01*
X160110477Y-50058571D02*
X160158096Y-49963333D01*
X160158096Y-49963333D02*
X160253334Y-49915714D01*
X160253334Y-49915714D02*
X160396191Y-49915714D01*
X160396191Y-49915714D02*
X160491430Y-49963333D01*
X160491430Y-49963333D02*
X160539049Y-50058571D01*
X160539049Y-50058571D02*
X160539049Y-50582380D01*
X160967620Y-50534761D02*
X161062858Y-50582380D01*
X161062858Y-50582380D02*
X161253334Y-50582380D01*
X161253334Y-50582380D02*
X161348572Y-50534761D01*
X161348572Y-50534761D02*
X161396191Y-50439523D01*
X161396191Y-50439523D02*
X161396191Y-50391904D01*
X161396191Y-50391904D02*
X161348572Y-50296666D01*
X161348572Y-50296666D02*
X161253334Y-50249047D01*
X161253334Y-50249047D02*
X161110477Y-50249047D01*
X161110477Y-50249047D02*
X161015239Y-50201428D01*
X161015239Y-50201428D02*
X160967620Y-50106190D01*
X160967620Y-50106190D02*
X160967620Y-50058571D01*
X160967620Y-50058571D02*
X161015239Y-49963333D01*
X161015239Y-49963333D02*
X161110477Y-49915714D01*
X161110477Y-49915714D02*
X161253334Y-49915714D01*
X161253334Y-49915714D02*
X161348572Y-49963333D01*
X162424763Y-50201428D02*
X163186668Y-50201428D01*
X164596191Y-50058571D02*
X164262858Y-50058571D01*
X164262858Y-50582380D02*
X164262858Y-49582380D01*
X164262858Y-49582380D02*
X164739048Y-49582380D01*
X165120001Y-50582380D02*
X165120001Y-49915714D01*
X165120001Y-49582380D02*
X165072382Y-49630000D01*
X165072382Y-49630000D02*
X165120001Y-49677619D01*
X165120001Y-49677619D02*
X165167620Y-49630000D01*
X165167620Y-49630000D02*
X165120001Y-49582380D01*
X165120001Y-49582380D02*
X165120001Y-49677619D01*
X165596191Y-49915714D02*
X165596191Y-50582380D01*
X165596191Y-50010952D02*
X165643810Y-49963333D01*
X165643810Y-49963333D02*
X165739048Y-49915714D01*
X165739048Y-49915714D02*
X165881905Y-49915714D01*
X165881905Y-49915714D02*
X165977143Y-49963333D01*
X165977143Y-49963333D02*
X166024762Y-50058571D01*
X166024762Y-50058571D02*
X166024762Y-50582380D01*
X166929524Y-50582380D02*
X166929524Y-50058571D01*
X166929524Y-50058571D02*
X166881905Y-49963333D01*
X166881905Y-49963333D02*
X166786667Y-49915714D01*
X166786667Y-49915714D02*
X166596191Y-49915714D01*
X166596191Y-49915714D02*
X166500953Y-49963333D01*
X166929524Y-50534761D02*
X166834286Y-50582380D01*
X166834286Y-50582380D02*
X166596191Y-50582380D01*
X166596191Y-50582380D02*
X166500953Y-50534761D01*
X166500953Y-50534761D02*
X166453334Y-50439523D01*
X166453334Y-50439523D02*
X166453334Y-50344285D01*
X166453334Y-50344285D02*
X166500953Y-50249047D01*
X166500953Y-50249047D02*
X166596191Y-50201428D01*
X166596191Y-50201428D02*
X166834286Y-50201428D01*
X166834286Y-50201428D02*
X166929524Y-50153809D01*
X167548572Y-50582380D02*
X167453334Y-50534761D01*
X167453334Y-50534761D02*
X167405715Y-50439523D01*
X167405715Y-50439523D02*
X167405715Y-49582380D01*
X168529525Y-50582380D02*
X168529525Y-49582380D01*
X168529525Y-49582380D02*
X168910477Y-49582380D01*
X168910477Y-49582380D02*
X169005715Y-49630000D01*
X169005715Y-49630000D02*
X169053334Y-49677619D01*
X169053334Y-49677619D02*
X169100953Y-49772857D01*
X169100953Y-49772857D02*
X169100953Y-49915714D01*
X169100953Y-49915714D02*
X169053334Y-50010952D01*
X169053334Y-50010952D02*
X169005715Y-50058571D01*
X169005715Y-50058571D02*
X168910477Y-50106190D01*
X168910477Y-50106190D02*
X168529525Y-50106190D01*
X169529525Y-50582380D02*
X169529525Y-49915714D01*
X169529525Y-50106190D02*
X169577144Y-50010952D01*
X169577144Y-50010952D02*
X169624763Y-49963333D01*
X169624763Y-49963333D02*
X169720001Y-49915714D01*
X169720001Y-49915714D02*
X169815239Y-49915714D01*
X170291430Y-50582380D02*
X170196192Y-50534761D01*
X170196192Y-50534761D02*
X170148573Y-50487142D01*
X170148573Y-50487142D02*
X170100954Y-50391904D01*
X170100954Y-50391904D02*
X170100954Y-50106190D01*
X170100954Y-50106190D02*
X170148573Y-50010952D01*
X170148573Y-50010952D02*
X170196192Y-49963333D01*
X170196192Y-49963333D02*
X170291430Y-49915714D01*
X170291430Y-49915714D02*
X170434287Y-49915714D01*
X170434287Y-49915714D02*
X170529525Y-49963333D01*
X170529525Y-49963333D02*
X170577144Y-50010952D01*
X170577144Y-50010952D02*
X170624763Y-50106190D01*
X170624763Y-50106190D02*
X170624763Y-50391904D01*
X170624763Y-50391904D02*
X170577144Y-50487142D01*
X170577144Y-50487142D02*
X170529525Y-50534761D01*
X170529525Y-50534761D02*
X170434287Y-50582380D01*
X170434287Y-50582380D02*
X170291430Y-50582380D01*
X171053335Y-49915714D02*
X171053335Y-50772857D01*
X171053335Y-50772857D02*
X171005716Y-50868095D01*
X171005716Y-50868095D02*
X170910478Y-50915714D01*
X170910478Y-50915714D02*
X170862859Y-50915714D01*
X171053335Y-49582380D02*
X171005716Y-49630000D01*
X171005716Y-49630000D02*
X171053335Y-49677619D01*
X171053335Y-49677619D02*
X171100954Y-49630000D01*
X171100954Y-49630000D02*
X171053335Y-49582380D01*
X171053335Y-49582380D02*
X171053335Y-49677619D01*
X171910477Y-50534761D02*
X171815239Y-50582380D01*
X171815239Y-50582380D02*
X171624763Y-50582380D01*
X171624763Y-50582380D02*
X171529525Y-50534761D01*
X171529525Y-50534761D02*
X171481906Y-50439523D01*
X171481906Y-50439523D02*
X171481906Y-50058571D01*
X171481906Y-50058571D02*
X171529525Y-49963333D01*
X171529525Y-49963333D02*
X171624763Y-49915714D01*
X171624763Y-49915714D02*
X171815239Y-49915714D01*
X171815239Y-49915714D02*
X171910477Y-49963333D01*
X171910477Y-49963333D02*
X171958096Y-50058571D01*
X171958096Y-50058571D02*
X171958096Y-50153809D01*
X171958096Y-50153809D02*
X171481906Y-50249047D01*
X172815239Y-50534761D02*
X172720001Y-50582380D01*
X172720001Y-50582380D02*
X172529525Y-50582380D01*
X172529525Y-50582380D02*
X172434287Y-50534761D01*
X172434287Y-50534761D02*
X172386668Y-50487142D01*
X172386668Y-50487142D02*
X172339049Y-50391904D01*
X172339049Y-50391904D02*
X172339049Y-50106190D01*
X172339049Y-50106190D02*
X172386668Y-50010952D01*
X172386668Y-50010952D02*
X172434287Y-49963333D01*
X172434287Y-49963333D02*
X172529525Y-49915714D01*
X172529525Y-49915714D02*
X172720001Y-49915714D01*
X172720001Y-49915714D02*
X172815239Y-49963333D01*
X173100954Y-49915714D02*
X173481906Y-49915714D01*
X173243811Y-49582380D02*
X173243811Y-50439523D01*
X173243811Y-50439523D02*
X173291430Y-50534761D01*
X173291430Y-50534761D02*
X173386668Y-50582380D01*
X173386668Y-50582380D02*
X173481906Y-50582380D01*
X174415240Y-50201428D02*
X175177145Y-50201428D01*
X176539049Y-49582380D02*
X176539049Y-50296666D01*
X176539049Y-50296666D02*
X176491430Y-50439523D01*
X176491430Y-50439523D02*
X176396192Y-50534761D01*
X176396192Y-50534761D02*
X176253335Y-50582380D01*
X176253335Y-50582380D02*
X176158097Y-50582380D01*
X177158097Y-50582380D02*
X177062859Y-50534761D01*
X177062859Y-50534761D02*
X177015240Y-50487142D01*
X177015240Y-50487142D02*
X176967621Y-50391904D01*
X176967621Y-50391904D02*
X176967621Y-50106190D01*
X176967621Y-50106190D02*
X177015240Y-50010952D01*
X177015240Y-50010952D02*
X177062859Y-49963333D01*
X177062859Y-49963333D02*
X177158097Y-49915714D01*
X177158097Y-49915714D02*
X177300954Y-49915714D01*
X177300954Y-49915714D02*
X177396192Y-49963333D01*
X177396192Y-49963333D02*
X177443811Y-50010952D01*
X177443811Y-50010952D02*
X177491430Y-50106190D01*
X177491430Y-50106190D02*
X177491430Y-50391904D01*
X177491430Y-50391904D02*
X177443811Y-50487142D01*
X177443811Y-50487142D02*
X177396192Y-50534761D01*
X177396192Y-50534761D02*
X177300954Y-50582380D01*
X177300954Y-50582380D02*
X177158097Y-50582380D01*
X177872383Y-50534761D02*
X177967621Y-50582380D01*
X177967621Y-50582380D02*
X178158097Y-50582380D01*
X178158097Y-50582380D02*
X178253335Y-50534761D01*
X178253335Y-50534761D02*
X178300954Y-50439523D01*
X178300954Y-50439523D02*
X178300954Y-50391904D01*
X178300954Y-50391904D02*
X178253335Y-50296666D01*
X178253335Y-50296666D02*
X178158097Y-50249047D01*
X178158097Y-50249047D02*
X178015240Y-50249047D01*
X178015240Y-50249047D02*
X177920002Y-50201428D01*
X177920002Y-50201428D02*
X177872383Y-50106190D01*
X177872383Y-50106190D02*
X177872383Y-50058571D01*
X177872383Y-50058571D02*
X177920002Y-49963333D01*
X177920002Y-49963333D02*
X178015240Y-49915714D01*
X178015240Y-49915714D02*
X178158097Y-49915714D01*
X178158097Y-49915714D02*
X178253335Y-49963333D01*
X178729526Y-50582380D02*
X178729526Y-49582380D01*
X179158097Y-50582380D02*
X179158097Y-50058571D01*
X179158097Y-50058571D02*
X179110478Y-49963333D01*
X179110478Y-49963333D02*
X179015240Y-49915714D01*
X179015240Y-49915714D02*
X178872383Y-49915714D01*
X178872383Y-49915714D02*
X178777145Y-49963333D01*
X178777145Y-49963333D02*
X178729526Y-50010952D01*
X180234288Y-50582380D02*
X180234288Y-49582380D01*
X180234288Y-49582380D02*
X180567621Y-50296666D01*
X180567621Y-50296666D02*
X180900954Y-49582380D01*
X180900954Y-49582380D02*
X180900954Y-50582380D01*
X181758097Y-50534761D02*
X181662859Y-50582380D01*
X181662859Y-50582380D02*
X181472383Y-50582380D01*
X181472383Y-50582380D02*
X181377145Y-50534761D01*
X181377145Y-50534761D02*
X181329526Y-50439523D01*
X181329526Y-50439523D02*
X181329526Y-50058571D01*
X181329526Y-50058571D02*
X181377145Y-49963333D01*
X181377145Y-49963333D02*
X181472383Y-49915714D01*
X181472383Y-49915714D02*
X181662859Y-49915714D01*
X181662859Y-49915714D02*
X181758097Y-49963333D01*
X181758097Y-49963333D02*
X181805716Y-50058571D01*
X181805716Y-50058571D02*
X181805716Y-50153809D01*
X181805716Y-50153809D02*
X181329526Y-50249047D01*
X182234288Y-49915714D02*
X182234288Y-50772857D01*
X182234288Y-50772857D02*
X182186669Y-50868095D01*
X182186669Y-50868095D02*
X182091431Y-50915714D01*
X182091431Y-50915714D02*
X182043812Y-50915714D01*
X182234288Y-49582380D02*
X182186669Y-49630000D01*
X182186669Y-49630000D02*
X182234288Y-49677619D01*
X182234288Y-49677619D02*
X182281907Y-49630000D01*
X182281907Y-49630000D02*
X182234288Y-49582380D01*
X182234288Y-49582380D02*
X182234288Y-49677619D01*
X182710478Y-50582380D02*
X182710478Y-49915714D01*
X182710478Y-49582380D02*
X182662859Y-49630000D01*
X182662859Y-49630000D02*
X182710478Y-49677619D01*
X182710478Y-49677619D02*
X182758097Y-49630000D01*
X182758097Y-49630000D02*
X182710478Y-49582380D01*
X182710478Y-49582380D02*
X182710478Y-49677619D01*
X183615239Y-50582380D02*
X183615239Y-50058571D01*
X183615239Y-50058571D02*
X183567620Y-49963333D01*
X183567620Y-49963333D02*
X183472382Y-49915714D01*
X183472382Y-49915714D02*
X183281906Y-49915714D01*
X183281906Y-49915714D02*
X183186668Y-49963333D01*
X183615239Y-50534761D02*
X183520001Y-50582380D01*
X183520001Y-50582380D02*
X183281906Y-50582380D01*
X183281906Y-50582380D02*
X183186668Y-50534761D01*
X183186668Y-50534761D02*
X183139049Y-50439523D01*
X183139049Y-50439523D02*
X183139049Y-50344285D01*
X183139049Y-50344285D02*
X183186668Y-50249047D01*
X183186668Y-50249047D02*
X183281906Y-50201428D01*
X183281906Y-50201428D02*
X183520001Y-50201428D01*
X183520001Y-50201428D02*
X183615239Y-50153809D01*
D11*
%TO.C,D8*%
X100861905Y-122847380D02*
X100861905Y-121847380D01*
X100861905Y-121847380D02*
X101100000Y-121847380D01*
X101100000Y-121847380D02*
X101242857Y-121895000D01*
X101242857Y-121895000D02*
X101338095Y-121990238D01*
X101338095Y-121990238D02*
X101385714Y-122085476D01*
X101385714Y-122085476D02*
X101433333Y-122275952D01*
X101433333Y-122275952D02*
X101433333Y-122418809D01*
X101433333Y-122418809D02*
X101385714Y-122609285D01*
X101385714Y-122609285D02*
X101338095Y-122704523D01*
X101338095Y-122704523D02*
X101242857Y-122799761D01*
X101242857Y-122799761D02*
X101100000Y-122847380D01*
X101100000Y-122847380D02*
X100861905Y-122847380D01*
X102004762Y-122275952D02*
X101909524Y-122228333D01*
X101909524Y-122228333D02*
X101861905Y-122180714D01*
X101861905Y-122180714D02*
X101814286Y-122085476D01*
X101814286Y-122085476D02*
X101814286Y-122037857D01*
X101814286Y-122037857D02*
X101861905Y-121942619D01*
X101861905Y-121942619D02*
X101909524Y-121895000D01*
X101909524Y-121895000D02*
X102004762Y-121847380D01*
X102004762Y-121847380D02*
X102195238Y-121847380D01*
X102195238Y-121847380D02*
X102290476Y-121895000D01*
X102290476Y-121895000D02*
X102338095Y-121942619D01*
X102338095Y-121942619D02*
X102385714Y-122037857D01*
X102385714Y-122037857D02*
X102385714Y-122085476D01*
X102385714Y-122085476D02*
X102338095Y-122180714D01*
X102338095Y-122180714D02*
X102290476Y-122228333D01*
X102290476Y-122228333D02*
X102195238Y-122275952D01*
X102195238Y-122275952D02*
X102004762Y-122275952D01*
X102004762Y-122275952D02*
X101909524Y-122323571D01*
X101909524Y-122323571D02*
X101861905Y-122371190D01*
X101861905Y-122371190D02*
X101814286Y-122466428D01*
X101814286Y-122466428D02*
X101814286Y-122656904D01*
X101814286Y-122656904D02*
X101861905Y-122752142D01*
X101861905Y-122752142D02*
X101909524Y-122799761D01*
X101909524Y-122799761D02*
X102004762Y-122847380D01*
X102004762Y-122847380D02*
X102195238Y-122847380D01*
X102195238Y-122847380D02*
X102290476Y-122799761D01*
X102290476Y-122799761D02*
X102338095Y-122752142D01*
X102338095Y-122752142D02*
X102385714Y-122656904D01*
X102385714Y-122656904D02*
X102385714Y-122466428D01*
X102385714Y-122466428D02*
X102338095Y-122371190D01*
X102338095Y-122371190D02*
X102290476Y-122323571D01*
X102290476Y-122323571D02*
X102195238Y-122275952D01*
%TO.C,R4*%
X115058333Y-75077380D02*
X114725000Y-74601190D01*
X114486905Y-75077380D02*
X114486905Y-74077380D01*
X114486905Y-74077380D02*
X114867857Y-74077380D01*
X114867857Y-74077380D02*
X114963095Y-74125000D01*
X114963095Y-74125000D02*
X115010714Y-74172619D01*
X115010714Y-74172619D02*
X115058333Y-74267857D01*
X115058333Y-74267857D02*
X115058333Y-74410714D01*
X115058333Y-74410714D02*
X115010714Y-74505952D01*
X115010714Y-74505952D02*
X114963095Y-74553571D01*
X114963095Y-74553571D02*
X114867857Y-74601190D01*
X114867857Y-74601190D02*
X114486905Y-74601190D01*
X115915476Y-74410714D02*
X115915476Y-75077380D01*
X115677381Y-74029761D02*
X115439286Y-74744047D01*
X115439286Y-74744047D02*
X116058333Y-74744047D01*
%TO.C,D10*%
X100385714Y-137567380D02*
X100385714Y-136567380D01*
X100385714Y-136567380D02*
X100623809Y-136567380D01*
X100623809Y-136567380D02*
X100766666Y-136615000D01*
X100766666Y-136615000D02*
X100861904Y-136710238D01*
X100861904Y-136710238D02*
X100909523Y-136805476D01*
X100909523Y-136805476D02*
X100957142Y-136995952D01*
X100957142Y-136995952D02*
X100957142Y-137138809D01*
X100957142Y-137138809D02*
X100909523Y-137329285D01*
X100909523Y-137329285D02*
X100861904Y-137424523D01*
X100861904Y-137424523D02*
X100766666Y-137519761D01*
X100766666Y-137519761D02*
X100623809Y-137567380D01*
X100623809Y-137567380D02*
X100385714Y-137567380D01*
X101909523Y-137567380D02*
X101338095Y-137567380D01*
X101623809Y-137567380D02*
X101623809Y-136567380D01*
X101623809Y-136567380D02*
X101528571Y-136710238D01*
X101528571Y-136710238D02*
X101433333Y-136805476D01*
X101433333Y-136805476D02*
X101338095Y-136853095D01*
X102528571Y-136567380D02*
X102623809Y-136567380D01*
X102623809Y-136567380D02*
X102719047Y-136615000D01*
X102719047Y-136615000D02*
X102766666Y-136662619D01*
X102766666Y-136662619D02*
X102814285Y-136757857D01*
X102814285Y-136757857D02*
X102861904Y-136948333D01*
X102861904Y-136948333D02*
X102861904Y-137186428D01*
X102861904Y-137186428D02*
X102814285Y-137376904D01*
X102814285Y-137376904D02*
X102766666Y-137472142D01*
X102766666Y-137472142D02*
X102719047Y-137519761D01*
X102719047Y-137519761D02*
X102623809Y-137567380D01*
X102623809Y-137567380D02*
X102528571Y-137567380D01*
X102528571Y-137567380D02*
X102433333Y-137519761D01*
X102433333Y-137519761D02*
X102385714Y-137472142D01*
X102385714Y-137472142D02*
X102338095Y-137376904D01*
X102338095Y-137376904D02*
X102290476Y-137186428D01*
X102290476Y-137186428D02*
X102290476Y-136948333D01*
X102290476Y-136948333D02*
X102338095Y-136757857D01*
X102338095Y-136757857D02*
X102385714Y-136662619D01*
X102385714Y-136662619D02*
X102433333Y-136615000D01*
X102433333Y-136615000D02*
X102528571Y-136567380D01*
%TO.C,SW1*%
X181546667Y-73919761D02*
X181689524Y-73967380D01*
X181689524Y-73967380D02*
X181927619Y-73967380D01*
X181927619Y-73967380D02*
X182022857Y-73919761D01*
X182022857Y-73919761D02*
X182070476Y-73872142D01*
X182070476Y-73872142D02*
X182118095Y-73776904D01*
X182118095Y-73776904D02*
X182118095Y-73681666D01*
X182118095Y-73681666D02*
X182070476Y-73586428D01*
X182070476Y-73586428D02*
X182022857Y-73538809D01*
X182022857Y-73538809D02*
X181927619Y-73491190D01*
X181927619Y-73491190D02*
X181737143Y-73443571D01*
X181737143Y-73443571D02*
X181641905Y-73395952D01*
X181641905Y-73395952D02*
X181594286Y-73348333D01*
X181594286Y-73348333D02*
X181546667Y-73253095D01*
X181546667Y-73253095D02*
X181546667Y-73157857D01*
X181546667Y-73157857D02*
X181594286Y-73062619D01*
X181594286Y-73062619D02*
X181641905Y-73015000D01*
X181641905Y-73015000D02*
X181737143Y-72967380D01*
X181737143Y-72967380D02*
X181975238Y-72967380D01*
X181975238Y-72967380D02*
X182118095Y-73015000D01*
X182451429Y-72967380D02*
X182689524Y-73967380D01*
X182689524Y-73967380D02*
X182880000Y-73253095D01*
X182880000Y-73253095D02*
X183070476Y-73967380D01*
X183070476Y-73967380D02*
X183308572Y-72967380D01*
X184213333Y-73967380D02*
X183641905Y-73967380D01*
X183927619Y-73967380D02*
X183927619Y-72967380D01*
X183927619Y-72967380D02*
X183832381Y-73110238D01*
X183832381Y-73110238D02*
X183737143Y-73205476D01*
X183737143Y-73205476D02*
X183641905Y-73253095D01*
%TO.C,R10*%
X109527142Y-133497380D02*
X109193809Y-133021190D01*
X108955714Y-133497380D02*
X108955714Y-132497380D01*
X108955714Y-132497380D02*
X109336666Y-132497380D01*
X109336666Y-132497380D02*
X109431904Y-132545000D01*
X109431904Y-132545000D02*
X109479523Y-132592619D01*
X109479523Y-132592619D02*
X109527142Y-132687857D01*
X109527142Y-132687857D02*
X109527142Y-132830714D01*
X109527142Y-132830714D02*
X109479523Y-132925952D01*
X109479523Y-132925952D02*
X109431904Y-132973571D01*
X109431904Y-132973571D02*
X109336666Y-133021190D01*
X109336666Y-133021190D02*
X108955714Y-133021190D01*
X110479523Y-133497380D02*
X109908095Y-133497380D01*
X110193809Y-133497380D02*
X110193809Y-132497380D01*
X110193809Y-132497380D02*
X110098571Y-132640238D01*
X110098571Y-132640238D02*
X110003333Y-132735476D01*
X110003333Y-132735476D02*
X109908095Y-132783095D01*
X111098571Y-132497380D02*
X111193809Y-132497380D01*
X111193809Y-132497380D02*
X111289047Y-132545000D01*
X111289047Y-132545000D02*
X111336666Y-132592619D01*
X111336666Y-132592619D02*
X111384285Y-132687857D01*
X111384285Y-132687857D02*
X111431904Y-132878333D01*
X111431904Y-132878333D02*
X111431904Y-133116428D01*
X111431904Y-133116428D02*
X111384285Y-133306904D01*
X111384285Y-133306904D02*
X111336666Y-133402142D01*
X111336666Y-133402142D02*
X111289047Y-133449761D01*
X111289047Y-133449761D02*
X111193809Y-133497380D01*
X111193809Y-133497380D02*
X111098571Y-133497380D01*
X111098571Y-133497380D02*
X111003333Y-133449761D01*
X111003333Y-133449761D02*
X110955714Y-133402142D01*
X110955714Y-133402142D02*
X110908095Y-133306904D01*
X110908095Y-133306904D02*
X110860476Y-133116428D01*
X110860476Y-133116428D02*
X110860476Y-132878333D01*
X110860476Y-132878333D02*
X110908095Y-132687857D01*
X110908095Y-132687857D02*
X110955714Y-132592619D01*
X110955714Y-132592619D02*
X111003333Y-132545000D01*
X111003333Y-132545000D02*
X111098571Y-132497380D01*
%TO.C,H2*%
X189738095Y-49507380D02*
X189738095Y-48507380D01*
X189738095Y-48983571D02*
X190309523Y-48983571D01*
X190309523Y-49507380D02*
X190309523Y-48507380D01*
X190738095Y-48602619D02*
X190785714Y-48555000D01*
X190785714Y-48555000D02*
X190880952Y-48507380D01*
X190880952Y-48507380D02*
X191119047Y-48507380D01*
X191119047Y-48507380D02*
X191214285Y-48555000D01*
X191214285Y-48555000D02*
X191261904Y-48602619D01*
X191261904Y-48602619D02*
X191309523Y-48697857D01*
X191309523Y-48697857D02*
X191309523Y-48793095D01*
X191309523Y-48793095D02*
X191261904Y-48935952D01*
X191261904Y-48935952D02*
X190690476Y-49507380D01*
X190690476Y-49507380D02*
X191309523Y-49507380D01*
%TO.C,R11*%
X183852142Y-94567380D02*
X183518809Y-94091190D01*
X183280714Y-94567380D02*
X183280714Y-93567380D01*
X183280714Y-93567380D02*
X183661666Y-93567380D01*
X183661666Y-93567380D02*
X183756904Y-93615000D01*
X183756904Y-93615000D02*
X183804523Y-93662619D01*
X183804523Y-93662619D02*
X183852142Y-93757857D01*
X183852142Y-93757857D02*
X183852142Y-93900714D01*
X183852142Y-93900714D02*
X183804523Y-93995952D01*
X183804523Y-93995952D02*
X183756904Y-94043571D01*
X183756904Y-94043571D02*
X183661666Y-94091190D01*
X183661666Y-94091190D02*
X183280714Y-94091190D01*
X184804523Y-94567380D02*
X184233095Y-94567380D01*
X184518809Y-94567380D02*
X184518809Y-93567380D01*
X184518809Y-93567380D02*
X184423571Y-93710238D01*
X184423571Y-93710238D02*
X184328333Y-93805476D01*
X184328333Y-93805476D02*
X184233095Y-93853095D01*
X185756904Y-94567380D02*
X185185476Y-94567380D01*
X185471190Y-94567380D02*
X185471190Y-93567380D01*
X185471190Y-93567380D02*
X185375952Y-93710238D01*
X185375952Y-93710238D02*
X185280714Y-93805476D01*
X185280714Y-93805476D02*
X185185476Y-93853095D01*
%TO.C,R8*%
X113813333Y-125877380D02*
X113480000Y-125401190D01*
X113241905Y-125877380D02*
X113241905Y-124877380D01*
X113241905Y-124877380D02*
X113622857Y-124877380D01*
X113622857Y-124877380D02*
X113718095Y-124925000D01*
X113718095Y-124925000D02*
X113765714Y-124972619D01*
X113765714Y-124972619D02*
X113813333Y-125067857D01*
X113813333Y-125067857D02*
X113813333Y-125210714D01*
X113813333Y-125210714D02*
X113765714Y-125305952D01*
X113765714Y-125305952D02*
X113718095Y-125353571D01*
X113718095Y-125353571D02*
X113622857Y-125401190D01*
X113622857Y-125401190D02*
X113241905Y-125401190D01*
X114384762Y-125305952D02*
X114289524Y-125258333D01*
X114289524Y-125258333D02*
X114241905Y-125210714D01*
X114241905Y-125210714D02*
X114194286Y-125115476D01*
X114194286Y-125115476D02*
X114194286Y-125067857D01*
X114194286Y-125067857D02*
X114241905Y-124972619D01*
X114241905Y-124972619D02*
X114289524Y-124925000D01*
X114289524Y-124925000D02*
X114384762Y-124877380D01*
X114384762Y-124877380D02*
X114575238Y-124877380D01*
X114575238Y-124877380D02*
X114670476Y-124925000D01*
X114670476Y-124925000D02*
X114718095Y-124972619D01*
X114718095Y-124972619D02*
X114765714Y-125067857D01*
X114765714Y-125067857D02*
X114765714Y-125115476D01*
X114765714Y-125115476D02*
X114718095Y-125210714D01*
X114718095Y-125210714D02*
X114670476Y-125258333D01*
X114670476Y-125258333D02*
X114575238Y-125305952D01*
X114575238Y-125305952D02*
X114384762Y-125305952D01*
X114384762Y-125305952D02*
X114289524Y-125353571D01*
X114289524Y-125353571D02*
X114241905Y-125401190D01*
X114241905Y-125401190D02*
X114194286Y-125496428D01*
X114194286Y-125496428D02*
X114194286Y-125686904D01*
X114194286Y-125686904D02*
X114241905Y-125782142D01*
X114241905Y-125782142D02*
X114289524Y-125829761D01*
X114289524Y-125829761D02*
X114384762Y-125877380D01*
X114384762Y-125877380D02*
X114575238Y-125877380D01*
X114575238Y-125877380D02*
X114670476Y-125829761D01*
X114670476Y-125829761D02*
X114718095Y-125782142D01*
X114718095Y-125782142D02*
X114765714Y-125686904D01*
X114765714Y-125686904D02*
X114765714Y-125496428D01*
X114765714Y-125496428D02*
X114718095Y-125401190D01*
X114718095Y-125401190D02*
X114670476Y-125353571D01*
X114670476Y-125353571D02*
X114575238Y-125305952D01*
%TO.C,D7*%
X100861905Y-115227380D02*
X100861905Y-114227380D01*
X100861905Y-114227380D02*
X101100000Y-114227380D01*
X101100000Y-114227380D02*
X101242857Y-114275000D01*
X101242857Y-114275000D02*
X101338095Y-114370238D01*
X101338095Y-114370238D02*
X101385714Y-114465476D01*
X101385714Y-114465476D02*
X101433333Y-114655952D01*
X101433333Y-114655952D02*
X101433333Y-114798809D01*
X101433333Y-114798809D02*
X101385714Y-114989285D01*
X101385714Y-114989285D02*
X101338095Y-115084523D01*
X101338095Y-115084523D02*
X101242857Y-115179761D01*
X101242857Y-115179761D02*
X101100000Y-115227380D01*
X101100000Y-115227380D02*
X100861905Y-115227380D01*
X101766667Y-114227380D02*
X102433333Y-114227380D01*
X102433333Y-114227380D02*
X102004762Y-115227380D01*
%TO.C,R6*%
X119558333Y-118257380D02*
X119225000Y-117781190D01*
X118986905Y-118257380D02*
X118986905Y-117257380D01*
X118986905Y-117257380D02*
X119367857Y-117257380D01*
X119367857Y-117257380D02*
X119463095Y-117305000D01*
X119463095Y-117305000D02*
X119510714Y-117352619D01*
X119510714Y-117352619D02*
X119558333Y-117447857D01*
X119558333Y-117447857D02*
X119558333Y-117590714D01*
X119558333Y-117590714D02*
X119510714Y-117685952D01*
X119510714Y-117685952D02*
X119463095Y-117733571D01*
X119463095Y-117733571D02*
X119367857Y-117781190D01*
X119367857Y-117781190D02*
X118986905Y-117781190D01*
X120415476Y-117257380D02*
X120225000Y-117257380D01*
X120225000Y-117257380D02*
X120129762Y-117305000D01*
X120129762Y-117305000D02*
X120082143Y-117352619D01*
X120082143Y-117352619D02*
X119986905Y-117495476D01*
X119986905Y-117495476D02*
X119939286Y-117685952D01*
X119939286Y-117685952D02*
X119939286Y-118066904D01*
X119939286Y-118066904D02*
X119986905Y-118162142D01*
X119986905Y-118162142D02*
X120034524Y-118209761D01*
X120034524Y-118209761D02*
X120129762Y-118257380D01*
X120129762Y-118257380D02*
X120320238Y-118257380D01*
X120320238Y-118257380D02*
X120415476Y-118209761D01*
X120415476Y-118209761D02*
X120463095Y-118162142D01*
X120463095Y-118162142D02*
X120510714Y-118066904D01*
X120510714Y-118066904D02*
X120510714Y-117828809D01*
X120510714Y-117828809D02*
X120463095Y-117733571D01*
X120463095Y-117733571D02*
X120415476Y-117685952D01*
X120415476Y-117685952D02*
X120320238Y-117638333D01*
X120320238Y-117638333D02*
X120129762Y-117638333D01*
X120129762Y-117638333D02*
X120034524Y-117685952D01*
X120034524Y-117685952D02*
X119986905Y-117733571D01*
X119986905Y-117733571D02*
X119939286Y-117828809D01*
%TO.C,R12*%
X110797142Y-64917380D02*
X110463809Y-64441190D01*
X110225714Y-64917380D02*
X110225714Y-63917380D01*
X110225714Y-63917380D02*
X110606666Y-63917380D01*
X110606666Y-63917380D02*
X110701904Y-63965000D01*
X110701904Y-63965000D02*
X110749523Y-64012619D01*
X110749523Y-64012619D02*
X110797142Y-64107857D01*
X110797142Y-64107857D02*
X110797142Y-64250714D01*
X110797142Y-64250714D02*
X110749523Y-64345952D01*
X110749523Y-64345952D02*
X110701904Y-64393571D01*
X110701904Y-64393571D02*
X110606666Y-64441190D01*
X110606666Y-64441190D02*
X110225714Y-64441190D01*
X111749523Y-64917380D02*
X111178095Y-64917380D01*
X111463809Y-64917380D02*
X111463809Y-63917380D01*
X111463809Y-63917380D02*
X111368571Y-64060238D01*
X111368571Y-64060238D02*
X111273333Y-64155476D01*
X111273333Y-64155476D02*
X111178095Y-64203095D01*
X112130476Y-64012619D02*
X112178095Y-63965000D01*
X112178095Y-63965000D02*
X112273333Y-63917380D01*
X112273333Y-63917380D02*
X112511428Y-63917380D01*
X112511428Y-63917380D02*
X112606666Y-63965000D01*
X112606666Y-63965000D02*
X112654285Y-64012619D01*
X112654285Y-64012619D02*
X112701904Y-64107857D01*
X112701904Y-64107857D02*
X112701904Y-64203095D01*
X112701904Y-64203095D02*
X112654285Y-64345952D01*
X112654285Y-64345952D02*
X112082857Y-64917380D01*
X112082857Y-64917380D02*
X112701904Y-64917380D01*
%TO.C,J1*%
X130476666Y-135257380D02*
X130476666Y-135971666D01*
X130476666Y-135971666D02*
X130429047Y-136114523D01*
X130429047Y-136114523D02*
X130333809Y-136209761D01*
X130333809Y-136209761D02*
X130190952Y-136257380D01*
X130190952Y-136257380D02*
X130095714Y-136257380D01*
X131476666Y-136257380D02*
X130905238Y-136257380D01*
X131190952Y-136257380D02*
X131190952Y-135257380D01*
X131190952Y-135257380D02*
X131095714Y-135400238D01*
X131095714Y-135400238D02*
X131000476Y-135495476D01*
X131000476Y-135495476D02*
X130905238Y-135543095D01*
%TO.C,R2*%
X115298333Y-67720145D02*
X114965000Y-67243955D01*
X114726905Y-67720145D02*
X114726905Y-66720145D01*
X114726905Y-66720145D02*
X115107857Y-66720145D01*
X115107857Y-66720145D02*
X115203095Y-66767765D01*
X115203095Y-66767765D02*
X115250714Y-66815384D01*
X115250714Y-66815384D02*
X115298333Y-66910622D01*
X115298333Y-66910622D02*
X115298333Y-67053479D01*
X115298333Y-67053479D02*
X115250714Y-67148717D01*
X115250714Y-67148717D02*
X115203095Y-67196336D01*
X115203095Y-67196336D02*
X115107857Y-67243955D01*
X115107857Y-67243955D02*
X114726905Y-67243955D01*
X115679286Y-66815384D02*
X115726905Y-66767765D01*
X115726905Y-66767765D02*
X115822143Y-66720145D01*
X115822143Y-66720145D02*
X116060238Y-66720145D01*
X116060238Y-66720145D02*
X116155476Y-66767765D01*
X116155476Y-66767765D02*
X116203095Y-66815384D01*
X116203095Y-66815384D02*
X116250714Y-66910622D01*
X116250714Y-66910622D02*
X116250714Y-67005860D01*
X116250714Y-67005860D02*
X116203095Y-67148717D01*
X116203095Y-67148717D02*
X115631667Y-67720145D01*
X115631667Y-67720145D02*
X116250714Y-67720145D01*
%TO.C,SW2*%
X181546667Y-91819761D02*
X181689524Y-91867380D01*
X181689524Y-91867380D02*
X181927619Y-91867380D01*
X181927619Y-91867380D02*
X182022857Y-91819761D01*
X182022857Y-91819761D02*
X182070476Y-91772142D01*
X182070476Y-91772142D02*
X182118095Y-91676904D01*
X182118095Y-91676904D02*
X182118095Y-91581666D01*
X182118095Y-91581666D02*
X182070476Y-91486428D01*
X182070476Y-91486428D02*
X182022857Y-91438809D01*
X182022857Y-91438809D02*
X181927619Y-91391190D01*
X181927619Y-91391190D02*
X181737143Y-91343571D01*
X181737143Y-91343571D02*
X181641905Y-91295952D01*
X181641905Y-91295952D02*
X181594286Y-91248333D01*
X181594286Y-91248333D02*
X181546667Y-91153095D01*
X181546667Y-91153095D02*
X181546667Y-91057857D01*
X181546667Y-91057857D02*
X181594286Y-90962619D01*
X181594286Y-90962619D02*
X181641905Y-90915000D01*
X181641905Y-90915000D02*
X181737143Y-90867380D01*
X181737143Y-90867380D02*
X181975238Y-90867380D01*
X181975238Y-90867380D02*
X182118095Y-90915000D01*
X182451429Y-90867380D02*
X182689524Y-91867380D01*
X182689524Y-91867380D02*
X182880000Y-91153095D01*
X182880000Y-91153095D02*
X183070476Y-91867380D01*
X183070476Y-91867380D02*
X183308572Y-90867380D01*
X183641905Y-90962619D02*
X183689524Y-90915000D01*
X183689524Y-90915000D02*
X183784762Y-90867380D01*
X183784762Y-90867380D02*
X184022857Y-90867380D01*
X184022857Y-90867380D02*
X184118095Y-90915000D01*
X184118095Y-90915000D02*
X184165714Y-90962619D01*
X184165714Y-90962619D02*
X184213333Y-91057857D01*
X184213333Y-91057857D02*
X184213333Y-91153095D01*
X184213333Y-91153095D02*
X184165714Y-91295952D01*
X184165714Y-91295952D02*
X183594286Y-91867380D01*
X183594286Y-91867380D02*
X184213333Y-91867380D01*
%TO.C,H4*%
X191008095Y-133327380D02*
X191008095Y-132327380D01*
X191008095Y-132803571D02*
X191579523Y-132803571D01*
X191579523Y-133327380D02*
X191579523Y-132327380D01*
X192484285Y-132660714D02*
X192484285Y-133327380D01*
X192246190Y-132279761D02*
X192008095Y-132994047D01*
X192008095Y-132994047D02*
X192627142Y-132994047D01*
%TO.C,D2*%
X100861905Y-77127380D02*
X100861905Y-76127380D01*
X100861905Y-76127380D02*
X101100000Y-76127380D01*
X101100000Y-76127380D02*
X101242857Y-76175000D01*
X101242857Y-76175000D02*
X101338095Y-76270238D01*
X101338095Y-76270238D02*
X101385714Y-76365476D01*
X101385714Y-76365476D02*
X101433333Y-76555952D01*
X101433333Y-76555952D02*
X101433333Y-76698809D01*
X101433333Y-76698809D02*
X101385714Y-76889285D01*
X101385714Y-76889285D02*
X101338095Y-76984523D01*
X101338095Y-76984523D02*
X101242857Y-77079761D01*
X101242857Y-77079761D02*
X101100000Y-77127380D01*
X101100000Y-77127380D02*
X100861905Y-77127380D01*
X101814286Y-76222619D02*
X101861905Y-76175000D01*
X101861905Y-76175000D02*
X101957143Y-76127380D01*
X101957143Y-76127380D02*
X102195238Y-76127380D01*
X102195238Y-76127380D02*
X102290476Y-76175000D01*
X102290476Y-76175000D02*
X102338095Y-76222619D01*
X102338095Y-76222619D02*
X102385714Y-76317857D01*
X102385714Y-76317857D02*
X102385714Y-76413095D01*
X102385714Y-76413095D02*
X102338095Y-76555952D01*
X102338095Y-76555952D02*
X101766667Y-77127380D01*
X101766667Y-77127380D02*
X102385714Y-77127380D01*
%TO.C,R1*%
X184908333Y-67847380D02*
X184575000Y-67371190D01*
X184336905Y-67847380D02*
X184336905Y-66847380D01*
X184336905Y-66847380D02*
X184717857Y-66847380D01*
X184717857Y-66847380D02*
X184813095Y-66895000D01*
X184813095Y-66895000D02*
X184860714Y-66942619D01*
X184860714Y-66942619D02*
X184908333Y-67037857D01*
X184908333Y-67037857D02*
X184908333Y-67180714D01*
X184908333Y-67180714D02*
X184860714Y-67275952D01*
X184860714Y-67275952D02*
X184813095Y-67323571D01*
X184813095Y-67323571D02*
X184717857Y-67371190D01*
X184717857Y-67371190D02*
X184336905Y-67371190D01*
X185860714Y-67847380D02*
X185289286Y-67847380D01*
X185575000Y-67847380D02*
X185575000Y-66847380D01*
X185575000Y-66847380D02*
X185479762Y-66990238D01*
X185479762Y-66990238D02*
X185384524Y-67085476D01*
X185384524Y-67085476D02*
X185289286Y-67133095D01*
%TO.C,R3*%
X115058333Y-71267380D02*
X114725000Y-70791190D01*
X114486905Y-71267380D02*
X114486905Y-70267380D01*
X114486905Y-70267380D02*
X114867857Y-70267380D01*
X114867857Y-70267380D02*
X114963095Y-70315000D01*
X114963095Y-70315000D02*
X115010714Y-70362619D01*
X115010714Y-70362619D02*
X115058333Y-70457857D01*
X115058333Y-70457857D02*
X115058333Y-70600714D01*
X115058333Y-70600714D02*
X115010714Y-70695952D01*
X115010714Y-70695952D02*
X114963095Y-70743571D01*
X114963095Y-70743571D02*
X114867857Y-70791190D01*
X114867857Y-70791190D02*
X114486905Y-70791190D01*
X115391667Y-70267380D02*
X116010714Y-70267380D01*
X116010714Y-70267380D02*
X115677381Y-70648333D01*
X115677381Y-70648333D02*
X115820238Y-70648333D01*
X115820238Y-70648333D02*
X115915476Y-70695952D01*
X115915476Y-70695952D02*
X115963095Y-70743571D01*
X115963095Y-70743571D02*
X116010714Y-70838809D01*
X116010714Y-70838809D02*
X116010714Y-71076904D01*
X116010714Y-71076904D02*
X115963095Y-71172142D01*
X115963095Y-71172142D02*
X115915476Y-71219761D01*
X115915476Y-71219761D02*
X115820238Y-71267380D01*
X115820238Y-71267380D02*
X115534524Y-71267380D01*
X115534524Y-71267380D02*
X115439286Y-71219761D01*
X115439286Y-71219761D02*
X115391667Y-71172142D01*
%TO.C,D1*%
X100861905Y-69507380D02*
X100861905Y-68507380D01*
X100861905Y-68507380D02*
X101100000Y-68507380D01*
X101100000Y-68507380D02*
X101242857Y-68555000D01*
X101242857Y-68555000D02*
X101338095Y-68650238D01*
X101338095Y-68650238D02*
X101385714Y-68745476D01*
X101385714Y-68745476D02*
X101433333Y-68935952D01*
X101433333Y-68935952D02*
X101433333Y-69078809D01*
X101433333Y-69078809D02*
X101385714Y-69269285D01*
X101385714Y-69269285D02*
X101338095Y-69364523D01*
X101338095Y-69364523D02*
X101242857Y-69459761D01*
X101242857Y-69459761D02*
X101100000Y-69507380D01*
X101100000Y-69507380D02*
X100861905Y-69507380D01*
X102385714Y-69507380D02*
X101814286Y-69507380D01*
X102100000Y-69507380D02*
X102100000Y-68507380D01*
X102100000Y-68507380D02*
X102004762Y-68650238D01*
X102004762Y-68650238D02*
X101909524Y-68745476D01*
X101909524Y-68745476D02*
X101814286Y-68793095D01*
%TO.C,H1*%
X90678095Y-50777380D02*
X90678095Y-49777380D01*
X90678095Y-50253571D02*
X91249523Y-50253571D01*
X91249523Y-50777380D02*
X91249523Y-49777380D01*
X92249523Y-50777380D02*
X91678095Y-50777380D01*
X91963809Y-50777380D02*
X91963809Y-49777380D01*
X91963809Y-49777380D02*
X91868571Y-49920238D01*
X91868571Y-49920238D02*
X91773333Y-50015476D01*
X91773333Y-50015476D02*
X91678095Y-50063095D01*
%TO.C,D9*%
X100861905Y-130467380D02*
X100861905Y-129467380D01*
X100861905Y-129467380D02*
X101100000Y-129467380D01*
X101100000Y-129467380D02*
X101242857Y-129515000D01*
X101242857Y-129515000D02*
X101338095Y-129610238D01*
X101338095Y-129610238D02*
X101385714Y-129705476D01*
X101385714Y-129705476D02*
X101433333Y-129895952D01*
X101433333Y-129895952D02*
X101433333Y-130038809D01*
X101433333Y-130038809D02*
X101385714Y-130229285D01*
X101385714Y-130229285D02*
X101338095Y-130324523D01*
X101338095Y-130324523D02*
X101242857Y-130419761D01*
X101242857Y-130419761D02*
X101100000Y-130467380D01*
X101100000Y-130467380D02*
X100861905Y-130467380D01*
X101909524Y-130467380D02*
X102100000Y-130467380D01*
X102100000Y-130467380D02*
X102195238Y-130419761D01*
X102195238Y-130419761D02*
X102242857Y-130372142D01*
X102242857Y-130372142D02*
X102338095Y-130229285D01*
X102338095Y-130229285D02*
X102385714Y-130038809D01*
X102385714Y-130038809D02*
X102385714Y-129657857D01*
X102385714Y-129657857D02*
X102338095Y-129562619D01*
X102338095Y-129562619D02*
X102290476Y-129515000D01*
X102290476Y-129515000D02*
X102195238Y-129467380D01*
X102195238Y-129467380D02*
X102004762Y-129467380D01*
X102004762Y-129467380D02*
X101909524Y-129515000D01*
X101909524Y-129515000D02*
X101861905Y-129562619D01*
X101861905Y-129562619D02*
X101814286Y-129657857D01*
X101814286Y-129657857D02*
X101814286Y-129895952D01*
X101814286Y-129895952D02*
X101861905Y-129991190D01*
X101861905Y-129991190D02*
X101909524Y-130038809D01*
X101909524Y-130038809D02*
X102004762Y-130086428D01*
X102004762Y-130086428D02*
X102195238Y-130086428D01*
X102195238Y-130086428D02*
X102290476Y-130038809D01*
X102290476Y-130038809D02*
X102338095Y-129991190D01*
X102338095Y-129991190D02*
X102385714Y-129895952D01*
%TO.C,D6*%
X100861905Y-107607380D02*
X100861905Y-106607380D01*
X100861905Y-106607380D02*
X101100000Y-106607380D01*
X101100000Y-106607380D02*
X101242857Y-106655000D01*
X101242857Y-106655000D02*
X101338095Y-106750238D01*
X101338095Y-106750238D02*
X101385714Y-106845476D01*
X101385714Y-106845476D02*
X101433333Y-107035952D01*
X101433333Y-107035952D02*
X101433333Y-107178809D01*
X101433333Y-107178809D02*
X101385714Y-107369285D01*
X101385714Y-107369285D02*
X101338095Y-107464523D01*
X101338095Y-107464523D02*
X101242857Y-107559761D01*
X101242857Y-107559761D02*
X101100000Y-107607380D01*
X101100000Y-107607380D02*
X100861905Y-107607380D01*
X102290476Y-106607380D02*
X102100000Y-106607380D01*
X102100000Y-106607380D02*
X102004762Y-106655000D01*
X102004762Y-106655000D02*
X101957143Y-106702619D01*
X101957143Y-106702619D02*
X101861905Y-106845476D01*
X101861905Y-106845476D02*
X101814286Y-107035952D01*
X101814286Y-107035952D02*
X101814286Y-107416904D01*
X101814286Y-107416904D02*
X101861905Y-107512142D01*
X101861905Y-107512142D02*
X101909524Y-107559761D01*
X101909524Y-107559761D02*
X102004762Y-107607380D01*
X102004762Y-107607380D02*
X102195238Y-107607380D01*
X102195238Y-107607380D02*
X102290476Y-107559761D01*
X102290476Y-107559761D02*
X102338095Y-107512142D01*
X102338095Y-107512142D02*
X102385714Y-107416904D01*
X102385714Y-107416904D02*
X102385714Y-107178809D01*
X102385714Y-107178809D02*
X102338095Y-107083571D01*
X102338095Y-107083571D02*
X102290476Y-107035952D01*
X102290476Y-107035952D02*
X102195238Y-106988333D01*
X102195238Y-106988333D02*
X102004762Y-106988333D01*
X102004762Y-106988333D02*
X101909524Y-107035952D01*
X101909524Y-107035952D02*
X101861905Y-107083571D01*
X101861905Y-107083571D02*
X101814286Y-107178809D01*
%TO.C,J2*%
X162754441Y-134832145D02*
X162754441Y-135546431D01*
X162754441Y-135546431D02*
X162706822Y-135689288D01*
X162706822Y-135689288D02*
X162611584Y-135784526D01*
X162611584Y-135784526D02*
X162468727Y-135832145D01*
X162468727Y-135832145D02*
X162373489Y-135832145D01*
X163183013Y-134927384D02*
X163230632Y-134879765D01*
X163230632Y-134879765D02*
X163325870Y-134832145D01*
X163325870Y-134832145D02*
X163563965Y-134832145D01*
X163563965Y-134832145D02*
X163659203Y-134879765D01*
X163659203Y-134879765D02*
X163706822Y-134927384D01*
X163706822Y-134927384D02*
X163754441Y-135022622D01*
X163754441Y-135022622D02*
X163754441Y-135117860D01*
X163754441Y-135117860D02*
X163706822Y-135260717D01*
X163706822Y-135260717D02*
X163135394Y-135832145D01*
X163135394Y-135832145D02*
X163754441Y-135832145D01*
%TO.C,D3*%
X100861905Y-84747380D02*
X100861905Y-83747380D01*
X100861905Y-83747380D02*
X101100000Y-83747380D01*
X101100000Y-83747380D02*
X101242857Y-83795000D01*
X101242857Y-83795000D02*
X101338095Y-83890238D01*
X101338095Y-83890238D02*
X101385714Y-83985476D01*
X101385714Y-83985476D02*
X101433333Y-84175952D01*
X101433333Y-84175952D02*
X101433333Y-84318809D01*
X101433333Y-84318809D02*
X101385714Y-84509285D01*
X101385714Y-84509285D02*
X101338095Y-84604523D01*
X101338095Y-84604523D02*
X101242857Y-84699761D01*
X101242857Y-84699761D02*
X101100000Y-84747380D01*
X101100000Y-84747380D02*
X100861905Y-84747380D01*
X101766667Y-83747380D02*
X102385714Y-83747380D01*
X102385714Y-83747380D02*
X102052381Y-84128333D01*
X102052381Y-84128333D02*
X102195238Y-84128333D01*
X102195238Y-84128333D02*
X102290476Y-84175952D01*
X102290476Y-84175952D02*
X102338095Y-84223571D01*
X102338095Y-84223571D02*
X102385714Y-84318809D01*
X102385714Y-84318809D02*
X102385714Y-84556904D01*
X102385714Y-84556904D02*
X102338095Y-84652142D01*
X102338095Y-84652142D02*
X102290476Y-84699761D01*
X102290476Y-84699761D02*
X102195238Y-84747380D01*
X102195238Y-84747380D02*
X101909524Y-84747380D01*
X101909524Y-84747380D02*
X101814286Y-84699761D01*
X101814286Y-84699761D02*
X101766667Y-84652142D01*
%TO.C,R7*%
X116353333Y-122067380D02*
X116020000Y-121591190D01*
X115781905Y-122067380D02*
X115781905Y-121067380D01*
X115781905Y-121067380D02*
X116162857Y-121067380D01*
X116162857Y-121067380D02*
X116258095Y-121115000D01*
X116258095Y-121115000D02*
X116305714Y-121162619D01*
X116305714Y-121162619D02*
X116353333Y-121257857D01*
X116353333Y-121257857D02*
X116353333Y-121400714D01*
X116353333Y-121400714D02*
X116305714Y-121495952D01*
X116305714Y-121495952D02*
X116258095Y-121543571D01*
X116258095Y-121543571D02*
X116162857Y-121591190D01*
X116162857Y-121591190D02*
X115781905Y-121591190D01*
X116686667Y-121067380D02*
X117353333Y-121067380D01*
X117353333Y-121067380D02*
X116924762Y-122067380D01*
%TO.C,D4*%
X100861905Y-91847380D02*
X100861905Y-90847380D01*
X100861905Y-90847380D02*
X101100000Y-90847380D01*
X101100000Y-90847380D02*
X101242857Y-90895000D01*
X101242857Y-90895000D02*
X101338095Y-90990238D01*
X101338095Y-90990238D02*
X101385714Y-91085476D01*
X101385714Y-91085476D02*
X101433333Y-91275952D01*
X101433333Y-91275952D02*
X101433333Y-91418809D01*
X101433333Y-91418809D02*
X101385714Y-91609285D01*
X101385714Y-91609285D02*
X101338095Y-91704523D01*
X101338095Y-91704523D02*
X101242857Y-91799761D01*
X101242857Y-91799761D02*
X101100000Y-91847380D01*
X101100000Y-91847380D02*
X100861905Y-91847380D01*
X102290476Y-91180714D02*
X102290476Y-91847380D01*
X102052381Y-90799761D02*
X101814286Y-91514047D01*
X101814286Y-91514047D02*
X102433333Y-91514047D01*
%TO.C,H3*%
X90678095Y-133327380D02*
X90678095Y-132327380D01*
X90678095Y-132803571D02*
X91249523Y-132803571D01*
X91249523Y-133327380D02*
X91249523Y-132327380D01*
X91630476Y-132327380D02*
X92249523Y-132327380D01*
X92249523Y-132327380D02*
X91916190Y-132708333D01*
X91916190Y-132708333D02*
X92059047Y-132708333D01*
X92059047Y-132708333D02*
X92154285Y-132755952D01*
X92154285Y-132755952D02*
X92201904Y-132803571D01*
X92201904Y-132803571D02*
X92249523Y-132898809D01*
X92249523Y-132898809D02*
X92249523Y-133136904D01*
X92249523Y-133136904D02*
X92201904Y-133232142D01*
X92201904Y-133232142D02*
X92154285Y-133279761D01*
X92154285Y-133279761D02*
X92059047Y-133327380D01*
X92059047Y-133327380D02*
X91773333Y-133327380D01*
X91773333Y-133327380D02*
X91678095Y-133279761D01*
X91678095Y-133279761D02*
X91630476Y-133232142D01*
%TO.C,D5*%
X100861905Y-99987380D02*
X100861905Y-98987380D01*
X100861905Y-98987380D02*
X101100000Y-98987380D01*
X101100000Y-98987380D02*
X101242857Y-99035000D01*
X101242857Y-99035000D02*
X101338095Y-99130238D01*
X101338095Y-99130238D02*
X101385714Y-99225476D01*
X101385714Y-99225476D02*
X101433333Y-99415952D01*
X101433333Y-99415952D02*
X101433333Y-99558809D01*
X101433333Y-99558809D02*
X101385714Y-99749285D01*
X101385714Y-99749285D02*
X101338095Y-99844523D01*
X101338095Y-99844523D02*
X101242857Y-99939761D01*
X101242857Y-99939761D02*
X101100000Y-99987380D01*
X101100000Y-99987380D02*
X100861905Y-99987380D01*
X102338095Y-98987380D02*
X101861905Y-98987380D01*
X101861905Y-98987380D02*
X101814286Y-99463571D01*
X101814286Y-99463571D02*
X101861905Y-99415952D01*
X101861905Y-99415952D02*
X101957143Y-99368333D01*
X101957143Y-99368333D02*
X102195238Y-99368333D01*
X102195238Y-99368333D02*
X102290476Y-99415952D01*
X102290476Y-99415952D02*
X102338095Y-99463571D01*
X102338095Y-99463571D02*
X102385714Y-99558809D01*
X102385714Y-99558809D02*
X102385714Y-99796904D01*
X102385714Y-99796904D02*
X102338095Y-99892142D01*
X102338095Y-99892142D02*
X102290476Y-99939761D01*
X102290476Y-99939761D02*
X102195238Y-99987380D01*
X102195238Y-99987380D02*
X101957143Y-99987380D01*
X101957143Y-99987380D02*
X101861905Y-99939761D01*
X101861905Y-99939761D02*
X101814286Y-99892142D01*
%TO.C,R9*%
X109978333Y-129687380D02*
X109645000Y-129211190D01*
X109406905Y-129687380D02*
X109406905Y-128687380D01*
X109406905Y-128687380D02*
X109787857Y-128687380D01*
X109787857Y-128687380D02*
X109883095Y-128735000D01*
X109883095Y-128735000D02*
X109930714Y-128782619D01*
X109930714Y-128782619D02*
X109978333Y-128877857D01*
X109978333Y-128877857D02*
X109978333Y-129020714D01*
X109978333Y-129020714D02*
X109930714Y-129115952D01*
X109930714Y-129115952D02*
X109883095Y-129163571D01*
X109883095Y-129163571D02*
X109787857Y-129211190D01*
X109787857Y-129211190D02*
X109406905Y-129211190D01*
X110454524Y-129687380D02*
X110645000Y-129687380D01*
X110645000Y-129687380D02*
X110740238Y-129639761D01*
X110740238Y-129639761D02*
X110787857Y-129592142D01*
X110787857Y-129592142D02*
X110883095Y-129449285D01*
X110883095Y-129449285D02*
X110930714Y-129258809D01*
X110930714Y-129258809D02*
X110930714Y-128877857D01*
X110930714Y-128877857D02*
X110883095Y-128782619D01*
X110883095Y-128782619D02*
X110835476Y-128735000D01*
X110835476Y-128735000D02*
X110740238Y-128687380D01*
X110740238Y-128687380D02*
X110549762Y-128687380D01*
X110549762Y-128687380D02*
X110454524Y-128735000D01*
X110454524Y-128735000D02*
X110406905Y-128782619D01*
X110406905Y-128782619D02*
X110359286Y-128877857D01*
X110359286Y-128877857D02*
X110359286Y-129115952D01*
X110359286Y-129115952D02*
X110406905Y-129211190D01*
X110406905Y-129211190D02*
X110454524Y-129258809D01*
X110454524Y-129258809D02*
X110549762Y-129306428D01*
X110549762Y-129306428D02*
X110740238Y-129306428D01*
X110740238Y-129306428D02*
X110835476Y-129258809D01*
X110835476Y-129258809D02*
X110883095Y-129211190D01*
X110883095Y-129211190D02*
X110930714Y-129115952D01*
%TO.C,R5*%
X117623333Y-80157380D02*
X117290000Y-79681190D01*
X117051905Y-80157380D02*
X117051905Y-79157380D01*
X117051905Y-79157380D02*
X117432857Y-79157380D01*
X117432857Y-79157380D02*
X117528095Y-79205000D01*
X117528095Y-79205000D02*
X117575714Y-79252619D01*
X117575714Y-79252619D02*
X117623333Y-79347857D01*
X117623333Y-79347857D02*
X117623333Y-79490714D01*
X117623333Y-79490714D02*
X117575714Y-79585952D01*
X117575714Y-79585952D02*
X117528095Y-79633571D01*
X117528095Y-79633571D02*
X117432857Y-79681190D01*
X117432857Y-79681190D02*
X117051905Y-79681190D01*
X118528095Y-79157380D02*
X118051905Y-79157380D01*
X118051905Y-79157380D02*
X118004286Y-79633571D01*
X118004286Y-79633571D02*
X118051905Y-79585952D01*
X118051905Y-79585952D02*
X118147143Y-79538333D01*
X118147143Y-79538333D02*
X118385238Y-79538333D01*
X118385238Y-79538333D02*
X118480476Y-79585952D01*
X118480476Y-79585952D02*
X118528095Y-79633571D01*
X118528095Y-79633571D02*
X118575714Y-79728809D01*
X118575714Y-79728809D02*
X118575714Y-79966904D01*
X118575714Y-79966904D02*
X118528095Y-80062142D01*
X118528095Y-80062142D02*
X118480476Y-80109761D01*
X118480476Y-80109761D02*
X118385238Y-80157380D01*
X118385238Y-80157380D02*
X118147143Y-80157380D01*
X118147143Y-80157380D02*
X118051905Y-80109761D01*
X118051905Y-80109761D02*
X118004286Y-80062142D01*
D12*
%TO.C,D8*%
X99670000Y-117550000D02*
X103530000Y-117550000D01*
X99670000Y-121400000D02*
X99670000Y-117550000D01*
X103000000Y-121400000D02*
X99670000Y-121400000D01*
X103530000Y-117550000D02*
X103530000Y-121400000D01*
%TO.C,D10*%
X99670000Y-132270000D02*
X103530000Y-132270000D01*
X99670000Y-136120000D02*
X99670000Y-132270000D01*
X103000000Y-136120000D02*
X99670000Y-136120000D01*
X103530000Y-132270000D02*
X103530000Y-136120000D01*
%TO.C,SW1*%
X180680000Y-74500000D02*
X180680000Y-74620000D01*
X180680000Y-75630000D02*
X180680000Y-76770000D01*
X180680000Y-77780000D02*
X180680000Y-77900000D01*
X180680000Y-77900000D02*
X185080000Y-77900000D01*
X185080000Y-74500000D02*
X180680000Y-74500000D01*
X185080000Y-74620000D02*
X185080000Y-74500000D01*
X185080000Y-76770000D02*
X185080000Y-75630000D01*
X185080000Y-77900000D02*
X185080000Y-77780000D01*
%TO.C,D7*%
X99670000Y-109930000D02*
X103530000Y-109930000D01*
X99670000Y-113780000D02*
X99670000Y-109930000D01*
X103000000Y-113780000D02*
X99670000Y-113780000D01*
X103530000Y-109930000D02*
X103530000Y-113780000D01*
%TO.C,J1*%
X128210000Y-67250000D02*
X128210000Y-130870000D01*
X128210000Y-67250000D02*
X130810000Y-67250000D01*
X128210000Y-130870000D02*
X133410000Y-130870000D01*
X130810000Y-67250000D02*
X130810000Y-69850000D01*
X130810000Y-69850000D02*
X133410000Y-69850000D01*
X132080000Y-67250000D02*
X133410000Y-67250000D01*
X133410000Y-67250000D02*
X133410000Y-68580000D01*
X133410000Y-69850000D02*
X133410000Y-130870000D01*
%TO.C,SW2*%
X185080000Y-90600000D02*
X185080000Y-90480000D01*
X185080000Y-89470000D02*
X185080000Y-88330000D01*
X185080000Y-87320000D02*
X185080000Y-87200000D01*
X185080000Y-87200000D02*
X180680000Y-87200000D01*
X180680000Y-90600000D02*
X185080000Y-90600000D01*
X180680000Y-90480000D02*
X180680000Y-90600000D01*
X180680000Y-88330000D02*
X180680000Y-89470000D01*
X180680000Y-87200000D02*
X180680000Y-87320000D01*
%TO.C,D2*%
X99670000Y-71830000D02*
X103530000Y-71830000D01*
X99670000Y-75680000D02*
X99670000Y-71830000D01*
X103000000Y-75680000D02*
X99670000Y-75680000D01*
X103530000Y-71830000D02*
X103530000Y-75680000D01*
%TO.C,D1*%
X99670000Y-64210000D02*
X103530000Y-64210000D01*
X99670000Y-68060000D02*
X99670000Y-64210000D01*
X103000000Y-68060000D02*
X99670000Y-68060000D01*
X103530000Y-64210000D02*
X103530000Y-68060000D01*
%TO.C,D9*%
X99670000Y-125170000D02*
X103530000Y-125170000D01*
X99670000Y-129020000D02*
X99670000Y-125170000D01*
X103000000Y-129020000D02*
X99670000Y-129020000D01*
X103530000Y-125170000D02*
X103530000Y-129020000D01*
%TO.C,D6*%
X99670000Y-102310000D02*
X103530000Y-102310000D01*
X99670000Y-106160000D02*
X99670000Y-102310000D01*
X103000000Y-106160000D02*
X99670000Y-106160000D01*
X103530000Y-102310000D02*
X103530000Y-106160000D01*
%TO.C,J2*%
X161230000Y-67250000D02*
X161230000Y-130870000D01*
X161230000Y-67250000D02*
X163830000Y-67250000D01*
X161230000Y-130870000D02*
X166430000Y-130870000D01*
X163830000Y-67250000D02*
X163830000Y-69850000D01*
X163830000Y-69850000D02*
X166430000Y-69850000D01*
X165100000Y-67250000D02*
X166430000Y-67250000D01*
X166430000Y-67250000D02*
X166430000Y-68580000D01*
X166430000Y-69850000D02*
X166430000Y-130870000D01*
%TO.C,D3*%
X99670000Y-79450000D02*
X103530000Y-79450000D01*
X99670000Y-83300000D02*
X99670000Y-79450000D01*
X103000000Y-83300000D02*
X99670000Y-83300000D01*
X103530000Y-79450000D02*
X103530000Y-83300000D01*
%TO.C,D4*%
X99670000Y-86550000D02*
X103530000Y-86550000D01*
X99670000Y-90400000D02*
X99670000Y-86550000D01*
X103000000Y-90400000D02*
X99670000Y-90400000D01*
X103530000Y-86550000D02*
X103530000Y-90400000D01*
%TO.C,D5*%
X99670000Y-94690000D02*
X103530000Y-94690000D01*
X99670000Y-98540000D02*
X99670000Y-94690000D01*
X103000000Y-98540000D02*
X99670000Y-98540000D01*
X103530000Y-94690000D02*
X103530000Y-98540000D01*
%TD*%
M02*
