%TF.GenerationSoftware,KiCad,Pcbnew,(7.0.0)*%
%TF.CreationDate,2023-05-31T23:53:27-06:00*%
%TF.ProjectId,Final Project - Shield (2),46696e61-6c20-4507-926f-6a656374202d,rev?*%
%TF.SameCoordinates,Original*%
%TF.FileFunction,Soldermask,Bot*%
%TF.FilePolarity,Negative*%
%FSLAX46Y46*%
G04 Gerber Fmt 4.6, Leading zero omitted, Abs format (unit mm)*
G04 Created by KiCad (PCBNEW (7.0.0)) date 2023-05-31 23:53:27*
%MOMM*%
%LPD*%
G01*
G04 APERTURE LIST*
%ADD10C,6.400000*%
%ADD11R,1.700000X1.700000*%
%ADD12O,1.700000X1.700000*%
G04 APERTURE END LIST*
D10*
%TO.C,H2*%
X190500000Y-53340000D03*
%TD*%
D11*
%TO.C,J1*%
X132079999Y-68579999D03*
D12*
X129539999Y-68579999D03*
X132079999Y-71119999D03*
X129539999Y-71119999D03*
X132079999Y-73659999D03*
X129539999Y-73659999D03*
X132079999Y-76199999D03*
X129539999Y-76199999D03*
X132079999Y-78739999D03*
X129539999Y-78739999D03*
X132079999Y-81279999D03*
X129539999Y-81279999D03*
X132079999Y-83819999D03*
X129539999Y-83819999D03*
X132079999Y-86359999D03*
X129539999Y-86359999D03*
X132079999Y-88899999D03*
X129539999Y-88899999D03*
X132079999Y-91439999D03*
X129539999Y-91439999D03*
X132079999Y-93979999D03*
X129539999Y-93979999D03*
X132079999Y-96519999D03*
X129539999Y-96519999D03*
X132079999Y-99059999D03*
X129539999Y-99059999D03*
X132079999Y-101599999D03*
X129539999Y-101599999D03*
X132079999Y-104139999D03*
X129539999Y-104139999D03*
X132079999Y-106679999D03*
X129539999Y-106679999D03*
X132079999Y-109219999D03*
X129539999Y-109219999D03*
X132079999Y-111759999D03*
X129539999Y-111759999D03*
X132079999Y-114299999D03*
X129539999Y-114299999D03*
X132079999Y-116839999D03*
X129539999Y-116839999D03*
X132079999Y-119379999D03*
X129539999Y-119379999D03*
X132079999Y-121919999D03*
X129539999Y-121919999D03*
X132079999Y-124459999D03*
X129539999Y-124459999D03*
X132079999Y-126999999D03*
X129539999Y-126999999D03*
X132079999Y-129539999D03*
X129539999Y-129539999D03*
%TD*%
D10*
%TO.C,H4*%
X191770000Y-137160000D03*
%TD*%
%TO.C,H1*%
X91440000Y-54610000D03*
%TD*%
D11*
%TO.C,J2*%
X165099999Y-68579999D03*
D12*
X162559999Y-68579999D03*
X165099999Y-71119999D03*
X162559999Y-71119999D03*
X165099999Y-73659999D03*
X162559999Y-73659999D03*
X165099999Y-76199999D03*
X162559999Y-76199999D03*
X165099999Y-78739999D03*
X162559999Y-78739999D03*
X165099999Y-81279999D03*
X162559999Y-81279999D03*
X165099999Y-83819999D03*
X162559999Y-83819999D03*
X165099999Y-86359999D03*
X162559999Y-86359999D03*
X165099999Y-88899999D03*
X162559999Y-88899999D03*
X165099999Y-91439999D03*
X162559999Y-91439999D03*
X165099999Y-93979999D03*
X162559999Y-93979999D03*
X165099999Y-96519999D03*
X162559999Y-96519999D03*
X165099999Y-99059999D03*
X162559999Y-99059999D03*
X165099999Y-101599999D03*
X162559999Y-101599999D03*
X165099999Y-104139999D03*
X162559999Y-104139999D03*
X165099999Y-106679999D03*
X162559999Y-106679999D03*
X165099999Y-109219999D03*
X162559999Y-109219999D03*
X165099999Y-111759999D03*
X162559999Y-111759999D03*
X165099999Y-114299999D03*
X162559999Y-114299999D03*
X165099999Y-116839999D03*
X162559999Y-116839999D03*
X165099999Y-119379999D03*
X162559999Y-119379999D03*
X165099999Y-121919999D03*
X162559999Y-121919999D03*
X165099999Y-124459999D03*
X162559999Y-124459999D03*
X165099999Y-126999999D03*
X162559999Y-126999999D03*
X165099999Y-129539999D03*
X162559999Y-129539999D03*
%TD*%
D10*
%TO.C,H3*%
X91440000Y-137160000D03*
%TD*%
M02*
