%TF.GenerationSoftware,KiCad,Pcbnew,(7.0.0)*%
%TF.CreationDate,2023-05-31T23:53:27-06:00*%
%TF.ProjectId,Final Project - Shield (2),46696e61-6c20-4507-926f-6a656374202d,rev?*%
%TF.SameCoordinates,Original*%
%TF.FileFunction,Copper,L2,Bot*%
%TF.FilePolarity,Positive*%
%FSLAX46Y46*%
G04 Gerber Fmt 4.6, Leading zero omitted, Abs format (unit mm)*
G04 Created by KiCad (PCBNEW (7.0.0)) date 2023-05-31 23:53:27*
%MOMM*%
%LPD*%
G01*
G04 APERTURE LIST*
%TA.AperFunction,NonConductor*%
%ADD10C,0.200000*%
%TD*%
%TA.AperFunction,ComponentPad*%
%ADD11C,6.400000*%
%TD*%
%TA.AperFunction,ComponentPad*%
%ADD12R,1.700000X1.700000*%
%TD*%
%TA.AperFunction,ComponentPad*%
%ADD13O,1.700000X1.700000*%
%TD*%
%TA.AperFunction,ViaPad*%
%ADD14C,0.600000*%
%TD*%
%TA.AperFunction,Conductor*%
%ADD15C,0.200000*%
%TD*%
G04 APERTURE END LIST*
D10*
X85090000Y-46990000D02*
X196850000Y-46990000D01*
X196850000Y-46990000D02*
X196850000Y-143510000D01*
X196850000Y-143510000D02*
X85090000Y-143510000D01*
X85090000Y-143510000D02*
X85090000Y-46990000D01*
D11*
%TO.P,H2,1*%
%TO.N,N/C*%
X190500000Y-53340000D03*
%TD*%
D12*
%TO.P,J1,1,Pin_1*%
%TO.N,GND*%
X132079999Y-68579999D03*
D13*
%TO.P,J1,2,Pin_2*%
X129539999Y-68579999D03*
%TO.P,J1,3,Pin_3*%
%TO.N,unconnected-(J1-Pin_3-Pad3)*%
X132079999Y-71119999D03*
%TO.P,J1,4,Pin_4*%
%TO.N,unconnected-(J1-Pin_4-Pad4)*%
X129539999Y-71119999D03*
%TO.P,J1,5,Pin_5*%
%TO.N,unconnected-(J1-Pin_5-Pad5)*%
X132079999Y-73659999D03*
%TO.P,J1,6,Pin_6*%
%TO.N,GND*%
X129539999Y-73659999D03*
%TO.P,J1,7,Pin_7*%
%TO.N,unconnected-(J1-Pin_7-Pad7)*%
X132079999Y-76199999D03*
%TO.P,J1,8,Pin_8*%
%TO.N,unconnected-(J1-Pin_8-Pad8)*%
X129539999Y-76199999D03*
%TO.P,J1,9,Pin_9*%
%TO.N,unconnected-(J1-Pin_9-Pad9)*%
X132079999Y-78739999D03*
%TO.P,J1,10,Pin_10*%
%TO.N,unconnected-(J1-Pin_10-Pad10)*%
X129539999Y-78739999D03*
%TO.P,J1,11,Pin_11*%
%TO.N,unconnected-(J1-Pin_11-Pad11)*%
X132079999Y-81279999D03*
%TO.P,J1,12,Pin_12*%
%TO.N,B1*%
X129539999Y-81279999D03*
%TO.P,J1,13,Pin_13*%
%TO.N,B2*%
X132079999Y-83819999D03*
%TO.P,J1,14,Pin_14*%
%TO.N,LD1*%
X129539999Y-83819999D03*
%TO.P,J1,15,Pin_15*%
%TO.N,unconnected-(J1-Pin_15-Pad15)*%
X132079999Y-86359999D03*
%TO.P,J1,16,Pin_16*%
%TO.N,LD2*%
X129539999Y-86359999D03*
%TO.P,J1,17,Pin_17*%
%TO.N,unconnected-(J1-Pin_17-Pad17)*%
X132079999Y-88899999D03*
%TO.P,J1,18,Pin_18*%
%TO.N,LD3*%
X129539999Y-88899999D03*
%TO.P,J1,19,Pin_19*%
%TO.N,unconnected-(J1-Pin_19-Pad19)*%
X132079999Y-91439999D03*
%TO.P,J1,20,Pin_20*%
%TO.N,LD4*%
X129539999Y-91439999D03*
%TO.P,J1,21,Pin_21*%
%TO.N,unconnected-(J1-Pin_21-Pad21)*%
X132079999Y-93979999D03*
%TO.P,J1,22,Pin_22*%
%TO.N,LD5*%
X129539999Y-93979999D03*
%TO.P,J1,23,Pin_23*%
%TO.N,unconnected-(J1-Pin_23-Pad23)*%
X132079999Y-96519999D03*
%TO.P,J1,24,Pin_24*%
%TO.N,GND*%
X129539999Y-96519999D03*
%TO.P,J1,25,Pin_25*%
%TO.N,unconnected-(J1-Pin_25-Pad25)*%
X132079999Y-99059999D03*
%TO.P,J1,26,Pin_26*%
%TO.N,LD6*%
X129539999Y-99059999D03*
%TO.P,J1,27,Pin_27*%
%TO.N,unconnected-(J1-Pin_27-Pad27)*%
X132079999Y-101599999D03*
%TO.P,J1,28,Pin_28*%
%TO.N,LD7*%
X129539999Y-101599999D03*
%TO.P,J1,29,Pin_29*%
%TO.N,unconnected-(J1-Pin_29-Pad29)*%
X132079999Y-104139999D03*
%TO.P,J1,30,Pin_30*%
%TO.N,LD8*%
X129539999Y-104139999D03*
%TO.P,J1,31,Pin_31*%
%TO.N,unconnected-(J1-Pin_31-Pad31)*%
X132079999Y-106679999D03*
%TO.P,J1,32,Pin_32*%
%TO.N,LD9*%
X129539999Y-106679999D03*
%TO.P,J1,33,Pin_33*%
%TO.N,unconnected-(J1-Pin_33-Pad33)*%
X132079999Y-109219999D03*
%TO.P,J1,34,Pin_34*%
%TO.N,LD10*%
X129539999Y-109219999D03*
%TO.P,J1,35,Pin_35*%
%TO.N,unconnected-(J1-Pin_35-Pad35)*%
X132079999Y-111759999D03*
%TO.P,J1,36,Pin_36*%
%TO.N,unconnected-(J1-Pin_36-Pad36)*%
X129539999Y-111759999D03*
%TO.P,J1,37,Pin_37*%
%TO.N,unconnected-(J1-Pin_37-Pad37)*%
X132079999Y-114299999D03*
%TO.P,J1,38,Pin_38*%
%TO.N,unconnected-(J1-Pin_38-Pad38)*%
X129539999Y-114299999D03*
%TO.P,J1,39,Pin_39*%
%TO.N,unconnected-(J1-Pin_39-Pad39)*%
X132079999Y-116839999D03*
%TO.P,J1,40,Pin_40*%
%TO.N,unconnected-(J1-Pin_40-Pad40)*%
X129539999Y-116839999D03*
%TO.P,J1,41,Pin_41*%
%TO.N,unconnected-(J1-Pin_41-Pad41)*%
X132079999Y-119379999D03*
%TO.P,J1,42,Pin_42*%
%TO.N,unconnected-(J1-Pin_42-Pad42)*%
X129539999Y-119379999D03*
%TO.P,J1,43,Pin_43*%
%TO.N,unconnected-(J1-Pin_43-Pad43)*%
X132079999Y-121919999D03*
%TO.P,J1,44,Pin_44*%
%TO.N,unconnected-(J1-Pin_44-Pad44)*%
X129539999Y-121919999D03*
%TO.P,J1,45,Pin_45*%
%TO.N,unconnected-(J1-Pin_45-Pad45)*%
X132079999Y-124459999D03*
%TO.P,J1,46,Pin_46*%
%TO.N,unconnected-(J1-Pin_46-Pad46)*%
X129539999Y-124459999D03*
%TO.P,J1,47,Pin_47*%
%TO.N,unconnected-(J1-Pin_47-Pad47)*%
X132079999Y-126999999D03*
%TO.P,J1,48,Pin_48*%
%TO.N,unconnected-(J1-Pin_48-Pad48)*%
X129539999Y-126999999D03*
%TO.P,J1,49,Pin_49*%
%TO.N,GND*%
X132079999Y-129539999D03*
%TO.P,J1,50,Pin_50*%
X129539999Y-129539999D03*
%TD*%
D11*
%TO.P,H4,1*%
%TO.N,N/C*%
X191770000Y-137160000D03*
%TD*%
%TO.P,H1,1*%
%TO.N,N/C*%
X91440000Y-54610000D03*
%TD*%
D12*
%TO.P,J2,1,Pin_1*%
%TO.N,GND*%
X165099999Y-68579999D03*
D13*
%TO.P,J2,2,Pin_2*%
X162559999Y-68579999D03*
%TO.P,J2,3,Pin_3*%
%TO.N,+5V*%
X165099999Y-71119999D03*
%TO.P,J2,4,Pin_4*%
X162559999Y-71119999D03*
%TO.P,J2,5,Pin_5*%
%TO.N,+3V0*%
X165099999Y-73659999D03*
%TO.P,J2,6,Pin_6*%
X162559999Y-73659999D03*
%TO.P,J2,7,Pin_7*%
%TO.N,unconnected-(J2-Pin_7-Pad7)*%
X165099999Y-76199999D03*
%TO.P,J2,8,Pin_8*%
%TO.N,unconnected-(J2-Pin_8-Pad8)*%
X162559999Y-76199999D03*
%TO.P,J2,9,Pin_9*%
%TO.N,unconnected-(J2-Pin_9-Pad9)*%
X165099999Y-78739999D03*
%TO.P,J2,10,Pin_10*%
%TO.N,unconnected-(J2-Pin_10-Pad10)*%
X162559999Y-78739999D03*
%TO.P,J2,11,Pin_11*%
%TO.N,unconnected-(J2-Pin_11-Pad11)*%
X165099999Y-81279999D03*
%TO.P,J2,12,Pin_12*%
%TO.N,unconnected-(J2-Pin_12-Pad12)*%
X162559999Y-81279999D03*
%TO.P,J2,13,Pin_13*%
%TO.N,unconnected-(J2-Pin_13-Pad13)*%
X165099999Y-83819999D03*
%TO.P,J2,14,Pin_14*%
%TO.N,unconnected-(J2-Pin_14-Pad14)*%
X162559999Y-83819999D03*
%TO.P,J2,15,Pin_15*%
%TO.N,unconnected-(J2-Pin_15-Pad15)*%
X165099999Y-86359999D03*
%TO.P,J2,16,Pin_16*%
%TO.N,unconnected-(J2-Pin_16-Pad16)*%
X162559999Y-86359999D03*
%TO.P,J2,17,Pin_17*%
%TO.N,unconnected-(J2-Pin_17-Pad17)*%
X165099999Y-88899999D03*
%TO.P,J2,18,Pin_18*%
%TO.N,unconnected-(J2-Pin_18-Pad18)*%
X162559999Y-88899999D03*
%TO.P,J2,19,Pin_19*%
%TO.N,unconnected-(J2-Pin_19-Pad19)*%
X165099999Y-91439999D03*
%TO.P,J2,20,Pin_20*%
%TO.N,unconnected-(J2-Pin_20-Pad20)*%
X162559999Y-91439999D03*
%TO.P,J2,21,Pin_21*%
%TO.N,unconnected-(J2-Pin_21-Pad21)*%
X165099999Y-93979999D03*
%TO.P,J2,22,Pin_22*%
%TO.N,unconnected-(J2-Pin_22-Pad22)*%
X162559999Y-93979999D03*
%TO.P,J2,23,Pin_23*%
%TO.N,unconnected-(J2-Pin_23-Pad23)*%
X165099999Y-96519999D03*
%TO.P,J2,24,Pin_24*%
%TO.N,unconnected-(J2-Pin_24-Pad24)*%
X162559999Y-96519999D03*
%TO.P,J2,25,Pin_25*%
%TO.N,unconnected-(J2-Pin_25-Pad25)*%
X165099999Y-99059999D03*
%TO.P,J2,26,Pin_26*%
%TO.N,unconnected-(J2-Pin_26-Pad26)*%
X162559999Y-99059999D03*
%TO.P,J2,27,Pin_27*%
%TO.N,unconnected-(J2-Pin_27-Pad27)*%
X165099999Y-101599999D03*
%TO.P,J2,28,Pin_28*%
%TO.N,unconnected-(J2-Pin_28-Pad28)*%
X162559999Y-101599999D03*
%TO.P,J2,29,Pin_29*%
%TO.N,unconnected-(J2-Pin_29-Pad29)*%
X165099999Y-104139999D03*
%TO.P,J2,30,Pin_30*%
%TO.N,unconnected-(J2-Pin_30-Pad30)*%
X162559999Y-104139999D03*
%TO.P,J2,31,Pin_31*%
%TO.N,unconnected-(J2-Pin_31-Pad31)*%
X165099999Y-106679999D03*
%TO.P,J2,32,Pin_32*%
%TO.N,unconnected-(J2-Pin_32-Pad32)*%
X162559999Y-106679999D03*
%TO.P,J2,33,Pin_33*%
%TO.N,unconnected-(J2-Pin_33-Pad33)*%
X165099999Y-109219999D03*
%TO.P,J2,34,Pin_34*%
%TO.N,unconnected-(J2-Pin_34-Pad34)*%
X162559999Y-109219999D03*
%TO.P,J2,35,Pin_35*%
%TO.N,unconnected-(J2-Pin_35-Pad35)*%
X165099999Y-111759999D03*
%TO.P,J2,36,Pin_36*%
%TO.N,unconnected-(J2-Pin_36-Pad36)*%
X162559999Y-111759999D03*
%TO.P,J2,37,Pin_37*%
%TO.N,unconnected-(J2-Pin_37-Pad37)*%
X165099999Y-114299999D03*
%TO.P,J2,38,Pin_38*%
%TO.N,unconnected-(J2-Pin_38-Pad38)*%
X162559999Y-114299999D03*
%TO.P,J2,39,Pin_39*%
%TO.N,unconnected-(J2-Pin_39-Pad39)*%
X165099999Y-116839999D03*
%TO.P,J2,40,Pin_40*%
%TO.N,unconnected-(J2-Pin_40-Pad40)*%
X162559999Y-116839999D03*
%TO.P,J2,41,Pin_41*%
%TO.N,unconnected-(J2-Pin_41-Pad41)*%
X165099999Y-119379999D03*
%TO.P,J2,42,Pin_42*%
%TO.N,unconnected-(J2-Pin_42-Pad42)*%
X162559999Y-119379999D03*
%TO.P,J2,43,Pin_43*%
%TO.N,unconnected-(J2-Pin_43-Pad43)*%
X165099999Y-121919999D03*
%TO.P,J2,44,Pin_44*%
%TO.N,unconnected-(J2-Pin_44-Pad44)*%
X162559999Y-121919999D03*
%TO.P,J2,45,Pin_45*%
%TO.N,unconnected-(J2-Pin_45-Pad45)*%
X165099999Y-124459999D03*
%TO.P,J2,46,Pin_46*%
%TO.N,unconnected-(J2-Pin_46-Pad46)*%
X162559999Y-124459999D03*
%TO.P,J2,47,Pin_47*%
%TO.N,unconnected-(J2-Pin_47-Pad47)*%
X165099999Y-126999999D03*
%TO.P,J2,48,Pin_48*%
%TO.N,unconnected-(J2-Pin_48-Pad48)*%
X162559999Y-126999999D03*
%TO.P,J2,49,Pin_49*%
%TO.N,GND*%
X165099999Y-129539999D03*
%TO.P,J2,50,Pin_50*%
X162559999Y-129539999D03*
%TD*%
D11*
%TO.P,H3,1*%
%TO.N,N/C*%
X91440000Y-137160000D03*
%TD*%
D14*
%TO.N,Net-(D2-K)*%
X106230000Y-73890000D03*
X111310000Y-68810000D03*
%TO.N,Net-(D3-K)*%
X111760000Y-76200000D03*
X106680000Y-81280000D03*
%TO.N,Net-(D4-K)*%
X113030000Y-77470000D03*
X105410000Y-88900000D03*
%TO.N,Net-(D5-K)*%
X115570000Y-80010000D03*
X104140000Y-96520000D03*
%TO.N,Net-(D6-K)*%
X116840000Y-116840000D03*
X105410000Y-105410000D03*
%TO.N,Net-(D7-K)*%
X113030000Y-120650000D03*
X105410000Y-113030000D03*
%TO.N,Net-(D8-K)*%
X105410000Y-119380000D03*
X110490000Y-124460000D03*
%TO.N,Net-(D9-K)*%
X106680000Y-125730000D03*
X105410000Y-124460000D03*
%TO.N,GND*%
X170180000Y-76200000D03*
X170180000Y-78740000D03*
X173990000Y-68580000D03*
X181610000Y-68580000D03*
%TO.N,B1*%
X127000000Y-67310000D03*
X127000000Y-69850000D03*
%TO.N,B2*%
X175260000Y-78740000D03*
X175260000Y-76200000D03*
%TD*%
D15*
%TO.N,Net-(D2-K)*%
X106230000Y-73890000D02*
X111310000Y-68810000D01*
%TO.N,Net-(D3-K)*%
X106680000Y-81280000D02*
X111760000Y-76200000D01*
%TO.N,Net-(D4-K)*%
X113030000Y-77470000D02*
X113030000Y-81280000D01*
X113030000Y-81280000D02*
X105410000Y-88900000D01*
%TO.N,Net-(D5-K)*%
X115570000Y-85090000D02*
X104140000Y-96520000D01*
X115570000Y-80010000D02*
X115570000Y-85090000D01*
%TO.N,Net-(D6-K)*%
X105410000Y-105410000D02*
X116840000Y-116840000D01*
%TO.N,Net-(D7-K)*%
X105410000Y-113030000D02*
X113030000Y-120650000D01*
%TO.N,Net-(D8-K)*%
X105410000Y-119380000D02*
X110490000Y-124460000D01*
%TO.N,Net-(D9-K)*%
X105410000Y-124460000D02*
X106680000Y-125730000D01*
%TO.N,GND*%
X181610000Y-68580000D02*
X173990000Y-68580000D01*
X170180000Y-78740000D02*
X170180000Y-76200000D01*
%TO.N,B1*%
X127000000Y-67310000D02*
X127000000Y-69850000D01*
%TO.N,B2*%
X175260000Y-76200000D02*
X175260000Y-78740000D01*
%TD*%
%TA.AperFunction,Conductor*%
%TO.N,GND*%
G36*
X196187500Y-47607113D02*
G01*
X196232887Y-47652500D01*
X196249500Y-47714500D01*
X196249500Y-142785500D01*
X196232887Y-142847500D01*
X196187500Y-142892887D01*
X196125500Y-142909500D01*
X85814500Y-142909500D01*
X85752500Y-142892887D01*
X85707113Y-142847500D01*
X85690500Y-142785500D01*
X85690500Y-137160000D01*
X87734422Y-137160000D01*
X87754722Y-137547338D01*
X87755227Y-137550531D01*
X87755229Y-137550543D01*
X87814889Y-137927224D01*
X87814891Y-137927237D01*
X87815398Y-137930433D01*
X87915786Y-138305087D01*
X88054786Y-138667194D01*
X88056255Y-138670077D01*
X88056259Y-138670086D01*
X88229400Y-139009895D01*
X88230875Y-139012789D01*
X88442124Y-139338084D01*
X88686219Y-139639516D01*
X88960484Y-139913781D01*
X89261916Y-140157876D01*
X89587211Y-140369125D01*
X89932806Y-140545214D01*
X90294913Y-140684214D01*
X90669567Y-140784602D01*
X91052662Y-140845278D01*
X91440000Y-140865578D01*
X91827338Y-140845278D01*
X92210433Y-140784602D01*
X92585087Y-140684214D01*
X92947194Y-140545214D01*
X93292789Y-140369125D01*
X93618084Y-140157876D01*
X93919516Y-139913781D01*
X94193781Y-139639516D01*
X94437876Y-139338084D01*
X94649125Y-139012789D01*
X94825214Y-138667194D01*
X94964214Y-138305087D01*
X95064602Y-137930433D01*
X95125278Y-137547338D01*
X95145578Y-137160000D01*
X188064422Y-137160000D01*
X188084722Y-137547338D01*
X188085227Y-137550531D01*
X188085229Y-137550543D01*
X188144889Y-137927224D01*
X188144891Y-137927237D01*
X188145398Y-137930433D01*
X188245786Y-138305087D01*
X188384786Y-138667194D01*
X188386255Y-138670077D01*
X188386259Y-138670086D01*
X188559400Y-139009895D01*
X188560875Y-139012789D01*
X188772124Y-139338084D01*
X189016219Y-139639516D01*
X189290484Y-139913781D01*
X189591916Y-140157876D01*
X189917211Y-140369125D01*
X190262806Y-140545214D01*
X190624913Y-140684214D01*
X190999567Y-140784602D01*
X191382662Y-140845278D01*
X191770000Y-140865578D01*
X192157338Y-140845278D01*
X192540433Y-140784602D01*
X192915087Y-140684214D01*
X193277194Y-140545214D01*
X193622789Y-140369125D01*
X193948084Y-140157876D01*
X194249516Y-139913781D01*
X194523781Y-139639516D01*
X194767876Y-139338084D01*
X194979125Y-139012789D01*
X195155214Y-138667194D01*
X195294214Y-138305087D01*
X195394602Y-137930433D01*
X195455278Y-137547338D01*
X195475578Y-137160000D01*
X195455278Y-136772662D01*
X195394602Y-136389567D01*
X195294214Y-136014913D01*
X195155214Y-135652806D01*
X194979125Y-135307211D01*
X194767876Y-134981916D01*
X194523781Y-134680484D01*
X194249516Y-134406219D01*
X193948084Y-134162124D01*
X193622789Y-133950875D01*
X193619901Y-133949403D01*
X193619895Y-133949400D01*
X193280086Y-133776259D01*
X193280077Y-133776255D01*
X193277194Y-133774786D01*
X193274162Y-133773622D01*
X192918110Y-133636946D01*
X192918102Y-133636943D01*
X192915087Y-133635786D01*
X192911962Y-133634948D01*
X192911957Y-133634947D01*
X192543566Y-133536237D01*
X192543557Y-133536235D01*
X192540433Y-133535398D01*
X192537237Y-133534891D01*
X192537224Y-133534889D01*
X192160543Y-133475229D01*
X192160531Y-133475227D01*
X192157338Y-133474722D01*
X192154103Y-133474552D01*
X192154099Y-133474552D01*
X191773244Y-133454592D01*
X191770000Y-133454422D01*
X191766756Y-133454592D01*
X191385900Y-133474552D01*
X191385894Y-133474552D01*
X191382662Y-133474722D01*
X191379470Y-133475227D01*
X191379456Y-133475229D01*
X191002775Y-133534889D01*
X191002758Y-133534892D01*
X190999567Y-133535398D01*
X190996446Y-133536234D01*
X190996433Y-133536237D01*
X190628042Y-133634947D01*
X190628031Y-133634950D01*
X190624913Y-133635786D01*
X190621902Y-133636941D01*
X190621889Y-133636946D01*
X190265837Y-133773622D01*
X190265828Y-133773625D01*
X190262806Y-133774786D01*
X190259929Y-133776251D01*
X190259913Y-133776259D01*
X189920104Y-133949400D01*
X189920090Y-133949408D01*
X189917211Y-133950875D01*
X189914491Y-133952641D01*
X189914483Y-133952646D01*
X189594644Y-134160352D01*
X189594638Y-134160355D01*
X189591916Y-134162124D01*
X189589396Y-134164164D01*
X189589390Y-134164169D01*
X189293002Y-134404179D01*
X189292991Y-134404188D01*
X189290484Y-134406219D01*
X189288199Y-134408503D01*
X189288189Y-134408513D01*
X189018513Y-134678189D01*
X189018503Y-134678199D01*
X189016219Y-134680484D01*
X189014188Y-134682991D01*
X189014179Y-134683002D01*
X188774169Y-134979390D01*
X188774164Y-134979396D01*
X188772124Y-134981916D01*
X188770355Y-134984638D01*
X188770352Y-134984644D01*
X188562646Y-135304483D01*
X188562641Y-135304491D01*
X188560875Y-135307211D01*
X188559408Y-135310090D01*
X188559400Y-135310104D01*
X188386259Y-135649913D01*
X188386251Y-135649929D01*
X188384786Y-135652806D01*
X188383625Y-135655828D01*
X188383622Y-135655837D01*
X188246946Y-136011889D01*
X188246941Y-136011902D01*
X188245786Y-136014913D01*
X188244950Y-136018031D01*
X188244947Y-136018042D01*
X188146237Y-136386433D01*
X188146234Y-136386446D01*
X188145398Y-136389567D01*
X188144892Y-136392758D01*
X188144889Y-136392775D01*
X188085229Y-136769456D01*
X188085227Y-136769470D01*
X188084722Y-136772662D01*
X188064422Y-137160000D01*
X95145578Y-137160000D01*
X95125278Y-136772662D01*
X95064602Y-136389567D01*
X94964214Y-136014913D01*
X94825214Y-135652806D01*
X94649125Y-135307211D01*
X94437876Y-134981916D01*
X94193781Y-134680484D01*
X93919516Y-134406219D01*
X93618084Y-134162124D01*
X93292789Y-133950875D01*
X93289901Y-133949403D01*
X93289895Y-133949400D01*
X92950086Y-133776259D01*
X92950077Y-133776255D01*
X92947194Y-133774786D01*
X92944162Y-133773622D01*
X92588110Y-133636946D01*
X92588102Y-133636943D01*
X92585087Y-133635786D01*
X92581962Y-133634948D01*
X92581957Y-133634947D01*
X92213566Y-133536237D01*
X92213557Y-133536235D01*
X92210433Y-133535398D01*
X92207237Y-133534891D01*
X92207224Y-133534889D01*
X91830543Y-133475229D01*
X91830531Y-133475227D01*
X91827338Y-133474722D01*
X91824103Y-133474552D01*
X91824099Y-133474552D01*
X91443244Y-133454592D01*
X91440000Y-133454422D01*
X91436756Y-133454592D01*
X91055900Y-133474552D01*
X91055894Y-133474552D01*
X91052662Y-133474722D01*
X91049470Y-133475227D01*
X91049456Y-133475229D01*
X90672775Y-133534889D01*
X90672758Y-133534892D01*
X90669567Y-133535398D01*
X90666446Y-133536234D01*
X90666433Y-133536237D01*
X90298042Y-133634947D01*
X90298031Y-133634950D01*
X90294913Y-133635786D01*
X90291902Y-133636941D01*
X90291889Y-133636946D01*
X89935837Y-133773622D01*
X89935828Y-133773625D01*
X89932806Y-133774786D01*
X89929929Y-133776251D01*
X89929913Y-133776259D01*
X89590104Y-133949400D01*
X89590090Y-133949408D01*
X89587211Y-133950875D01*
X89584491Y-133952641D01*
X89584483Y-133952646D01*
X89264644Y-134160352D01*
X89264638Y-134160355D01*
X89261916Y-134162124D01*
X89259396Y-134164164D01*
X89259390Y-134164169D01*
X88963002Y-134404179D01*
X88962991Y-134404188D01*
X88960484Y-134406219D01*
X88958199Y-134408503D01*
X88958189Y-134408513D01*
X88688513Y-134678189D01*
X88688503Y-134678199D01*
X88686219Y-134680484D01*
X88684188Y-134682991D01*
X88684179Y-134683002D01*
X88444169Y-134979390D01*
X88444164Y-134979396D01*
X88442124Y-134981916D01*
X88440355Y-134984638D01*
X88440352Y-134984644D01*
X88232646Y-135304483D01*
X88232641Y-135304491D01*
X88230875Y-135307211D01*
X88229408Y-135310090D01*
X88229400Y-135310104D01*
X88056259Y-135649913D01*
X88056251Y-135649929D01*
X88054786Y-135652806D01*
X88053625Y-135655828D01*
X88053622Y-135655837D01*
X87916946Y-136011889D01*
X87916941Y-136011902D01*
X87915786Y-136014913D01*
X87914950Y-136018031D01*
X87914947Y-136018042D01*
X87816237Y-136386433D01*
X87816234Y-136386446D01*
X87815398Y-136389567D01*
X87814892Y-136392758D01*
X87814889Y-136392775D01*
X87755229Y-136769456D01*
X87755227Y-136769470D01*
X87754722Y-136772662D01*
X87734422Y-137160000D01*
X85690500Y-137160000D01*
X85690500Y-129792551D01*
X128212688Y-129792551D01*
X128213056Y-129803780D01*
X128265168Y-129998263D01*
X128268856Y-130008397D01*
X128364113Y-130212676D01*
X128369501Y-130222008D01*
X128498784Y-130406643D01*
X128505721Y-130414909D01*
X128665090Y-130574278D01*
X128673356Y-130581215D01*
X128857991Y-130710498D01*
X128867323Y-130715886D01*
X129071602Y-130811143D01*
X129081736Y-130814831D01*
X129276219Y-130866943D01*
X129287448Y-130867311D01*
X129290000Y-130856369D01*
X129790000Y-130856369D01*
X129792551Y-130867311D01*
X129803780Y-130866943D01*
X129998263Y-130814831D01*
X130008397Y-130811143D01*
X130212676Y-130715886D01*
X130222008Y-130710498D01*
X130406643Y-130581215D01*
X130414909Y-130574278D01*
X130574278Y-130414909D01*
X130581215Y-130406643D01*
X130708425Y-130224969D01*
X130752743Y-130186104D01*
X130810000Y-130172093D01*
X130867257Y-130186104D01*
X130911575Y-130224969D01*
X131038784Y-130406643D01*
X131045721Y-130414909D01*
X131205090Y-130574278D01*
X131213356Y-130581215D01*
X131397991Y-130710498D01*
X131407323Y-130715886D01*
X131611602Y-130811143D01*
X131621736Y-130814831D01*
X131816219Y-130866943D01*
X131827448Y-130867311D01*
X131830000Y-130856369D01*
X132330000Y-130856369D01*
X132332551Y-130867311D01*
X132343780Y-130866943D01*
X132538263Y-130814831D01*
X132548397Y-130811143D01*
X132752676Y-130715886D01*
X132762008Y-130710498D01*
X132946643Y-130581215D01*
X132954909Y-130574278D01*
X133114278Y-130414909D01*
X133121215Y-130406643D01*
X133250498Y-130222008D01*
X133255886Y-130212676D01*
X133351143Y-130008397D01*
X133354831Y-129998263D01*
X133406943Y-129803780D01*
X133407311Y-129792551D01*
X161232688Y-129792551D01*
X161233056Y-129803780D01*
X161285168Y-129998263D01*
X161288856Y-130008397D01*
X161384113Y-130212676D01*
X161389501Y-130222008D01*
X161518784Y-130406643D01*
X161525721Y-130414909D01*
X161685090Y-130574278D01*
X161693356Y-130581215D01*
X161877991Y-130710498D01*
X161887323Y-130715886D01*
X162091602Y-130811143D01*
X162101736Y-130814831D01*
X162296219Y-130866943D01*
X162307448Y-130867311D01*
X162310000Y-130856369D01*
X162810000Y-130856369D01*
X162812551Y-130867311D01*
X162823780Y-130866943D01*
X163018263Y-130814831D01*
X163028397Y-130811143D01*
X163232676Y-130715886D01*
X163242008Y-130710498D01*
X163426643Y-130581215D01*
X163434909Y-130574278D01*
X163594278Y-130414909D01*
X163601215Y-130406643D01*
X163728425Y-130224969D01*
X163772743Y-130186104D01*
X163830000Y-130172093D01*
X163887257Y-130186104D01*
X163931575Y-130224969D01*
X164058784Y-130406643D01*
X164065721Y-130414909D01*
X164225090Y-130574278D01*
X164233356Y-130581215D01*
X164417991Y-130710498D01*
X164427323Y-130715886D01*
X164631602Y-130811143D01*
X164641736Y-130814831D01*
X164836219Y-130866943D01*
X164847448Y-130867311D01*
X164850000Y-130856369D01*
X165350000Y-130856369D01*
X165352551Y-130867311D01*
X165363780Y-130866943D01*
X165558263Y-130814831D01*
X165568397Y-130811143D01*
X165772676Y-130715886D01*
X165782008Y-130710498D01*
X165966643Y-130581215D01*
X165974909Y-130574278D01*
X166134278Y-130414909D01*
X166141215Y-130406643D01*
X166270498Y-130222008D01*
X166275886Y-130212676D01*
X166371143Y-130008397D01*
X166374831Y-129998263D01*
X166426943Y-129803780D01*
X166427311Y-129792551D01*
X166416369Y-129790000D01*
X165366326Y-129790000D01*
X165353450Y-129793450D01*
X165350000Y-129806326D01*
X165350000Y-130856369D01*
X164850000Y-130856369D01*
X164850000Y-129806326D01*
X164846549Y-129793450D01*
X164833674Y-129790000D01*
X162826326Y-129790000D01*
X162813450Y-129793450D01*
X162810000Y-129806326D01*
X162810000Y-130856369D01*
X162310000Y-130856369D01*
X162310000Y-129806326D01*
X162306549Y-129793450D01*
X162293674Y-129790000D01*
X161243631Y-129790000D01*
X161232688Y-129792551D01*
X133407311Y-129792551D01*
X133396369Y-129790000D01*
X132346326Y-129790000D01*
X132333450Y-129793450D01*
X132330000Y-129806326D01*
X132330000Y-130856369D01*
X131830000Y-130856369D01*
X131830000Y-129806326D01*
X131826549Y-129793450D01*
X131813674Y-129790000D01*
X129806326Y-129790000D01*
X129793450Y-129793450D01*
X129790000Y-129806326D01*
X129790000Y-130856369D01*
X129290000Y-130856369D01*
X129290000Y-129806326D01*
X129286549Y-129793450D01*
X129273674Y-129790000D01*
X128223631Y-129790000D01*
X128212688Y-129792551D01*
X85690500Y-129792551D01*
X85690500Y-127000000D01*
X128184341Y-127000000D01*
X128204937Y-127235408D01*
X128206336Y-127240630D01*
X128206337Y-127240634D01*
X128264694Y-127458430D01*
X128264697Y-127458438D01*
X128266097Y-127463663D01*
X128268385Y-127468570D01*
X128268386Y-127468572D01*
X128363678Y-127672927D01*
X128363681Y-127672933D01*
X128365965Y-127677830D01*
X128369064Y-127682257D01*
X128369066Y-127682259D01*
X128498399Y-127866966D01*
X128498402Y-127866970D01*
X128501505Y-127871401D01*
X128668599Y-128038495D01*
X128673031Y-128041598D01*
X128673033Y-128041600D01*
X128854595Y-128168731D01*
X128893460Y-128213049D01*
X128907471Y-128270306D01*
X128893460Y-128327563D01*
X128854595Y-128371881D01*
X128673352Y-128498788D01*
X128665092Y-128505719D01*
X128505719Y-128665092D01*
X128498784Y-128673357D01*
X128369508Y-128857982D01*
X128364110Y-128867332D01*
X128268856Y-129071602D01*
X128265168Y-129081736D01*
X128213056Y-129276219D01*
X128212688Y-129287448D01*
X128223631Y-129290000D01*
X133396369Y-129290000D01*
X133407311Y-129287448D01*
X133406943Y-129276219D01*
X133354831Y-129081736D01*
X133351143Y-129071602D01*
X133255889Y-128867332D01*
X133250491Y-128857982D01*
X133121215Y-128673357D01*
X133114280Y-128665092D01*
X132954909Y-128505721D01*
X132946643Y-128498784D01*
X132765405Y-128371880D01*
X132726540Y-128327562D01*
X132712529Y-128270305D01*
X132726540Y-128213048D01*
X132765406Y-128168730D01*
X132946961Y-128041604D01*
X132946961Y-128041603D01*
X132951401Y-128038495D01*
X133118495Y-127871401D01*
X133254035Y-127677830D01*
X133353903Y-127463663D01*
X133415063Y-127235408D01*
X133435659Y-127000000D01*
X161204341Y-127000000D01*
X161224937Y-127235408D01*
X161226336Y-127240630D01*
X161226337Y-127240634D01*
X161284694Y-127458430D01*
X161284697Y-127458438D01*
X161286097Y-127463663D01*
X161288385Y-127468570D01*
X161288386Y-127468572D01*
X161383678Y-127672927D01*
X161383681Y-127672933D01*
X161385965Y-127677830D01*
X161389064Y-127682257D01*
X161389066Y-127682259D01*
X161518399Y-127866966D01*
X161518402Y-127866970D01*
X161521505Y-127871401D01*
X161688599Y-128038495D01*
X161693031Y-128041598D01*
X161693033Y-128041600D01*
X161874595Y-128168731D01*
X161913460Y-128213049D01*
X161927471Y-128270306D01*
X161913460Y-128327563D01*
X161874595Y-128371881D01*
X161693352Y-128498788D01*
X161685092Y-128505719D01*
X161525719Y-128665092D01*
X161518784Y-128673357D01*
X161389508Y-128857982D01*
X161384110Y-128867332D01*
X161288856Y-129071602D01*
X161285168Y-129081736D01*
X161233056Y-129276219D01*
X161232688Y-129287448D01*
X161243631Y-129290000D01*
X166416369Y-129290000D01*
X166427311Y-129287448D01*
X166426943Y-129276219D01*
X166374831Y-129081736D01*
X166371143Y-129071602D01*
X166275889Y-128867332D01*
X166270491Y-128857982D01*
X166141215Y-128673357D01*
X166134280Y-128665092D01*
X165974909Y-128505721D01*
X165966643Y-128498784D01*
X165785405Y-128371880D01*
X165746540Y-128327562D01*
X165732529Y-128270305D01*
X165746540Y-128213048D01*
X165785406Y-128168730D01*
X165966961Y-128041604D01*
X165966961Y-128041603D01*
X165971401Y-128038495D01*
X166138495Y-127871401D01*
X166274035Y-127677830D01*
X166373903Y-127463663D01*
X166435063Y-127235408D01*
X166455659Y-127000000D01*
X166435063Y-126764592D01*
X166373903Y-126536337D01*
X166274035Y-126322171D01*
X166138495Y-126128599D01*
X165971401Y-125961505D01*
X165966968Y-125958401D01*
X165966961Y-125958395D01*
X165785842Y-125831575D01*
X165746976Y-125787257D01*
X165732965Y-125730000D01*
X165746976Y-125672743D01*
X165785842Y-125628425D01*
X165966961Y-125501604D01*
X165966961Y-125501603D01*
X165971401Y-125498495D01*
X166138495Y-125331401D01*
X166274035Y-125137830D01*
X166373903Y-124923663D01*
X166435063Y-124695408D01*
X166455659Y-124460000D01*
X166435063Y-124224592D01*
X166373903Y-123996337D01*
X166274035Y-123782171D01*
X166138495Y-123588599D01*
X165971401Y-123421505D01*
X165966968Y-123418401D01*
X165966961Y-123418395D01*
X165785842Y-123291575D01*
X165746976Y-123247257D01*
X165732965Y-123190000D01*
X165746976Y-123132743D01*
X165785842Y-123088425D01*
X165966961Y-122961604D01*
X165966961Y-122961603D01*
X165971401Y-122958495D01*
X166138495Y-122791401D01*
X166274035Y-122597830D01*
X166373903Y-122383663D01*
X166435063Y-122155408D01*
X166455659Y-121920000D01*
X166435063Y-121684592D01*
X166373903Y-121456337D01*
X166274035Y-121242171D01*
X166138495Y-121048599D01*
X165971401Y-120881505D01*
X165966968Y-120878401D01*
X165966961Y-120878395D01*
X165785842Y-120751575D01*
X165746976Y-120707257D01*
X165732965Y-120650000D01*
X165746976Y-120592743D01*
X165785842Y-120548425D01*
X165966961Y-120421604D01*
X165966961Y-120421603D01*
X165971401Y-120418495D01*
X166138495Y-120251401D01*
X166274035Y-120057830D01*
X166373903Y-119843663D01*
X166435063Y-119615408D01*
X166455659Y-119380000D01*
X166435063Y-119144592D01*
X166373903Y-118916337D01*
X166274035Y-118702171D01*
X166138495Y-118508599D01*
X165971401Y-118341505D01*
X165966968Y-118338401D01*
X165966961Y-118338395D01*
X165785842Y-118211575D01*
X165746976Y-118167257D01*
X165732965Y-118110000D01*
X165746976Y-118052743D01*
X165785842Y-118008425D01*
X165966961Y-117881604D01*
X165966961Y-117881603D01*
X165971401Y-117878495D01*
X166138495Y-117711401D01*
X166274035Y-117517830D01*
X166373903Y-117303663D01*
X166435063Y-117075408D01*
X166455659Y-116840000D01*
X166435063Y-116604592D01*
X166373903Y-116376337D01*
X166274035Y-116162171D01*
X166138495Y-115968599D01*
X165971401Y-115801505D01*
X165966968Y-115798401D01*
X165966961Y-115798395D01*
X165785842Y-115671575D01*
X165746976Y-115627257D01*
X165732965Y-115570000D01*
X165746976Y-115512743D01*
X165785842Y-115468425D01*
X165966961Y-115341604D01*
X165966961Y-115341603D01*
X165971401Y-115338495D01*
X166138495Y-115171401D01*
X166274035Y-114977830D01*
X166373903Y-114763663D01*
X166435063Y-114535408D01*
X166455659Y-114300000D01*
X166435063Y-114064592D01*
X166373903Y-113836337D01*
X166274035Y-113622171D01*
X166138495Y-113428599D01*
X165971401Y-113261505D01*
X165966970Y-113258402D01*
X165966966Y-113258399D01*
X165785841Y-113131574D01*
X165746976Y-113087256D01*
X165732965Y-113029999D01*
X165746976Y-112972742D01*
X165785839Y-112928426D01*
X165971401Y-112798495D01*
X166138495Y-112631401D01*
X166274035Y-112437830D01*
X166373903Y-112223663D01*
X166435063Y-111995408D01*
X166455659Y-111760000D01*
X166435063Y-111524592D01*
X166373903Y-111296337D01*
X166274035Y-111082171D01*
X166138495Y-110888599D01*
X165971401Y-110721505D01*
X165966968Y-110718401D01*
X165966961Y-110718395D01*
X165785842Y-110591575D01*
X165746976Y-110547257D01*
X165732965Y-110490000D01*
X165746976Y-110432743D01*
X165785842Y-110388425D01*
X165966961Y-110261604D01*
X165966961Y-110261603D01*
X165971401Y-110258495D01*
X166138495Y-110091401D01*
X166274035Y-109897830D01*
X166373903Y-109683663D01*
X166435063Y-109455408D01*
X166455659Y-109220000D01*
X166435063Y-108984592D01*
X166373903Y-108756337D01*
X166274035Y-108542171D01*
X166138495Y-108348599D01*
X165971401Y-108181505D01*
X165966968Y-108178401D01*
X165966961Y-108178395D01*
X165785842Y-108051575D01*
X165746976Y-108007257D01*
X165732965Y-107950000D01*
X165746976Y-107892743D01*
X165785842Y-107848425D01*
X165966961Y-107721604D01*
X165966961Y-107721603D01*
X165971401Y-107718495D01*
X166138495Y-107551401D01*
X166274035Y-107357830D01*
X166373903Y-107143663D01*
X166435063Y-106915408D01*
X166455659Y-106680000D01*
X166435063Y-106444592D01*
X166373903Y-106216337D01*
X166274035Y-106002171D01*
X166138495Y-105808599D01*
X165971401Y-105641505D01*
X165966970Y-105638402D01*
X165966966Y-105638399D01*
X165785841Y-105511574D01*
X165746976Y-105467256D01*
X165732965Y-105409999D01*
X165746976Y-105352742D01*
X165785839Y-105308426D01*
X165971401Y-105178495D01*
X166138495Y-105011401D01*
X166274035Y-104817830D01*
X166373903Y-104603663D01*
X166435063Y-104375408D01*
X166455659Y-104140000D01*
X166435063Y-103904592D01*
X166373903Y-103676337D01*
X166274035Y-103462171D01*
X166138495Y-103268599D01*
X165971401Y-103101505D01*
X165966968Y-103098401D01*
X165966961Y-103098395D01*
X165785842Y-102971575D01*
X165746976Y-102927257D01*
X165732965Y-102870000D01*
X165746976Y-102812743D01*
X165785842Y-102768425D01*
X165966961Y-102641604D01*
X165966961Y-102641603D01*
X165971401Y-102638495D01*
X166138495Y-102471401D01*
X166274035Y-102277830D01*
X166373903Y-102063663D01*
X166435063Y-101835408D01*
X166455659Y-101600000D01*
X166435063Y-101364592D01*
X166373903Y-101136337D01*
X166274035Y-100922171D01*
X166138495Y-100728599D01*
X165971401Y-100561505D01*
X165966968Y-100558401D01*
X165966961Y-100558395D01*
X165785842Y-100431575D01*
X165746976Y-100387257D01*
X165732965Y-100330000D01*
X165746976Y-100272743D01*
X165785842Y-100228425D01*
X165966961Y-100101604D01*
X165966961Y-100101603D01*
X165971401Y-100098495D01*
X166138495Y-99931401D01*
X166274035Y-99737830D01*
X166373903Y-99523663D01*
X166435063Y-99295408D01*
X166455659Y-99060000D01*
X166435063Y-98824592D01*
X166373903Y-98596337D01*
X166274035Y-98382171D01*
X166138495Y-98188599D01*
X165971401Y-98021505D01*
X165966968Y-98018401D01*
X165966961Y-98018395D01*
X165785842Y-97891575D01*
X165746976Y-97847257D01*
X165732965Y-97790000D01*
X165746976Y-97732743D01*
X165785842Y-97688425D01*
X165966961Y-97561604D01*
X165966961Y-97561603D01*
X165971401Y-97558495D01*
X166138495Y-97391401D01*
X166274035Y-97197830D01*
X166373903Y-96983663D01*
X166435063Y-96755408D01*
X166455659Y-96520000D01*
X166435063Y-96284592D01*
X166373903Y-96056337D01*
X166274035Y-95842171D01*
X166138495Y-95648599D01*
X165971401Y-95481505D01*
X165966968Y-95478401D01*
X165966961Y-95478395D01*
X165785842Y-95351575D01*
X165746976Y-95307257D01*
X165732965Y-95250000D01*
X165746976Y-95192743D01*
X165785842Y-95148425D01*
X165966961Y-95021604D01*
X165966961Y-95021603D01*
X165971401Y-95018495D01*
X166138495Y-94851401D01*
X166274035Y-94657830D01*
X166373903Y-94443663D01*
X166435063Y-94215408D01*
X166455659Y-93980000D01*
X166435063Y-93744592D01*
X166373903Y-93516337D01*
X166274035Y-93302171D01*
X166138495Y-93108599D01*
X165971401Y-92941505D01*
X165966968Y-92938401D01*
X165966961Y-92938395D01*
X165785842Y-92811575D01*
X165746976Y-92767257D01*
X165732965Y-92710000D01*
X165746976Y-92652743D01*
X165785842Y-92608425D01*
X165966961Y-92481604D01*
X165966961Y-92481603D01*
X165971401Y-92478495D01*
X166138495Y-92311401D01*
X166274035Y-92117830D01*
X166373903Y-91903663D01*
X166435063Y-91675408D01*
X166455659Y-91440000D01*
X166435063Y-91204592D01*
X166373903Y-90976337D01*
X166274035Y-90762171D01*
X166138495Y-90568599D01*
X165971401Y-90401505D01*
X165966968Y-90398401D01*
X165966961Y-90398395D01*
X165785842Y-90271575D01*
X165746976Y-90227257D01*
X165732965Y-90170000D01*
X165746976Y-90112743D01*
X165785842Y-90068425D01*
X165966961Y-89941604D01*
X165966961Y-89941603D01*
X165971401Y-89938495D01*
X166138495Y-89771401D01*
X166274035Y-89577830D01*
X166373903Y-89363663D01*
X166435063Y-89135408D01*
X166455659Y-88900000D01*
X166435063Y-88664592D01*
X166373903Y-88436337D01*
X166274035Y-88222171D01*
X166138495Y-88028599D01*
X165971401Y-87861505D01*
X165966970Y-87858402D01*
X165966966Y-87858399D01*
X165785841Y-87731574D01*
X165746976Y-87687256D01*
X165732965Y-87629999D01*
X165746976Y-87572742D01*
X165785839Y-87528426D01*
X165971401Y-87398495D01*
X166138495Y-87231401D01*
X166274035Y-87037830D01*
X166373903Y-86823663D01*
X166435063Y-86595408D01*
X166455659Y-86360000D01*
X166435063Y-86124592D01*
X166373903Y-85896337D01*
X166274035Y-85682171D01*
X166138495Y-85488599D01*
X165971401Y-85321505D01*
X165966968Y-85318401D01*
X165966961Y-85318395D01*
X165785842Y-85191575D01*
X165746976Y-85147257D01*
X165732965Y-85090000D01*
X165746976Y-85032743D01*
X165785842Y-84988425D01*
X165966961Y-84861604D01*
X165966961Y-84861603D01*
X165971401Y-84858495D01*
X166138495Y-84691401D01*
X166274035Y-84497830D01*
X166373903Y-84283663D01*
X166435063Y-84055408D01*
X166455659Y-83820000D01*
X166435063Y-83584592D01*
X166373903Y-83356337D01*
X166274035Y-83142171D01*
X166138495Y-82948599D01*
X165971401Y-82781505D01*
X165966968Y-82778401D01*
X165966961Y-82778395D01*
X165785842Y-82651575D01*
X165746976Y-82607257D01*
X165732965Y-82550000D01*
X165746976Y-82492743D01*
X165785842Y-82448425D01*
X165966961Y-82321604D01*
X165966961Y-82321603D01*
X165971401Y-82318495D01*
X166138495Y-82151401D01*
X166274035Y-81957830D01*
X166373903Y-81743663D01*
X166435063Y-81515408D01*
X166455659Y-81280000D01*
X166435063Y-81044592D01*
X166373903Y-80816337D01*
X166274035Y-80602171D01*
X166138495Y-80408599D01*
X165971401Y-80241505D01*
X165966970Y-80238402D01*
X165966966Y-80238399D01*
X165785841Y-80111574D01*
X165746976Y-80067256D01*
X165732965Y-80009999D01*
X165746976Y-79952742D01*
X165785839Y-79908426D01*
X165971401Y-79778495D01*
X166138495Y-79611401D01*
X166274035Y-79417830D01*
X166373903Y-79203663D01*
X166435063Y-78975408D01*
X166455659Y-78740000D01*
X174454435Y-78740000D01*
X174474632Y-78919255D01*
X174476928Y-78925819D01*
X174476930Y-78925824D01*
X174496109Y-78980634D01*
X174534211Y-79089522D01*
X174537912Y-79095412D01*
X174602642Y-79198430D01*
X174630184Y-79242262D01*
X174757738Y-79369816D01*
X174910478Y-79465789D01*
X175080745Y-79525368D01*
X175260000Y-79545565D01*
X175439255Y-79525368D01*
X175609522Y-79465789D01*
X175762262Y-79369816D01*
X175889816Y-79242262D01*
X175985789Y-79089522D01*
X176045368Y-78919255D01*
X176065565Y-78740000D01*
X176045368Y-78560745D01*
X175985789Y-78390478D01*
X175889816Y-78237738D01*
X175886718Y-78234640D01*
X175867459Y-78199793D01*
X175860500Y-78158838D01*
X175860500Y-76781162D01*
X175867459Y-76740207D01*
X175886718Y-76705359D01*
X175889816Y-76702262D01*
X175985789Y-76549522D01*
X176045368Y-76379255D01*
X176065565Y-76200000D01*
X176045368Y-76020745D01*
X175985789Y-75850478D01*
X175889816Y-75697738D01*
X175762262Y-75570184D01*
X175609522Y-75474211D01*
X175602959Y-75471914D01*
X175602956Y-75471913D01*
X175445824Y-75416930D01*
X175445819Y-75416928D01*
X175439255Y-75414632D01*
X175432335Y-75413852D01*
X175432334Y-75413852D01*
X175266923Y-75395215D01*
X175260000Y-75394435D01*
X175253077Y-75395215D01*
X175087665Y-75413852D01*
X175087662Y-75413852D01*
X175080745Y-75414632D01*
X175074182Y-75416928D01*
X175074175Y-75416930D01*
X174917043Y-75471913D01*
X174917036Y-75471915D01*
X174910478Y-75474211D01*
X174904590Y-75477910D01*
X174904587Y-75477912D01*
X174763638Y-75566476D01*
X174763633Y-75566479D01*
X174757738Y-75570184D01*
X174752813Y-75575108D01*
X174752809Y-75575112D01*
X174635112Y-75692809D01*
X174635108Y-75692813D01*
X174630184Y-75697738D01*
X174626479Y-75703633D01*
X174626476Y-75703638D01*
X174537912Y-75844587D01*
X174537910Y-75844590D01*
X174534211Y-75850478D01*
X174531915Y-75857036D01*
X174531913Y-75857043D01*
X174476930Y-76014175D01*
X174476928Y-76014182D01*
X174474632Y-76020745D01*
X174454435Y-76200000D01*
X174474632Y-76379255D01*
X174476928Y-76385819D01*
X174476930Y-76385824D01*
X174496109Y-76440634D01*
X174534211Y-76549522D01*
X174537912Y-76555412D01*
X174606415Y-76664435D01*
X174630184Y-76702262D01*
X174633281Y-76705359D01*
X174652541Y-76740207D01*
X174659500Y-76781162D01*
X174659500Y-78158838D01*
X174652541Y-78199793D01*
X174633281Y-78234640D01*
X174630184Y-78237738D01*
X174626483Y-78243627D01*
X174626479Y-78243633D01*
X174537912Y-78384587D01*
X174537910Y-78384590D01*
X174534211Y-78390478D01*
X174531915Y-78397036D01*
X174531913Y-78397043D01*
X174476930Y-78554175D01*
X174476928Y-78554182D01*
X174474632Y-78560745D01*
X174454435Y-78740000D01*
X166455659Y-78740000D01*
X166435063Y-78504592D01*
X166373903Y-78276337D01*
X166274035Y-78062171D01*
X166138495Y-77868599D01*
X165971401Y-77701505D01*
X165966968Y-77698401D01*
X165966961Y-77698395D01*
X165785842Y-77571575D01*
X165746976Y-77527257D01*
X165732965Y-77470000D01*
X165746976Y-77412743D01*
X165785842Y-77368425D01*
X165966961Y-77241604D01*
X165966961Y-77241603D01*
X165971401Y-77238495D01*
X166138495Y-77071401D01*
X166274035Y-76877830D01*
X166373903Y-76663663D01*
X166435063Y-76435408D01*
X166455659Y-76200000D01*
X166435063Y-75964592D01*
X166373903Y-75736337D01*
X166274035Y-75522171D01*
X166138495Y-75328599D01*
X165971401Y-75161505D01*
X165966968Y-75158401D01*
X165966961Y-75158395D01*
X165785842Y-75031575D01*
X165746976Y-74987257D01*
X165732965Y-74930000D01*
X165746976Y-74872743D01*
X165785842Y-74828425D01*
X165966961Y-74701604D01*
X165966961Y-74701603D01*
X165971401Y-74698495D01*
X166138495Y-74531401D01*
X166274035Y-74337830D01*
X166373903Y-74123663D01*
X166435063Y-73895408D01*
X166455659Y-73660000D01*
X166435063Y-73424592D01*
X166373903Y-73196337D01*
X166274035Y-72982171D01*
X166138495Y-72788599D01*
X165971401Y-72621505D01*
X165966968Y-72618401D01*
X165966961Y-72618395D01*
X165785842Y-72491575D01*
X165746976Y-72447257D01*
X165732965Y-72390000D01*
X165746976Y-72332743D01*
X165785842Y-72288425D01*
X165966961Y-72161604D01*
X165966961Y-72161603D01*
X165971401Y-72158495D01*
X166138495Y-71991401D01*
X166274035Y-71797830D01*
X166373903Y-71583663D01*
X166435063Y-71355408D01*
X166455659Y-71120000D01*
X166435063Y-70884592D01*
X166373903Y-70656337D01*
X166274035Y-70442171D01*
X166138495Y-70248599D01*
X166016181Y-70126285D01*
X165984885Y-70073539D01*
X165982696Y-70012246D01*
X166010149Y-69957401D01*
X166060529Y-69922422D01*
X166183777Y-69876452D01*
X166199189Y-69868037D01*
X166300092Y-69792501D01*
X166312501Y-69780092D01*
X166388037Y-69679189D01*
X166396452Y-69663777D01*
X166440888Y-69544641D01*
X166444426Y-69529667D01*
X166449646Y-69481114D01*
X166450000Y-69474518D01*
X166450000Y-68846326D01*
X166446549Y-68833450D01*
X166433674Y-68830000D01*
X161243631Y-68830000D01*
X161232688Y-68832551D01*
X161233056Y-68843780D01*
X161285168Y-69038263D01*
X161288856Y-69048397D01*
X161384113Y-69252676D01*
X161389501Y-69262008D01*
X161518784Y-69446643D01*
X161525721Y-69454909D01*
X161685090Y-69614278D01*
X161693356Y-69621215D01*
X161874595Y-69748120D01*
X161913460Y-69792438D01*
X161927471Y-69849695D01*
X161913460Y-69906952D01*
X161874594Y-69951270D01*
X161693034Y-70078399D01*
X161693029Y-70078402D01*
X161688599Y-70081505D01*
X161684775Y-70085328D01*
X161684769Y-70085334D01*
X161525334Y-70244769D01*
X161525328Y-70244775D01*
X161521505Y-70248599D01*
X161518402Y-70253029D01*
X161518399Y-70253034D01*
X161389073Y-70437731D01*
X161389068Y-70437738D01*
X161385965Y-70442171D01*
X161383677Y-70447077D01*
X161383675Y-70447081D01*
X161288386Y-70651427D01*
X161288383Y-70651432D01*
X161286097Y-70656337D01*
X161284698Y-70661557D01*
X161284694Y-70661569D01*
X161226337Y-70879365D01*
X161226335Y-70879371D01*
X161224937Y-70884592D01*
X161204341Y-71120000D01*
X161224937Y-71355408D01*
X161226336Y-71360630D01*
X161226337Y-71360634D01*
X161284694Y-71578430D01*
X161284697Y-71578438D01*
X161286097Y-71583663D01*
X161288385Y-71588570D01*
X161288386Y-71588572D01*
X161383678Y-71792927D01*
X161383681Y-71792933D01*
X161385965Y-71797830D01*
X161389064Y-71802257D01*
X161389066Y-71802259D01*
X161518399Y-71986966D01*
X161518402Y-71986970D01*
X161521505Y-71991401D01*
X161688599Y-72158495D01*
X161693032Y-72161599D01*
X161693038Y-72161604D01*
X161874158Y-72288425D01*
X161913024Y-72332743D01*
X161927035Y-72390000D01*
X161913024Y-72447257D01*
X161874159Y-72491575D01*
X161693041Y-72618395D01*
X161688599Y-72621505D01*
X161684775Y-72625328D01*
X161684769Y-72625334D01*
X161525334Y-72784769D01*
X161525328Y-72784775D01*
X161521505Y-72788599D01*
X161518402Y-72793029D01*
X161518399Y-72793034D01*
X161389073Y-72977731D01*
X161389068Y-72977738D01*
X161385965Y-72982171D01*
X161383677Y-72987077D01*
X161383675Y-72987081D01*
X161288386Y-73191427D01*
X161288383Y-73191432D01*
X161286097Y-73196337D01*
X161284698Y-73201557D01*
X161284694Y-73201569D01*
X161226337Y-73419365D01*
X161226335Y-73419371D01*
X161224937Y-73424592D01*
X161224465Y-73429977D01*
X161224465Y-73429982D01*
X161204813Y-73654605D01*
X161204341Y-73660000D01*
X161224937Y-73895408D01*
X161226336Y-73900630D01*
X161226337Y-73900634D01*
X161284694Y-74118430D01*
X161284697Y-74118438D01*
X161286097Y-74123663D01*
X161288385Y-74128570D01*
X161288386Y-74128572D01*
X161383678Y-74332927D01*
X161383681Y-74332933D01*
X161385965Y-74337830D01*
X161389064Y-74342257D01*
X161389066Y-74342259D01*
X161518399Y-74526966D01*
X161518402Y-74526970D01*
X161521505Y-74531401D01*
X161688599Y-74698495D01*
X161693032Y-74701599D01*
X161693038Y-74701604D01*
X161874158Y-74828425D01*
X161913024Y-74872743D01*
X161927035Y-74930000D01*
X161913024Y-74987257D01*
X161874159Y-75031575D01*
X161693041Y-75158395D01*
X161688599Y-75161505D01*
X161684775Y-75165328D01*
X161684769Y-75165334D01*
X161525334Y-75324769D01*
X161525328Y-75324775D01*
X161521505Y-75328599D01*
X161518402Y-75333029D01*
X161518399Y-75333034D01*
X161389073Y-75517731D01*
X161389068Y-75517738D01*
X161385965Y-75522171D01*
X161383677Y-75527077D01*
X161383675Y-75527081D01*
X161288386Y-75731427D01*
X161288383Y-75731432D01*
X161286097Y-75736337D01*
X161284698Y-75741557D01*
X161284694Y-75741569D01*
X161226337Y-75959365D01*
X161226335Y-75959371D01*
X161224937Y-75964592D01*
X161224465Y-75969977D01*
X161224465Y-75969982D01*
X161212419Y-76107667D01*
X161204341Y-76200000D01*
X161204813Y-76205395D01*
X161219418Y-76372334D01*
X161224937Y-76435408D01*
X161226336Y-76440630D01*
X161226337Y-76440634D01*
X161284694Y-76658430D01*
X161284697Y-76658438D01*
X161286097Y-76663663D01*
X161288385Y-76668570D01*
X161288386Y-76668572D01*
X161383678Y-76872927D01*
X161383681Y-76872933D01*
X161385965Y-76877830D01*
X161389064Y-76882257D01*
X161389066Y-76882259D01*
X161518399Y-77066966D01*
X161518402Y-77066970D01*
X161521505Y-77071401D01*
X161688599Y-77238495D01*
X161693032Y-77241599D01*
X161693038Y-77241604D01*
X161874158Y-77368425D01*
X161913024Y-77412743D01*
X161927035Y-77470000D01*
X161913024Y-77527257D01*
X161874159Y-77571575D01*
X161693041Y-77698395D01*
X161688599Y-77701505D01*
X161684775Y-77705328D01*
X161684769Y-77705334D01*
X161525334Y-77864769D01*
X161525328Y-77864775D01*
X161521505Y-77868599D01*
X161518402Y-77873029D01*
X161518399Y-77873034D01*
X161389073Y-78057731D01*
X161389068Y-78057738D01*
X161385965Y-78062171D01*
X161383677Y-78067077D01*
X161383675Y-78067081D01*
X161288386Y-78271427D01*
X161288383Y-78271432D01*
X161286097Y-78276337D01*
X161284698Y-78281557D01*
X161284694Y-78281569D01*
X161226337Y-78499365D01*
X161226335Y-78499371D01*
X161224937Y-78504592D01*
X161224465Y-78509977D01*
X161224465Y-78509982D01*
X161204947Y-78733077D01*
X161204341Y-78740000D01*
X161204813Y-78745395D01*
X161219418Y-78912334D01*
X161224937Y-78975408D01*
X161226336Y-78980630D01*
X161226337Y-78980634D01*
X161284694Y-79198430D01*
X161284697Y-79198438D01*
X161286097Y-79203663D01*
X161288385Y-79208570D01*
X161288386Y-79208572D01*
X161383678Y-79412927D01*
X161383681Y-79412933D01*
X161385965Y-79417830D01*
X161389064Y-79422257D01*
X161389066Y-79422259D01*
X161518399Y-79606966D01*
X161518402Y-79606970D01*
X161521505Y-79611401D01*
X161688599Y-79778495D01*
X161693032Y-79781599D01*
X161693038Y-79781604D01*
X161874158Y-79908425D01*
X161913024Y-79952743D01*
X161927035Y-80010000D01*
X161913024Y-80067257D01*
X161874159Y-80111575D01*
X161693041Y-80238395D01*
X161688599Y-80241505D01*
X161684775Y-80245328D01*
X161684769Y-80245334D01*
X161525334Y-80404769D01*
X161525328Y-80404775D01*
X161521505Y-80408599D01*
X161518402Y-80413029D01*
X161518399Y-80413034D01*
X161389073Y-80597731D01*
X161389068Y-80597738D01*
X161385965Y-80602171D01*
X161383677Y-80607077D01*
X161383675Y-80607081D01*
X161288386Y-80811427D01*
X161288383Y-80811432D01*
X161286097Y-80816337D01*
X161284698Y-80821557D01*
X161284694Y-80821569D01*
X161226337Y-81039365D01*
X161226335Y-81039371D01*
X161224937Y-81044592D01*
X161224465Y-81049977D01*
X161224465Y-81049982D01*
X161208496Y-81232513D01*
X161204341Y-81280000D01*
X161204813Y-81285395D01*
X161219418Y-81452334D01*
X161224937Y-81515408D01*
X161226336Y-81520630D01*
X161226337Y-81520634D01*
X161284694Y-81738430D01*
X161284697Y-81738438D01*
X161286097Y-81743663D01*
X161288385Y-81748570D01*
X161288386Y-81748572D01*
X161383678Y-81952927D01*
X161383681Y-81952933D01*
X161385965Y-81957830D01*
X161389064Y-81962257D01*
X161389066Y-81962259D01*
X161518399Y-82146966D01*
X161518402Y-82146970D01*
X161521505Y-82151401D01*
X161688599Y-82318495D01*
X161693032Y-82321599D01*
X161693038Y-82321604D01*
X161874158Y-82448425D01*
X161913024Y-82492743D01*
X161927035Y-82550000D01*
X161913024Y-82607257D01*
X161874159Y-82651575D01*
X161693041Y-82778395D01*
X161688599Y-82781505D01*
X161684775Y-82785328D01*
X161684769Y-82785334D01*
X161525334Y-82944769D01*
X161525328Y-82944775D01*
X161521505Y-82948599D01*
X161518402Y-82953029D01*
X161518399Y-82953034D01*
X161389073Y-83137731D01*
X161389068Y-83137738D01*
X161385965Y-83142171D01*
X161383677Y-83147077D01*
X161383675Y-83147081D01*
X161288386Y-83351427D01*
X161288383Y-83351432D01*
X161286097Y-83356337D01*
X161284698Y-83361557D01*
X161284694Y-83361569D01*
X161226337Y-83579365D01*
X161226335Y-83579371D01*
X161224937Y-83584592D01*
X161204341Y-83820000D01*
X161224937Y-84055408D01*
X161226336Y-84060630D01*
X161226337Y-84060634D01*
X161284694Y-84278430D01*
X161284697Y-84278438D01*
X161286097Y-84283663D01*
X161288385Y-84288570D01*
X161288386Y-84288572D01*
X161383678Y-84492927D01*
X161383681Y-84492933D01*
X161385965Y-84497830D01*
X161389064Y-84502257D01*
X161389066Y-84502259D01*
X161518399Y-84686966D01*
X161518402Y-84686970D01*
X161521505Y-84691401D01*
X161688599Y-84858495D01*
X161693032Y-84861599D01*
X161693038Y-84861604D01*
X161874158Y-84988425D01*
X161913024Y-85032743D01*
X161927035Y-85090000D01*
X161913024Y-85147257D01*
X161874159Y-85191575D01*
X161693041Y-85318395D01*
X161688599Y-85321505D01*
X161684775Y-85325328D01*
X161684769Y-85325334D01*
X161525334Y-85484769D01*
X161525328Y-85484775D01*
X161521505Y-85488599D01*
X161518402Y-85493029D01*
X161518399Y-85493034D01*
X161389073Y-85677731D01*
X161389068Y-85677738D01*
X161385965Y-85682171D01*
X161383677Y-85687077D01*
X161383675Y-85687081D01*
X161288386Y-85891427D01*
X161288383Y-85891432D01*
X161286097Y-85896337D01*
X161284698Y-85901557D01*
X161284694Y-85901569D01*
X161226337Y-86119365D01*
X161226335Y-86119371D01*
X161224937Y-86124592D01*
X161204341Y-86360000D01*
X161224937Y-86595408D01*
X161226336Y-86600630D01*
X161226337Y-86600634D01*
X161284694Y-86818430D01*
X161284697Y-86818438D01*
X161286097Y-86823663D01*
X161288385Y-86828570D01*
X161288386Y-86828572D01*
X161383678Y-87032927D01*
X161383681Y-87032933D01*
X161385965Y-87037830D01*
X161389064Y-87042257D01*
X161389066Y-87042259D01*
X161518399Y-87226966D01*
X161518402Y-87226970D01*
X161521505Y-87231401D01*
X161688599Y-87398495D01*
X161693032Y-87401599D01*
X161693038Y-87401604D01*
X161874158Y-87528425D01*
X161913024Y-87572743D01*
X161927035Y-87630000D01*
X161913024Y-87687257D01*
X161874160Y-87731574D01*
X161688599Y-87861505D01*
X161684775Y-87865328D01*
X161684769Y-87865334D01*
X161525334Y-88024769D01*
X161525328Y-88024775D01*
X161521505Y-88028599D01*
X161518402Y-88033029D01*
X161518399Y-88033034D01*
X161389073Y-88217731D01*
X161389068Y-88217738D01*
X161385965Y-88222171D01*
X161383677Y-88227077D01*
X161383675Y-88227081D01*
X161288386Y-88431427D01*
X161288383Y-88431432D01*
X161286097Y-88436337D01*
X161284698Y-88441557D01*
X161284694Y-88441569D01*
X161226337Y-88659365D01*
X161226335Y-88659371D01*
X161224937Y-88664592D01*
X161224465Y-88669977D01*
X161224465Y-88669982D01*
X161204947Y-88893077D01*
X161204341Y-88900000D01*
X161204813Y-88905395D01*
X161219418Y-89072334D01*
X161224937Y-89135408D01*
X161226336Y-89140630D01*
X161226337Y-89140634D01*
X161284694Y-89358430D01*
X161284697Y-89358438D01*
X161286097Y-89363663D01*
X161288385Y-89368570D01*
X161288386Y-89368572D01*
X161383678Y-89572927D01*
X161383681Y-89572933D01*
X161385965Y-89577830D01*
X161389064Y-89582257D01*
X161389066Y-89582259D01*
X161518399Y-89766966D01*
X161518402Y-89766970D01*
X161521505Y-89771401D01*
X161688599Y-89938495D01*
X161693032Y-89941599D01*
X161693038Y-89941604D01*
X161874158Y-90068425D01*
X161913024Y-90112743D01*
X161927035Y-90170000D01*
X161913024Y-90227257D01*
X161874159Y-90271575D01*
X161693041Y-90398395D01*
X161688599Y-90401505D01*
X161684775Y-90405328D01*
X161684769Y-90405334D01*
X161525334Y-90564769D01*
X161525328Y-90564775D01*
X161521505Y-90568599D01*
X161518402Y-90573029D01*
X161518399Y-90573034D01*
X161389073Y-90757731D01*
X161389068Y-90757738D01*
X161385965Y-90762171D01*
X161383677Y-90767077D01*
X161383675Y-90767081D01*
X161288386Y-90971427D01*
X161288383Y-90971432D01*
X161286097Y-90976337D01*
X161284698Y-90981557D01*
X161284694Y-90981569D01*
X161226337Y-91199365D01*
X161226335Y-91199371D01*
X161224937Y-91204592D01*
X161204341Y-91440000D01*
X161224937Y-91675408D01*
X161226336Y-91680630D01*
X161226337Y-91680634D01*
X161284694Y-91898430D01*
X161284697Y-91898438D01*
X161286097Y-91903663D01*
X161288385Y-91908570D01*
X161288386Y-91908572D01*
X161383678Y-92112927D01*
X161383681Y-92112933D01*
X161385965Y-92117830D01*
X161389064Y-92122257D01*
X161389066Y-92122259D01*
X161518399Y-92306966D01*
X161518402Y-92306970D01*
X161521505Y-92311401D01*
X161688599Y-92478495D01*
X161693032Y-92481599D01*
X161693038Y-92481604D01*
X161874158Y-92608425D01*
X161913024Y-92652743D01*
X161927035Y-92710000D01*
X161913024Y-92767257D01*
X161874159Y-92811575D01*
X161693041Y-92938395D01*
X161688599Y-92941505D01*
X161684775Y-92945328D01*
X161684769Y-92945334D01*
X161525334Y-93104769D01*
X161525328Y-93104775D01*
X161521505Y-93108599D01*
X161518402Y-93113029D01*
X161518399Y-93113034D01*
X161389073Y-93297731D01*
X161389068Y-93297738D01*
X161385965Y-93302171D01*
X161383677Y-93307077D01*
X161383675Y-93307081D01*
X161288386Y-93511427D01*
X161288383Y-93511432D01*
X161286097Y-93516337D01*
X161284698Y-93521557D01*
X161284694Y-93521569D01*
X161226337Y-93739365D01*
X161226335Y-93739371D01*
X161224937Y-93744592D01*
X161204341Y-93980000D01*
X161224937Y-94215408D01*
X161226336Y-94220630D01*
X161226337Y-94220634D01*
X161284694Y-94438430D01*
X161284697Y-94438438D01*
X161286097Y-94443663D01*
X161288385Y-94448570D01*
X161288386Y-94448572D01*
X161383678Y-94652927D01*
X161383681Y-94652933D01*
X161385965Y-94657830D01*
X161389064Y-94662257D01*
X161389066Y-94662259D01*
X161518399Y-94846966D01*
X161518402Y-94846970D01*
X161521505Y-94851401D01*
X161688599Y-95018495D01*
X161693032Y-95021599D01*
X161693038Y-95021604D01*
X161874158Y-95148425D01*
X161913024Y-95192743D01*
X161927035Y-95250000D01*
X161913024Y-95307257D01*
X161874159Y-95351575D01*
X161693041Y-95478395D01*
X161688599Y-95481505D01*
X161684775Y-95485328D01*
X161684769Y-95485334D01*
X161525334Y-95644769D01*
X161525328Y-95644775D01*
X161521505Y-95648599D01*
X161518402Y-95653029D01*
X161518399Y-95653034D01*
X161389073Y-95837731D01*
X161389068Y-95837738D01*
X161385965Y-95842171D01*
X161383677Y-95847077D01*
X161383675Y-95847081D01*
X161288386Y-96051427D01*
X161288383Y-96051432D01*
X161286097Y-96056337D01*
X161284698Y-96061557D01*
X161284694Y-96061569D01*
X161226337Y-96279365D01*
X161226335Y-96279371D01*
X161224937Y-96284592D01*
X161224465Y-96289977D01*
X161224465Y-96289982D01*
X161215365Y-96394000D01*
X161204341Y-96520000D01*
X161204813Y-96525395D01*
X161219418Y-96692334D01*
X161224937Y-96755408D01*
X161226336Y-96760630D01*
X161226337Y-96760634D01*
X161284694Y-96978430D01*
X161284697Y-96978438D01*
X161286097Y-96983663D01*
X161288385Y-96988570D01*
X161288386Y-96988572D01*
X161383678Y-97192927D01*
X161383681Y-97192933D01*
X161385965Y-97197830D01*
X161389064Y-97202257D01*
X161389066Y-97202259D01*
X161518399Y-97386966D01*
X161518402Y-97386970D01*
X161521505Y-97391401D01*
X161688599Y-97558495D01*
X161693032Y-97561599D01*
X161693038Y-97561604D01*
X161874158Y-97688425D01*
X161913024Y-97732743D01*
X161927035Y-97790000D01*
X161913024Y-97847257D01*
X161874159Y-97891575D01*
X161693041Y-98018395D01*
X161688599Y-98021505D01*
X161684775Y-98025328D01*
X161684769Y-98025334D01*
X161525334Y-98184769D01*
X161525328Y-98184775D01*
X161521505Y-98188599D01*
X161518402Y-98193029D01*
X161518399Y-98193034D01*
X161389073Y-98377731D01*
X161389068Y-98377738D01*
X161385965Y-98382171D01*
X161383677Y-98387077D01*
X161383675Y-98387081D01*
X161288386Y-98591427D01*
X161288383Y-98591432D01*
X161286097Y-98596337D01*
X161284698Y-98601557D01*
X161284694Y-98601569D01*
X161226337Y-98819365D01*
X161226335Y-98819371D01*
X161224937Y-98824592D01*
X161204341Y-99060000D01*
X161224937Y-99295408D01*
X161226336Y-99300630D01*
X161226337Y-99300634D01*
X161284694Y-99518430D01*
X161284697Y-99518438D01*
X161286097Y-99523663D01*
X161288385Y-99528570D01*
X161288386Y-99528572D01*
X161383678Y-99732927D01*
X161383681Y-99732933D01*
X161385965Y-99737830D01*
X161389064Y-99742257D01*
X161389066Y-99742259D01*
X161518399Y-99926966D01*
X161518402Y-99926970D01*
X161521505Y-99931401D01*
X161688599Y-100098495D01*
X161693032Y-100101599D01*
X161693038Y-100101604D01*
X161874158Y-100228425D01*
X161913024Y-100272743D01*
X161927035Y-100330000D01*
X161913024Y-100387257D01*
X161874159Y-100431575D01*
X161693041Y-100558395D01*
X161688599Y-100561505D01*
X161684775Y-100565328D01*
X161684769Y-100565334D01*
X161525334Y-100724769D01*
X161525328Y-100724775D01*
X161521505Y-100728599D01*
X161518402Y-100733029D01*
X161518399Y-100733034D01*
X161389073Y-100917731D01*
X161389068Y-100917738D01*
X161385965Y-100922171D01*
X161383677Y-100927077D01*
X161383675Y-100927081D01*
X161288386Y-101131427D01*
X161288383Y-101131432D01*
X161286097Y-101136337D01*
X161284698Y-101141557D01*
X161284694Y-101141569D01*
X161226337Y-101359365D01*
X161226335Y-101359371D01*
X161224937Y-101364592D01*
X161204341Y-101600000D01*
X161224937Y-101835408D01*
X161226336Y-101840630D01*
X161226337Y-101840634D01*
X161284694Y-102058430D01*
X161284697Y-102058438D01*
X161286097Y-102063663D01*
X161288385Y-102068570D01*
X161288386Y-102068572D01*
X161383678Y-102272927D01*
X161383681Y-102272933D01*
X161385965Y-102277830D01*
X161389064Y-102282257D01*
X161389066Y-102282259D01*
X161518399Y-102466966D01*
X161518402Y-102466970D01*
X161521505Y-102471401D01*
X161688599Y-102638495D01*
X161693032Y-102641599D01*
X161693038Y-102641604D01*
X161874158Y-102768425D01*
X161913024Y-102812743D01*
X161927035Y-102870000D01*
X161913024Y-102927257D01*
X161874159Y-102971575D01*
X161693041Y-103098395D01*
X161688599Y-103101505D01*
X161684775Y-103105328D01*
X161684769Y-103105334D01*
X161525334Y-103264769D01*
X161525328Y-103264775D01*
X161521505Y-103268599D01*
X161518402Y-103273029D01*
X161518399Y-103273034D01*
X161389073Y-103457731D01*
X161389068Y-103457738D01*
X161385965Y-103462171D01*
X161383677Y-103467077D01*
X161383675Y-103467081D01*
X161288386Y-103671427D01*
X161288383Y-103671432D01*
X161286097Y-103676337D01*
X161284698Y-103681557D01*
X161284694Y-103681569D01*
X161226337Y-103899365D01*
X161226335Y-103899371D01*
X161224937Y-103904592D01*
X161204341Y-104140000D01*
X161224937Y-104375408D01*
X161226336Y-104380630D01*
X161226337Y-104380634D01*
X161284694Y-104598430D01*
X161284697Y-104598438D01*
X161286097Y-104603663D01*
X161288385Y-104608570D01*
X161288386Y-104608572D01*
X161383678Y-104812927D01*
X161383681Y-104812933D01*
X161385965Y-104817830D01*
X161389064Y-104822257D01*
X161389066Y-104822259D01*
X161518399Y-105006966D01*
X161518402Y-105006970D01*
X161521505Y-105011401D01*
X161688599Y-105178495D01*
X161693032Y-105181599D01*
X161693038Y-105181604D01*
X161874158Y-105308425D01*
X161913024Y-105352743D01*
X161927035Y-105410000D01*
X161913024Y-105467257D01*
X161874159Y-105511575D01*
X161753839Y-105595824D01*
X161688599Y-105641505D01*
X161684775Y-105645328D01*
X161684769Y-105645334D01*
X161525334Y-105804769D01*
X161525328Y-105804775D01*
X161521505Y-105808599D01*
X161518402Y-105813029D01*
X161518399Y-105813034D01*
X161389073Y-105997731D01*
X161389068Y-105997738D01*
X161385965Y-106002171D01*
X161383677Y-106007077D01*
X161383675Y-106007081D01*
X161288386Y-106211427D01*
X161288383Y-106211432D01*
X161286097Y-106216337D01*
X161284698Y-106221557D01*
X161284694Y-106221569D01*
X161226337Y-106439365D01*
X161226335Y-106439371D01*
X161224937Y-106444592D01*
X161204341Y-106680000D01*
X161224937Y-106915408D01*
X161226336Y-106920630D01*
X161226337Y-106920634D01*
X161284694Y-107138430D01*
X161284697Y-107138438D01*
X161286097Y-107143663D01*
X161288385Y-107148570D01*
X161288386Y-107148572D01*
X161383678Y-107352927D01*
X161383681Y-107352933D01*
X161385965Y-107357830D01*
X161389064Y-107362257D01*
X161389066Y-107362259D01*
X161518399Y-107546966D01*
X161518402Y-107546970D01*
X161521505Y-107551401D01*
X161688599Y-107718495D01*
X161693032Y-107721599D01*
X161693038Y-107721604D01*
X161874158Y-107848425D01*
X161913024Y-107892743D01*
X161927035Y-107950000D01*
X161913024Y-108007257D01*
X161874159Y-108051575D01*
X161693041Y-108178395D01*
X161688599Y-108181505D01*
X161684775Y-108185328D01*
X161684769Y-108185334D01*
X161525334Y-108344769D01*
X161525328Y-108344775D01*
X161521505Y-108348599D01*
X161518402Y-108353029D01*
X161518399Y-108353034D01*
X161389073Y-108537731D01*
X161389068Y-108537738D01*
X161385965Y-108542171D01*
X161383677Y-108547077D01*
X161383675Y-108547081D01*
X161288386Y-108751427D01*
X161288383Y-108751432D01*
X161286097Y-108756337D01*
X161284698Y-108761557D01*
X161284694Y-108761569D01*
X161226337Y-108979365D01*
X161226335Y-108979371D01*
X161224937Y-108984592D01*
X161204341Y-109220000D01*
X161224937Y-109455408D01*
X161226336Y-109460630D01*
X161226337Y-109460634D01*
X161284694Y-109678430D01*
X161284697Y-109678438D01*
X161286097Y-109683663D01*
X161288385Y-109688570D01*
X161288386Y-109688572D01*
X161383678Y-109892927D01*
X161383681Y-109892933D01*
X161385965Y-109897830D01*
X161389064Y-109902257D01*
X161389066Y-109902259D01*
X161518399Y-110086966D01*
X161518402Y-110086970D01*
X161521505Y-110091401D01*
X161688599Y-110258495D01*
X161693032Y-110261599D01*
X161693038Y-110261604D01*
X161874158Y-110388425D01*
X161913024Y-110432743D01*
X161927035Y-110490000D01*
X161913024Y-110547257D01*
X161874159Y-110591575D01*
X161693041Y-110718395D01*
X161688599Y-110721505D01*
X161684775Y-110725328D01*
X161684769Y-110725334D01*
X161525334Y-110884769D01*
X161525328Y-110884775D01*
X161521505Y-110888599D01*
X161518402Y-110893029D01*
X161518399Y-110893034D01*
X161389073Y-111077731D01*
X161389068Y-111077738D01*
X161385965Y-111082171D01*
X161383677Y-111087077D01*
X161383675Y-111087081D01*
X161288386Y-111291427D01*
X161288383Y-111291432D01*
X161286097Y-111296337D01*
X161284698Y-111301557D01*
X161284694Y-111301569D01*
X161226337Y-111519365D01*
X161226335Y-111519371D01*
X161224937Y-111524592D01*
X161204341Y-111760000D01*
X161224937Y-111995408D01*
X161226336Y-112000630D01*
X161226337Y-112000634D01*
X161284694Y-112218430D01*
X161284697Y-112218438D01*
X161286097Y-112223663D01*
X161288385Y-112228570D01*
X161288386Y-112228572D01*
X161383678Y-112432927D01*
X161383681Y-112432933D01*
X161385965Y-112437830D01*
X161389064Y-112442257D01*
X161389066Y-112442259D01*
X161518399Y-112626966D01*
X161518402Y-112626970D01*
X161521505Y-112631401D01*
X161688599Y-112798495D01*
X161693032Y-112801599D01*
X161693038Y-112801604D01*
X161874158Y-112928425D01*
X161913024Y-112972743D01*
X161927035Y-113030000D01*
X161913024Y-113087257D01*
X161874159Y-113131575D01*
X161753839Y-113215824D01*
X161688599Y-113261505D01*
X161684775Y-113265328D01*
X161684769Y-113265334D01*
X161525334Y-113424769D01*
X161525328Y-113424775D01*
X161521505Y-113428599D01*
X161518402Y-113433029D01*
X161518399Y-113433034D01*
X161389073Y-113617731D01*
X161389068Y-113617738D01*
X161385965Y-113622171D01*
X161383677Y-113627077D01*
X161383675Y-113627081D01*
X161288386Y-113831427D01*
X161288383Y-113831432D01*
X161286097Y-113836337D01*
X161284698Y-113841557D01*
X161284694Y-113841569D01*
X161226337Y-114059365D01*
X161226335Y-114059371D01*
X161224937Y-114064592D01*
X161204341Y-114300000D01*
X161224937Y-114535408D01*
X161226336Y-114540630D01*
X161226337Y-114540634D01*
X161284694Y-114758430D01*
X161284697Y-114758438D01*
X161286097Y-114763663D01*
X161288385Y-114768570D01*
X161288386Y-114768572D01*
X161383678Y-114972927D01*
X161383681Y-114972933D01*
X161385965Y-114977830D01*
X161389064Y-114982257D01*
X161389066Y-114982259D01*
X161518399Y-115166966D01*
X161518402Y-115166970D01*
X161521505Y-115171401D01*
X161688599Y-115338495D01*
X161693032Y-115341599D01*
X161693038Y-115341604D01*
X161874158Y-115468425D01*
X161913024Y-115512743D01*
X161927035Y-115570000D01*
X161913024Y-115627257D01*
X161874159Y-115671575D01*
X161693041Y-115798395D01*
X161688599Y-115801505D01*
X161684775Y-115805328D01*
X161684769Y-115805334D01*
X161525334Y-115964769D01*
X161525328Y-115964775D01*
X161521505Y-115968599D01*
X161518402Y-115973029D01*
X161518399Y-115973034D01*
X161389073Y-116157731D01*
X161389068Y-116157738D01*
X161385965Y-116162171D01*
X161383677Y-116167077D01*
X161383675Y-116167081D01*
X161288386Y-116371427D01*
X161288383Y-116371432D01*
X161286097Y-116376337D01*
X161284698Y-116381557D01*
X161284694Y-116381569D01*
X161226337Y-116599365D01*
X161226335Y-116599371D01*
X161224937Y-116604592D01*
X161224465Y-116609977D01*
X161224465Y-116609982D01*
X161204947Y-116833077D01*
X161204341Y-116840000D01*
X161204813Y-116845395D01*
X161219418Y-117012334D01*
X161224937Y-117075408D01*
X161226336Y-117080630D01*
X161226337Y-117080634D01*
X161284694Y-117298430D01*
X161284697Y-117298438D01*
X161286097Y-117303663D01*
X161288385Y-117308570D01*
X161288386Y-117308572D01*
X161383678Y-117512927D01*
X161383681Y-117512933D01*
X161385965Y-117517830D01*
X161389064Y-117522257D01*
X161389066Y-117522259D01*
X161518399Y-117706966D01*
X161518402Y-117706970D01*
X161521505Y-117711401D01*
X161688599Y-117878495D01*
X161693032Y-117881599D01*
X161693038Y-117881604D01*
X161874158Y-118008425D01*
X161913024Y-118052743D01*
X161927035Y-118110000D01*
X161913024Y-118167257D01*
X161874159Y-118211575D01*
X161693041Y-118338395D01*
X161688599Y-118341505D01*
X161684775Y-118345328D01*
X161684769Y-118345334D01*
X161525334Y-118504769D01*
X161525328Y-118504775D01*
X161521505Y-118508599D01*
X161518402Y-118513029D01*
X161518399Y-118513034D01*
X161389073Y-118697731D01*
X161389068Y-118697738D01*
X161385965Y-118702171D01*
X161383677Y-118707077D01*
X161383675Y-118707081D01*
X161288386Y-118911427D01*
X161288383Y-118911432D01*
X161286097Y-118916337D01*
X161284698Y-118921557D01*
X161284694Y-118921569D01*
X161226337Y-119139365D01*
X161226335Y-119139371D01*
X161224937Y-119144592D01*
X161224465Y-119149977D01*
X161224465Y-119149982D01*
X161212419Y-119287667D01*
X161204341Y-119380000D01*
X161204813Y-119385395D01*
X161219418Y-119552334D01*
X161224937Y-119615408D01*
X161226336Y-119620630D01*
X161226337Y-119620634D01*
X161284694Y-119838430D01*
X161284697Y-119838438D01*
X161286097Y-119843663D01*
X161288385Y-119848570D01*
X161288386Y-119848572D01*
X161383678Y-120052927D01*
X161383681Y-120052933D01*
X161385965Y-120057830D01*
X161389064Y-120062257D01*
X161389066Y-120062259D01*
X161518399Y-120246966D01*
X161518402Y-120246970D01*
X161521505Y-120251401D01*
X161688599Y-120418495D01*
X161693032Y-120421599D01*
X161693038Y-120421604D01*
X161874158Y-120548425D01*
X161913024Y-120592743D01*
X161927035Y-120650000D01*
X161913024Y-120707257D01*
X161874159Y-120751575D01*
X161693041Y-120878395D01*
X161688599Y-120881505D01*
X161684775Y-120885328D01*
X161684769Y-120885334D01*
X161525334Y-121044769D01*
X161525328Y-121044775D01*
X161521505Y-121048599D01*
X161518402Y-121053029D01*
X161518399Y-121053034D01*
X161389073Y-121237731D01*
X161389068Y-121237738D01*
X161385965Y-121242171D01*
X161383677Y-121247077D01*
X161383675Y-121247081D01*
X161288386Y-121451427D01*
X161288383Y-121451432D01*
X161286097Y-121456337D01*
X161284698Y-121461557D01*
X161284694Y-121461569D01*
X161226337Y-121679365D01*
X161226335Y-121679371D01*
X161224937Y-121684592D01*
X161204341Y-121920000D01*
X161224937Y-122155408D01*
X161226336Y-122160630D01*
X161226337Y-122160634D01*
X161284694Y-122378430D01*
X161284697Y-122378438D01*
X161286097Y-122383663D01*
X161288385Y-122388570D01*
X161288386Y-122388572D01*
X161383678Y-122592927D01*
X161383681Y-122592933D01*
X161385965Y-122597830D01*
X161389064Y-122602257D01*
X161389066Y-122602259D01*
X161518399Y-122786966D01*
X161518402Y-122786970D01*
X161521505Y-122791401D01*
X161688599Y-122958495D01*
X161693032Y-122961599D01*
X161693038Y-122961604D01*
X161874158Y-123088425D01*
X161913024Y-123132743D01*
X161927035Y-123190000D01*
X161913024Y-123247257D01*
X161874159Y-123291575D01*
X161693041Y-123418395D01*
X161688599Y-123421505D01*
X161684775Y-123425328D01*
X161684769Y-123425334D01*
X161525334Y-123584769D01*
X161525328Y-123584775D01*
X161521505Y-123588599D01*
X161518402Y-123593029D01*
X161518399Y-123593034D01*
X161389073Y-123777731D01*
X161389068Y-123777738D01*
X161385965Y-123782171D01*
X161383677Y-123787077D01*
X161383675Y-123787081D01*
X161288386Y-123991427D01*
X161288383Y-123991432D01*
X161286097Y-123996337D01*
X161284698Y-124001557D01*
X161284694Y-124001569D01*
X161226337Y-124219365D01*
X161226335Y-124219371D01*
X161224937Y-124224592D01*
X161224465Y-124229977D01*
X161224465Y-124229982D01*
X161212419Y-124367667D01*
X161204341Y-124460000D01*
X161204813Y-124465395D01*
X161219418Y-124632334D01*
X161224937Y-124695408D01*
X161226336Y-124700630D01*
X161226337Y-124700634D01*
X161284694Y-124918430D01*
X161284697Y-124918438D01*
X161286097Y-124923663D01*
X161288385Y-124928570D01*
X161288386Y-124928572D01*
X161383678Y-125132927D01*
X161383681Y-125132933D01*
X161385965Y-125137830D01*
X161389064Y-125142257D01*
X161389066Y-125142259D01*
X161518399Y-125326966D01*
X161518402Y-125326970D01*
X161521505Y-125331401D01*
X161688599Y-125498495D01*
X161693032Y-125501599D01*
X161693038Y-125501604D01*
X161874158Y-125628425D01*
X161913024Y-125672743D01*
X161927035Y-125730000D01*
X161913024Y-125787257D01*
X161874159Y-125831575D01*
X161693041Y-125958395D01*
X161688599Y-125961505D01*
X161684775Y-125965328D01*
X161684769Y-125965334D01*
X161525334Y-126124769D01*
X161525328Y-126124775D01*
X161521505Y-126128599D01*
X161518402Y-126133029D01*
X161518399Y-126133034D01*
X161389073Y-126317731D01*
X161389068Y-126317738D01*
X161385965Y-126322171D01*
X161383677Y-126327077D01*
X161383675Y-126327081D01*
X161288386Y-126531427D01*
X161288383Y-126531432D01*
X161286097Y-126536337D01*
X161284698Y-126541557D01*
X161284694Y-126541569D01*
X161226337Y-126759365D01*
X161226335Y-126759371D01*
X161224937Y-126764592D01*
X161204341Y-127000000D01*
X133435659Y-127000000D01*
X133415063Y-126764592D01*
X133353903Y-126536337D01*
X133254035Y-126322171D01*
X133118495Y-126128599D01*
X132951401Y-125961505D01*
X132946968Y-125958401D01*
X132946961Y-125958395D01*
X132765842Y-125831575D01*
X132726976Y-125787257D01*
X132712965Y-125730000D01*
X132726976Y-125672743D01*
X132765842Y-125628425D01*
X132946961Y-125501604D01*
X132946961Y-125501603D01*
X132951401Y-125498495D01*
X133118495Y-125331401D01*
X133254035Y-125137830D01*
X133353903Y-124923663D01*
X133415063Y-124695408D01*
X133435659Y-124460000D01*
X133415063Y-124224592D01*
X133353903Y-123996337D01*
X133254035Y-123782171D01*
X133118495Y-123588599D01*
X132951401Y-123421505D01*
X132946968Y-123418401D01*
X132946961Y-123418395D01*
X132765842Y-123291575D01*
X132726976Y-123247257D01*
X132712965Y-123190000D01*
X132726976Y-123132743D01*
X132765842Y-123088425D01*
X132946961Y-122961604D01*
X132946961Y-122961603D01*
X132951401Y-122958495D01*
X133118495Y-122791401D01*
X133254035Y-122597830D01*
X133353903Y-122383663D01*
X133415063Y-122155408D01*
X133435659Y-121920000D01*
X133415063Y-121684592D01*
X133353903Y-121456337D01*
X133254035Y-121242171D01*
X133118495Y-121048599D01*
X132951401Y-120881505D01*
X132946968Y-120878401D01*
X132946961Y-120878395D01*
X132765842Y-120751575D01*
X132726976Y-120707257D01*
X132712965Y-120650000D01*
X132726976Y-120592743D01*
X132765842Y-120548425D01*
X132946961Y-120421604D01*
X132946961Y-120421603D01*
X132951401Y-120418495D01*
X133118495Y-120251401D01*
X133254035Y-120057830D01*
X133353903Y-119843663D01*
X133415063Y-119615408D01*
X133435659Y-119380000D01*
X133415063Y-119144592D01*
X133353903Y-118916337D01*
X133254035Y-118702171D01*
X133118495Y-118508599D01*
X132951401Y-118341505D01*
X132946968Y-118338401D01*
X132946961Y-118338395D01*
X132765842Y-118211575D01*
X132726976Y-118167257D01*
X132712965Y-118110000D01*
X132726976Y-118052743D01*
X132765842Y-118008425D01*
X132946961Y-117881604D01*
X132946961Y-117881603D01*
X132951401Y-117878495D01*
X133118495Y-117711401D01*
X133254035Y-117517830D01*
X133353903Y-117303663D01*
X133415063Y-117075408D01*
X133435659Y-116840000D01*
X133415063Y-116604592D01*
X133353903Y-116376337D01*
X133254035Y-116162171D01*
X133118495Y-115968599D01*
X132951401Y-115801505D01*
X132946968Y-115798401D01*
X132946961Y-115798395D01*
X132765842Y-115671575D01*
X132726976Y-115627257D01*
X132712965Y-115570000D01*
X132726976Y-115512743D01*
X132765842Y-115468425D01*
X132946961Y-115341604D01*
X132946961Y-115341603D01*
X132951401Y-115338495D01*
X133118495Y-115171401D01*
X133254035Y-114977830D01*
X133353903Y-114763663D01*
X133415063Y-114535408D01*
X133435659Y-114300000D01*
X133415063Y-114064592D01*
X133353903Y-113836337D01*
X133254035Y-113622171D01*
X133118495Y-113428599D01*
X132951401Y-113261505D01*
X132946970Y-113258402D01*
X132946966Y-113258399D01*
X132765841Y-113131574D01*
X132726976Y-113087256D01*
X132712965Y-113029999D01*
X132726976Y-112972742D01*
X132765839Y-112928426D01*
X132951401Y-112798495D01*
X133118495Y-112631401D01*
X133254035Y-112437830D01*
X133353903Y-112223663D01*
X133415063Y-111995408D01*
X133435659Y-111760000D01*
X133415063Y-111524592D01*
X133353903Y-111296337D01*
X133254035Y-111082171D01*
X133118495Y-110888599D01*
X132951401Y-110721505D01*
X132946968Y-110718401D01*
X132946961Y-110718395D01*
X132765842Y-110591575D01*
X132726976Y-110547257D01*
X132712965Y-110490000D01*
X132726976Y-110432743D01*
X132765842Y-110388425D01*
X132946961Y-110261604D01*
X132946961Y-110261603D01*
X132951401Y-110258495D01*
X133118495Y-110091401D01*
X133254035Y-109897830D01*
X133353903Y-109683663D01*
X133415063Y-109455408D01*
X133435659Y-109220000D01*
X133415063Y-108984592D01*
X133353903Y-108756337D01*
X133254035Y-108542171D01*
X133118495Y-108348599D01*
X132951401Y-108181505D01*
X132946968Y-108178401D01*
X132946961Y-108178395D01*
X132765842Y-108051575D01*
X132726976Y-108007257D01*
X132712965Y-107950000D01*
X132726976Y-107892743D01*
X132765842Y-107848425D01*
X132946961Y-107721604D01*
X132946961Y-107721603D01*
X132951401Y-107718495D01*
X133118495Y-107551401D01*
X133254035Y-107357830D01*
X133353903Y-107143663D01*
X133415063Y-106915408D01*
X133435659Y-106680000D01*
X133415063Y-106444592D01*
X133353903Y-106216337D01*
X133254035Y-106002171D01*
X133118495Y-105808599D01*
X132951401Y-105641505D01*
X132946970Y-105638402D01*
X132946966Y-105638399D01*
X132765841Y-105511574D01*
X132726976Y-105467256D01*
X132712965Y-105409999D01*
X132726976Y-105352742D01*
X132765839Y-105308426D01*
X132951401Y-105178495D01*
X133118495Y-105011401D01*
X133254035Y-104817830D01*
X133353903Y-104603663D01*
X133415063Y-104375408D01*
X133435659Y-104140000D01*
X133415063Y-103904592D01*
X133353903Y-103676337D01*
X133254035Y-103462171D01*
X133118495Y-103268599D01*
X132951401Y-103101505D01*
X132946968Y-103098401D01*
X132946961Y-103098395D01*
X132765842Y-102971575D01*
X132726976Y-102927257D01*
X132712965Y-102870000D01*
X132726976Y-102812743D01*
X132765842Y-102768425D01*
X132946961Y-102641604D01*
X132946961Y-102641603D01*
X132951401Y-102638495D01*
X133118495Y-102471401D01*
X133254035Y-102277830D01*
X133353903Y-102063663D01*
X133415063Y-101835408D01*
X133435659Y-101600000D01*
X133415063Y-101364592D01*
X133353903Y-101136337D01*
X133254035Y-100922171D01*
X133118495Y-100728599D01*
X132951401Y-100561505D01*
X132946968Y-100558401D01*
X132946961Y-100558395D01*
X132765842Y-100431575D01*
X132726976Y-100387257D01*
X132712965Y-100330000D01*
X132726976Y-100272743D01*
X132765842Y-100228425D01*
X132946961Y-100101604D01*
X132946961Y-100101603D01*
X132951401Y-100098495D01*
X133118495Y-99931401D01*
X133254035Y-99737830D01*
X133353903Y-99523663D01*
X133415063Y-99295408D01*
X133435659Y-99060000D01*
X133415063Y-98824592D01*
X133353903Y-98596337D01*
X133254035Y-98382171D01*
X133118495Y-98188599D01*
X132951401Y-98021505D01*
X132946968Y-98018401D01*
X132946961Y-98018395D01*
X132765842Y-97891575D01*
X132726976Y-97847257D01*
X132712965Y-97790000D01*
X132726976Y-97732743D01*
X132765842Y-97688425D01*
X132946961Y-97561604D01*
X132946961Y-97561603D01*
X132951401Y-97558495D01*
X133118495Y-97391401D01*
X133254035Y-97197830D01*
X133353903Y-96983663D01*
X133415063Y-96755408D01*
X133435659Y-96520000D01*
X133415063Y-96284592D01*
X133353903Y-96056337D01*
X133254035Y-95842171D01*
X133118495Y-95648599D01*
X132951401Y-95481505D01*
X132946968Y-95478401D01*
X132946961Y-95478395D01*
X132765842Y-95351575D01*
X132726976Y-95307257D01*
X132712965Y-95250000D01*
X132726976Y-95192743D01*
X132765842Y-95148425D01*
X132946961Y-95021604D01*
X132946961Y-95021603D01*
X132951401Y-95018495D01*
X133118495Y-94851401D01*
X133254035Y-94657830D01*
X133353903Y-94443663D01*
X133415063Y-94215408D01*
X133435659Y-93980000D01*
X133415063Y-93744592D01*
X133353903Y-93516337D01*
X133254035Y-93302171D01*
X133118495Y-93108599D01*
X132951401Y-92941505D01*
X132946968Y-92938401D01*
X132946961Y-92938395D01*
X132765842Y-92811575D01*
X132726976Y-92767257D01*
X132712965Y-92710000D01*
X132726976Y-92652743D01*
X132765842Y-92608425D01*
X132946961Y-92481604D01*
X132946961Y-92481603D01*
X132951401Y-92478495D01*
X133118495Y-92311401D01*
X133254035Y-92117830D01*
X133353903Y-91903663D01*
X133415063Y-91675408D01*
X133435659Y-91440000D01*
X133415063Y-91204592D01*
X133353903Y-90976337D01*
X133254035Y-90762171D01*
X133118495Y-90568599D01*
X132951401Y-90401505D01*
X132946968Y-90398401D01*
X132946961Y-90398395D01*
X132765842Y-90271575D01*
X132726976Y-90227257D01*
X132712965Y-90170000D01*
X132726976Y-90112743D01*
X132765842Y-90068425D01*
X132946961Y-89941604D01*
X132946961Y-89941603D01*
X132951401Y-89938495D01*
X133118495Y-89771401D01*
X133254035Y-89577830D01*
X133353903Y-89363663D01*
X133415063Y-89135408D01*
X133435659Y-88900000D01*
X133415063Y-88664592D01*
X133353903Y-88436337D01*
X133254035Y-88222171D01*
X133118495Y-88028599D01*
X132951401Y-87861505D01*
X132946970Y-87858402D01*
X132946966Y-87858399D01*
X132765841Y-87731574D01*
X132726976Y-87687256D01*
X132712965Y-87629999D01*
X132726976Y-87572742D01*
X132765839Y-87528426D01*
X132951401Y-87398495D01*
X133118495Y-87231401D01*
X133254035Y-87037830D01*
X133353903Y-86823663D01*
X133415063Y-86595408D01*
X133435659Y-86360000D01*
X133415063Y-86124592D01*
X133353903Y-85896337D01*
X133254035Y-85682171D01*
X133118495Y-85488599D01*
X132951401Y-85321505D01*
X132946968Y-85318401D01*
X132946961Y-85318395D01*
X132765842Y-85191575D01*
X132726976Y-85147257D01*
X132712965Y-85090000D01*
X132726976Y-85032743D01*
X132765842Y-84988425D01*
X132946961Y-84861604D01*
X132946961Y-84861603D01*
X132951401Y-84858495D01*
X133118495Y-84691401D01*
X133254035Y-84497830D01*
X133353903Y-84283663D01*
X133415063Y-84055408D01*
X133435659Y-83820000D01*
X133415063Y-83584592D01*
X133353903Y-83356337D01*
X133254035Y-83142171D01*
X133118495Y-82948599D01*
X132951401Y-82781505D01*
X132946968Y-82778401D01*
X132946961Y-82778395D01*
X132765842Y-82651575D01*
X132726976Y-82607257D01*
X132712965Y-82550000D01*
X132726976Y-82492743D01*
X132765842Y-82448425D01*
X132946961Y-82321604D01*
X132946961Y-82321603D01*
X132951401Y-82318495D01*
X133118495Y-82151401D01*
X133254035Y-81957830D01*
X133353903Y-81743663D01*
X133415063Y-81515408D01*
X133435659Y-81280000D01*
X133415063Y-81044592D01*
X133353903Y-80816337D01*
X133254035Y-80602171D01*
X133118495Y-80408599D01*
X132951401Y-80241505D01*
X132946968Y-80238401D01*
X132946961Y-80238395D01*
X132765842Y-80111575D01*
X132726976Y-80067257D01*
X132712965Y-80010000D01*
X132726976Y-79952743D01*
X132765842Y-79908425D01*
X132946961Y-79781604D01*
X132946961Y-79781603D01*
X132951401Y-79778495D01*
X133118495Y-79611401D01*
X133254035Y-79417830D01*
X133353903Y-79203663D01*
X133415063Y-78975408D01*
X133435659Y-78740000D01*
X133415063Y-78504592D01*
X133353903Y-78276337D01*
X133254035Y-78062171D01*
X133118495Y-77868599D01*
X132951401Y-77701505D01*
X132946968Y-77698401D01*
X132946961Y-77698395D01*
X132765842Y-77571575D01*
X132726976Y-77527257D01*
X132712965Y-77470000D01*
X132726976Y-77412743D01*
X132765842Y-77368425D01*
X132946961Y-77241604D01*
X132946961Y-77241603D01*
X132951401Y-77238495D01*
X133118495Y-77071401D01*
X133254035Y-76877830D01*
X133353903Y-76663663D01*
X133415063Y-76435408D01*
X133435659Y-76200000D01*
X133415063Y-75964592D01*
X133353903Y-75736337D01*
X133254035Y-75522171D01*
X133118495Y-75328599D01*
X132951401Y-75161505D01*
X132946968Y-75158401D01*
X132946961Y-75158395D01*
X132765842Y-75031575D01*
X132726976Y-74987257D01*
X132712965Y-74930000D01*
X132726976Y-74872743D01*
X132765842Y-74828425D01*
X132946961Y-74701604D01*
X132946961Y-74701603D01*
X132951401Y-74698495D01*
X133118495Y-74531401D01*
X133254035Y-74337830D01*
X133353903Y-74123663D01*
X133415063Y-73895408D01*
X133435659Y-73660000D01*
X133415063Y-73424592D01*
X133353903Y-73196337D01*
X133254035Y-72982171D01*
X133118495Y-72788599D01*
X132951401Y-72621505D01*
X132946968Y-72618401D01*
X132946961Y-72618395D01*
X132765842Y-72491575D01*
X132726976Y-72447257D01*
X132712965Y-72390000D01*
X132726976Y-72332743D01*
X132765842Y-72288425D01*
X132946961Y-72161604D01*
X132946961Y-72161603D01*
X132951401Y-72158495D01*
X133118495Y-71991401D01*
X133254035Y-71797830D01*
X133353903Y-71583663D01*
X133415063Y-71355408D01*
X133435659Y-71120000D01*
X133415063Y-70884592D01*
X133353903Y-70656337D01*
X133254035Y-70442171D01*
X133118495Y-70248599D01*
X132996181Y-70126285D01*
X132964885Y-70073539D01*
X132962696Y-70012246D01*
X132990149Y-69957401D01*
X133040529Y-69922422D01*
X133163777Y-69876452D01*
X133179189Y-69868037D01*
X133280092Y-69792501D01*
X133292501Y-69780092D01*
X133368037Y-69679189D01*
X133376452Y-69663777D01*
X133420888Y-69544641D01*
X133424426Y-69529667D01*
X133429646Y-69481114D01*
X133430000Y-69474518D01*
X133430000Y-68846326D01*
X133426549Y-68833450D01*
X133413674Y-68830000D01*
X128223631Y-68830000D01*
X128212688Y-68832551D01*
X128213056Y-68843780D01*
X128265168Y-69038263D01*
X128268856Y-69048397D01*
X128364113Y-69252676D01*
X128369501Y-69262008D01*
X128498784Y-69446643D01*
X128505721Y-69454909D01*
X128665090Y-69614278D01*
X128673356Y-69621215D01*
X128854595Y-69748120D01*
X128893460Y-69792438D01*
X128907471Y-69849695D01*
X128893460Y-69906952D01*
X128854594Y-69951270D01*
X128673034Y-70078399D01*
X128673029Y-70078402D01*
X128668599Y-70081505D01*
X128664775Y-70085328D01*
X128664769Y-70085334D01*
X128505334Y-70244769D01*
X128505328Y-70244775D01*
X128501505Y-70248599D01*
X128498402Y-70253029D01*
X128498399Y-70253034D01*
X128369073Y-70437731D01*
X128369068Y-70437738D01*
X128365965Y-70442171D01*
X128363677Y-70447077D01*
X128363675Y-70447081D01*
X128268386Y-70651427D01*
X128268383Y-70651432D01*
X128266097Y-70656337D01*
X128264698Y-70661557D01*
X128264694Y-70661569D01*
X128206337Y-70879365D01*
X128206335Y-70879371D01*
X128204937Y-70884592D01*
X128184341Y-71120000D01*
X128204937Y-71355408D01*
X128206336Y-71360630D01*
X128206337Y-71360634D01*
X128264694Y-71578430D01*
X128264697Y-71578438D01*
X128266097Y-71583663D01*
X128268385Y-71588570D01*
X128268386Y-71588572D01*
X128363678Y-71792927D01*
X128363681Y-71792933D01*
X128365965Y-71797830D01*
X128369064Y-71802257D01*
X128369066Y-71802259D01*
X128498399Y-71986966D01*
X128498402Y-71986970D01*
X128501505Y-71991401D01*
X128668599Y-72158495D01*
X128673031Y-72161598D01*
X128673033Y-72161600D01*
X128854595Y-72288731D01*
X128893460Y-72333049D01*
X128907471Y-72390306D01*
X128893460Y-72447563D01*
X128854595Y-72491881D01*
X128673352Y-72618788D01*
X128665092Y-72625719D01*
X128505719Y-72785092D01*
X128498784Y-72793357D01*
X128369508Y-72977982D01*
X128364110Y-72987332D01*
X128268856Y-73191602D01*
X128265168Y-73201736D01*
X128213056Y-73396219D01*
X128212688Y-73407448D01*
X128223631Y-73410000D01*
X129666000Y-73410000D01*
X129728000Y-73426613D01*
X129773387Y-73472000D01*
X129790000Y-73534000D01*
X129790000Y-73786000D01*
X129773387Y-73848000D01*
X129728000Y-73893387D01*
X129666000Y-73910000D01*
X128223631Y-73910000D01*
X128212688Y-73912551D01*
X128213056Y-73923780D01*
X128265168Y-74118263D01*
X128268856Y-74128397D01*
X128364113Y-74332676D01*
X128369501Y-74342008D01*
X128498784Y-74526643D01*
X128505721Y-74534909D01*
X128665090Y-74694278D01*
X128673356Y-74701215D01*
X128854595Y-74828120D01*
X128893460Y-74872438D01*
X128907471Y-74929695D01*
X128893460Y-74986952D01*
X128854594Y-75031270D01*
X128673034Y-75158399D01*
X128673029Y-75158402D01*
X128668599Y-75161505D01*
X128664775Y-75165328D01*
X128664769Y-75165334D01*
X128505334Y-75324769D01*
X128505328Y-75324775D01*
X128501505Y-75328599D01*
X128498402Y-75333029D01*
X128498399Y-75333034D01*
X128369073Y-75517731D01*
X128369068Y-75517738D01*
X128365965Y-75522171D01*
X128363677Y-75527077D01*
X128363675Y-75527081D01*
X128268386Y-75731427D01*
X128268383Y-75731432D01*
X128266097Y-75736337D01*
X128264698Y-75741557D01*
X128264694Y-75741569D01*
X128206337Y-75959365D01*
X128206335Y-75959371D01*
X128204937Y-75964592D01*
X128204465Y-75969977D01*
X128204465Y-75969982D01*
X128192419Y-76107667D01*
X128184341Y-76200000D01*
X128184813Y-76205395D01*
X128199418Y-76372334D01*
X128204937Y-76435408D01*
X128206336Y-76440630D01*
X128206337Y-76440634D01*
X128264694Y-76658430D01*
X128264697Y-76658438D01*
X128266097Y-76663663D01*
X128268385Y-76668570D01*
X128268386Y-76668572D01*
X128363678Y-76872927D01*
X128363681Y-76872933D01*
X128365965Y-76877830D01*
X128369064Y-76882257D01*
X128369066Y-76882259D01*
X128498399Y-77066966D01*
X128498402Y-77066970D01*
X128501505Y-77071401D01*
X128668599Y-77238495D01*
X128673032Y-77241599D01*
X128673038Y-77241604D01*
X128854158Y-77368425D01*
X128893024Y-77412743D01*
X128907035Y-77470000D01*
X128893024Y-77527257D01*
X128854159Y-77571575D01*
X128673041Y-77698395D01*
X128668599Y-77701505D01*
X128664775Y-77705328D01*
X128664769Y-77705334D01*
X128505334Y-77864769D01*
X128505328Y-77864775D01*
X128501505Y-77868599D01*
X128498402Y-77873029D01*
X128498399Y-77873034D01*
X128369073Y-78057731D01*
X128369068Y-78057738D01*
X128365965Y-78062171D01*
X128363677Y-78067077D01*
X128363675Y-78067081D01*
X128268386Y-78271427D01*
X128268383Y-78271432D01*
X128266097Y-78276337D01*
X128264698Y-78281557D01*
X128264694Y-78281569D01*
X128206337Y-78499365D01*
X128206335Y-78499371D01*
X128204937Y-78504592D01*
X128204465Y-78509977D01*
X128204465Y-78509982D01*
X128184947Y-78733077D01*
X128184341Y-78740000D01*
X128184813Y-78745395D01*
X128199418Y-78912334D01*
X128204937Y-78975408D01*
X128206336Y-78980630D01*
X128206337Y-78980634D01*
X128264694Y-79198430D01*
X128264697Y-79198438D01*
X128266097Y-79203663D01*
X128268385Y-79208570D01*
X128268386Y-79208572D01*
X128363678Y-79412927D01*
X128363681Y-79412933D01*
X128365965Y-79417830D01*
X128369064Y-79422257D01*
X128369066Y-79422259D01*
X128498399Y-79606966D01*
X128498402Y-79606970D01*
X128501505Y-79611401D01*
X128668599Y-79778495D01*
X128673032Y-79781599D01*
X128673038Y-79781604D01*
X128854158Y-79908425D01*
X128893024Y-79952743D01*
X128907035Y-80010000D01*
X128893024Y-80067257D01*
X128854159Y-80111575D01*
X128673041Y-80238395D01*
X128668599Y-80241505D01*
X128664775Y-80245328D01*
X128664769Y-80245334D01*
X128505334Y-80404769D01*
X128505328Y-80404775D01*
X128501505Y-80408599D01*
X128498402Y-80413029D01*
X128498399Y-80413034D01*
X128369073Y-80597731D01*
X128369068Y-80597738D01*
X128365965Y-80602171D01*
X128363677Y-80607077D01*
X128363675Y-80607081D01*
X128268386Y-80811427D01*
X128268383Y-80811432D01*
X128266097Y-80816337D01*
X128264698Y-80821557D01*
X128264694Y-80821569D01*
X128206337Y-81039365D01*
X128206335Y-81039371D01*
X128204937Y-81044592D01*
X128204465Y-81049977D01*
X128204465Y-81049982D01*
X128188496Y-81232513D01*
X128184341Y-81280000D01*
X128184813Y-81285395D01*
X128199418Y-81452334D01*
X128204937Y-81515408D01*
X128206336Y-81520630D01*
X128206337Y-81520634D01*
X128264694Y-81738430D01*
X128264697Y-81738438D01*
X128266097Y-81743663D01*
X128268385Y-81748570D01*
X128268386Y-81748572D01*
X128363678Y-81952927D01*
X128363681Y-81952933D01*
X128365965Y-81957830D01*
X128369064Y-81962257D01*
X128369066Y-81962259D01*
X128498399Y-82146966D01*
X128498402Y-82146970D01*
X128501505Y-82151401D01*
X128668599Y-82318495D01*
X128673032Y-82321599D01*
X128673038Y-82321604D01*
X128854158Y-82448425D01*
X128893024Y-82492743D01*
X128907035Y-82550000D01*
X128893024Y-82607257D01*
X128854159Y-82651575D01*
X128673041Y-82778395D01*
X128668599Y-82781505D01*
X128664775Y-82785328D01*
X128664769Y-82785334D01*
X128505334Y-82944769D01*
X128505328Y-82944775D01*
X128501505Y-82948599D01*
X128498402Y-82953029D01*
X128498399Y-82953034D01*
X128369073Y-83137731D01*
X128369068Y-83137738D01*
X128365965Y-83142171D01*
X128363677Y-83147077D01*
X128363675Y-83147081D01*
X128268386Y-83351427D01*
X128268383Y-83351432D01*
X128266097Y-83356337D01*
X128264698Y-83361557D01*
X128264694Y-83361569D01*
X128206337Y-83579365D01*
X128206335Y-83579371D01*
X128204937Y-83584592D01*
X128184341Y-83820000D01*
X128204937Y-84055408D01*
X128206336Y-84060630D01*
X128206337Y-84060634D01*
X128264694Y-84278430D01*
X128264697Y-84278438D01*
X128266097Y-84283663D01*
X128268385Y-84288570D01*
X128268386Y-84288572D01*
X128363678Y-84492927D01*
X128363681Y-84492933D01*
X128365965Y-84497830D01*
X128369064Y-84502257D01*
X128369066Y-84502259D01*
X128498399Y-84686966D01*
X128498402Y-84686970D01*
X128501505Y-84691401D01*
X128668599Y-84858495D01*
X128673032Y-84861599D01*
X128673038Y-84861604D01*
X128854158Y-84988425D01*
X128893024Y-85032743D01*
X128907035Y-85090000D01*
X128893024Y-85147257D01*
X128854159Y-85191575D01*
X128673041Y-85318395D01*
X128668599Y-85321505D01*
X128664775Y-85325328D01*
X128664769Y-85325334D01*
X128505334Y-85484769D01*
X128505328Y-85484775D01*
X128501505Y-85488599D01*
X128498402Y-85493029D01*
X128498399Y-85493034D01*
X128369073Y-85677731D01*
X128369068Y-85677738D01*
X128365965Y-85682171D01*
X128363677Y-85687077D01*
X128363675Y-85687081D01*
X128268386Y-85891427D01*
X128268383Y-85891432D01*
X128266097Y-85896337D01*
X128264698Y-85901557D01*
X128264694Y-85901569D01*
X128206337Y-86119365D01*
X128206335Y-86119371D01*
X128204937Y-86124592D01*
X128184341Y-86360000D01*
X128204937Y-86595408D01*
X128206336Y-86600630D01*
X128206337Y-86600634D01*
X128264694Y-86818430D01*
X128264697Y-86818438D01*
X128266097Y-86823663D01*
X128268385Y-86828570D01*
X128268386Y-86828572D01*
X128363678Y-87032927D01*
X128363681Y-87032933D01*
X128365965Y-87037830D01*
X128369064Y-87042257D01*
X128369066Y-87042259D01*
X128498399Y-87226966D01*
X128498402Y-87226970D01*
X128501505Y-87231401D01*
X128668599Y-87398495D01*
X128673032Y-87401599D01*
X128673038Y-87401604D01*
X128854158Y-87528425D01*
X128893024Y-87572743D01*
X128907035Y-87630000D01*
X128893024Y-87687257D01*
X128854160Y-87731574D01*
X128668599Y-87861505D01*
X128664775Y-87865328D01*
X128664769Y-87865334D01*
X128505334Y-88024769D01*
X128505328Y-88024775D01*
X128501505Y-88028599D01*
X128498402Y-88033029D01*
X128498399Y-88033034D01*
X128369073Y-88217731D01*
X128369068Y-88217738D01*
X128365965Y-88222171D01*
X128363677Y-88227077D01*
X128363675Y-88227081D01*
X128268386Y-88431427D01*
X128268383Y-88431432D01*
X128266097Y-88436337D01*
X128264698Y-88441557D01*
X128264694Y-88441569D01*
X128206337Y-88659365D01*
X128206335Y-88659371D01*
X128204937Y-88664592D01*
X128204465Y-88669977D01*
X128204465Y-88669982D01*
X128184947Y-88893077D01*
X128184341Y-88900000D01*
X128184813Y-88905395D01*
X128199418Y-89072334D01*
X128204937Y-89135408D01*
X128206336Y-89140630D01*
X128206337Y-89140634D01*
X128264694Y-89358430D01*
X128264697Y-89358438D01*
X128266097Y-89363663D01*
X128268385Y-89368570D01*
X128268386Y-89368572D01*
X128363678Y-89572927D01*
X128363681Y-89572933D01*
X128365965Y-89577830D01*
X128369064Y-89582257D01*
X128369066Y-89582259D01*
X128498399Y-89766966D01*
X128498402Y-89766970D01*
X128501505Y-89771401D01*
X128668599Y-89938495D01*
X128673032Y-89941599D01*
X128673038Y-89941604D01*
X128854158Y-90068425D01*
X128893024Y-90112743D01*
X128907035Y-90170000D01*
X128893024Y-90227257D01*
X128854159Y-90271575D01*
X128673041Y-90398395D01*
X128668599Y-90401505D01*
X128664775Y-90405328D01*
X128664769Y-90405334D01*
X128505334Y-90564769D01*
X128505328Y-90564775D01*
X128501505Y-90568599D01*
X128498402Y-90573029D01*
X128498399Y-90573034D01*
X128369073Y-90757731D01*
X128369068Y-90757738D01*
X128365965Y-90762171D01*
X128363677Y-90767077D01*
X128363675Y-90767081D01*
X128268386Y-90971427D01*
X128268383Y-90971432D01*
X128266097Y-90976337D01*
X128264698Y-90981557D01*
X128264694Y-90981569D01*
X128206337Y-91199365D01*
X128206335Y-91199371D01*
X128204937Y-91204592D01*
X128184341Y-91440000D01*
X128204937Y-91675408D01*
X128206336Y-91680630D01*
X128206337Y-91680634D01*
X128264694Y-91898430D01*
X128264697Y-91898438D01*
X128266097Y-91903663D01*
X128268385Y-91908570D01*
X128268386Y-91908572D01*
X128363678Y-92112927D01*
X128363681Y-92112933D01*
X128365965Y-92117830D01*
X128369064Y-92122257D01*
X128369066Y-92122259D01*
X128498399Y-92306966D01*
X128498402Y-92306970D01*
X128501505Y-92311401D01*
X128668599Y-92478495D01*
X128673032Y-92481599D01*
X128673038Y-92481604D01*
X128854158Y-92608425D01*
X128893024Y-92652743D01*
X128907035Y-92710000D01*
X128893024Y-92767257D01*
X128854159Y-92811575D01*
X128673041Y-92938395D01*
X128668599Y-92941505D01*
X128664775Y-92945328D01*
X128664769Y-92945334D01*
X128505334Y-93104769D01*
X128505328Y-93104775D01*
X128501505Y-93108599D01*
X128498402Y-93113029D01*
X128498399Y-93113034D01*
X128369073Y-93297731D01*
X128369068Y-93297738D01*
X128365965Y-93302171D01*
X128363677Y-93307077D01*
X128363675Y-93307081D01*
X128268386Y-93511427D01*
X128268383Y-93511432D01*
X128266097Y-93516337D01*
X128264698Y-93521557D01*
X128264694Y-93521569D01*
X128206337Y-93739365D01*
X128206335Y-93739371D01*
X128204937Y-93744592D01*
X128184341Y-93980000D01*
X128204937Y-94215408D01*
X128206336Y-94220630D01*
X128206337Y-94220634D01*
X128264694Y-94438430D01*
X128264697Y-94438438D01*
X128266097Y-94443663D01*
X128268385Y-94448570D01*
X128268386Y-94448572D01*
X128363678Y-94652927D01*
X128363681Y-94652933D01*
X128365965Y-94657830D01*
X128369064Y-94662257D01*
X128369066Y-94662259D01*
X128498399Y-94846966D01*
X128498402Y-94846970D01*
X128501505Y-94851401D01*
X128668599Y-95018495D01*
X128673031Y-95021598D01*
X128673033Y-95021600D01*
X128854595Y-95148731D01*
X128893460Y-95193049D01*
X128907471Y-95250306D01*
X128893460Y-95307563D01*
X128854595Y-95351881D01*
X128673352Y-95478788D01*
X128665092Y-95485719D01*
X128505719Y-95645092D01*
X128498784Y-95653357D01*
X128369508Y-95837982D01*
X128364110Y-95847332D01*
X128268856Y-96051602D01*
X128265168Y-96061736D01*
X128213056Y-96256219D01*
X128212688Y-96267448D01*
X128223631Y-96270000D01*
X129666000Y-96270000D01*
X129728000Y-96286613D01*
X129773387Y-96332000D01*
X129790000Y-96394000D01*
X129790000Y-96646000D01*
X129773387Y-96708000D01*
X129728000Y-96753387D01*
X129666000Y-96770000D01*
X128223631Y-96770000D01*
X128212688Y-96772551D01*
X128213056Y-96783780D01*
X128265168Y-96978263D01*
X128268856Y-96988397D01*
X128364113Y-97192676D01*
X128369501Y-97202008D01*
X128498784Y-97386643D01*
X128505721Y-97394909D01*
X128665090Y-97554278D01*
X128673356Y-97561215D01*
X128854595Y-97688120D01*
X128893460Y-97732438D01*
X128907471Y-97789695D01*
X128893460Y-97846952D01*
X128854594Y-97891270D01*
X128673034Y-98018399D01*
X128673029Y-98018402D01*
X128668599Y-98021505D01*
X128664775Y-98025328D01*
X128664769Y-98025334D01*
X128505334Y-98184769D01*
X128505328Y-98184775D01*
X128501505Y-98188599D01*
X128498402Y-98193029D01*
X128498399Y-98193034D01*
X128369073Y-98377731D01*
X128369068Y-98377738D01*
X128365965Y-98382171D01*
X128363677Y-98387077D01*
X128363675Y-98387081D01*
X128268386Y-98591427D01*
X128268383Y-98591432D01*
X128266097Y-98596337D01*
X128264698Y-98601557D01*
X128264694Y-98601569D01*
X128206337Y-98819365D01*
X128206335Y-98819371D01*
X128204937Y-98824592D01*
X128184341Y-99060000D01*
X128204937Y-99295408D01*
X128206336Y-99300630D01*
X128206337Y-99300634D01*
X128264694Y-99518430D01*
X128264697Y-99518438D01*
X128266097Y-99523663D01*
X128268385Y-99528570D01*
X128268386Y-99528572D01*
X128363678Y-99732927D01*
X128363681Y-99732933D01*
X128365965Y-99737830D01*
X128369064Y-99742257D01*
X128369066Y-99742259D01*
X128498399Y-99926966D01*
X128498402Y-99926970D01*
X128501505Y-99931401D01*
X128668599Y-100098495D01*
X128673032Y-100101599D01*
X128673038Y-100101604D01*
X128854158Y-100228425D01*
X128893024Y-100272743D01*
X128907035Y-100330000D01*
X128893024Y-100387257D01*
X128854159Y-100431575D01*
X128673041Y-100558395D01*
X128668599Y-100561505D01*
X128664775Y-100565328D01*
X128664769Y-100565334D01*
X128505334Y-100724769D01*
X128505328Y-100724775D01*
X128501505Y-100728599D01*
X128498402Y-100733029D01*
X128498399Y-100733034D01*
X128369073Y-100917731D01*
X128369068Y-100917738D01*
X128365965Y-100922171D01*
X128363677Y-100927077D01*
X128363675Y-100927081D01*
X128268386Y-101131427D01*
X128268383Y-101131432D01*
X128266097Y-101136337D01*
X128264698Y-101141557D01*
X128264694Y-101141569D01*
X128206337Y-101359365D01*
X128206335Y-101359371D01*
X128204937Y-101364592D01*
X128184341Y-101600000D01*
X128204937Y-101835408D01*
X128206336Y-101840630D01*
X128206337Y-101840634D01*
X128264694Y-102058430D01*
X128264697Y-102058438D01*
X128266097Y-102063663D01*
X128268385Y-102068570D01*
X128268386Y-102068572D01*
X128363678Y-102272927D01*
X128363681Y-102272933D01*
X128365965Y-102277830D01*
X128369064Y-102282257D01*
X128369066Y-102282259D01*
X128498399Y-102466966D01*
X128498402Y-102466970D01*
X128501505Y-102471401D01*
X128668599Y-102638495D01*
X128673032Y-102641599D01*
X128673038Y-102641604D01*
X128854158Y-102768425D01*
X128893024Y-102812743D01*
X128907035Y-102870000D01*
X128893024Y-102927257D01*
X128854159Y-102971575D01*
X128673041Y-103098395D01*
X128668599Y-103101505D01*
X128664775Y-103105328D01*
X128664769Y-103105334D01*
X128505334Y-103264769D01*
X128505328Y-103264775D01*
X128501505Y-103268599D01*
X128498402Y-103273029D01*
X128498399Y-103273034D01*
X128369073Y-103457731D01*
X128369068Y-103457738D01*
X128365965Y-103462171D01*
X128363677Y-103467077D01*
X128363675Y-103467081D01*
X128268386Y-103671427D01*
X128268383Y-103671432D01*
X128266097Y-103676337D01*
X128264698Y-103681557D01*
X128264694Y-103681569D01*
X128206337Y-103899365D01*
X128206335Y-103899371D01*
X128204937Y-103904592D01*
X128184341Y-104140000D01*
X128204937Y-104375408D01*
X128206336Y-104380630D01*
X128206337Y-104380634D01*
X128264694Y-104598430D01*
X128264697Y-104598438D01*
X128266097Y-104603663D01*
X128268385Y-104608570D01*
X128268386Y-104608572D01*
X128363678Y-104812927D01*
X128363681Y-104812933D01*
X128365965Y-104817830D01*
X128369064Y-104822257D01*
X128369066Y-104822259D01*
X128498399Y-105006966D01*
X128498402Y-105006970D01*
X128501505Y-105011401D01*
X128668599Y-105178495D01*
X128673032Y-105181599D01*
X128673038Y-105181604D01*
X128854158Y-105308425D01*
X128893024Y-105352743D01*
X128907035Y-105410000D01*
X128893024Y-105467257D01*
X128854159Y-105511575D01*
X128733839Y-105595824D01*
X128668599Y-105641505D01*
X128664775Y-105645328D01*
X128664769Y-105645334D01*
X128505334Y-105804769D01*
X128505328Y-105804775D01*
X128501505Y-105808599D01*
X128498402Y-105813029D01*
X128498399Y-105813034D01*
X128369073Y-105997731D01*
X128369068Y-105997738D01*
X128365965Y-106002171D01*
X128363677Y-106007077D01*
X128363675Y-106007081D01*
X128268386Y-106211427D01*
X128268383Y-106211432D01*
X128266097Y-106216337D01*
X128264698Y-106221557D01*
X128264694Y-106221569D01*
X128206337Y-106439365D01*
X128206335Y-106439371D01*
X128204937Y-106444592D01*
X128184341Y-106680000D01*
X128204937Y-106915408D01*
X128206336Y-106920630D01*
X128206337Y-106920634D01*
X128264694Y-107138430D01*
X128264697Y-107138438D01*
X128266097Y-107143663D01*
X128268385Y-107148570D01*
X128268386Y-107148572D01*
X128363678Y-107352927D01*
X128363681Y-107352933D01*
X128365965Y-107357830D01*
X128369064Y-107362257D01*
X128369066Y-107362259D01*
X128498399Y-107546966D01*
X128498402Y-107546970D01*
X128501505Y-107551401D01*
X128668599Y-107718495D01*
X128673032Y-107721599D01*
X128673038Y-107721604D01*
X128854158Y-107848425D01*
X128893024Y-107892743D01*
X128907035Y-107950000D01*
X128893024Y-108007257D01*
X128854159Y-108051575D01*
X128673041Y-108178395D01*
X128668599Y-108181505D01*
X128664775Y-108185328D01*
X128664769Y-108185334D01*
X128505334Y-108344769D01*
X128505328Y-108344775D01*
X128501505Y-108348599D01*
X128498402Y-108353029D01*
X128498399Y-108353034D01*
X128369073Y-108537731D01*
X128369068Y-108537738D01*
X128365965Y-108542171D01*
X128363677Y-108547077D01*
X128363675Y-108547081D01*
X128268386Y-108751427D01*
X128268383Y-108751432D01*
X128266097Y-108756337D01*
X128264698Y-108761557D01*
X128264694Y-108761569D01*
X128206337Y-108979365D01*
X128206335Y-108979371D01*
X128204937Y-108984592D01*
X128184341Y-109220000D01*
X128204937Y-109455408D01*
X128206336Y-109460630D01*
X128206337Y-109460634D01*
X128264694Y-109678430D01*
X128264697Y-109678438D01*
X128266097Y-109683663D01*
X128268385Y-109688570D01*
X128268386Y-109688572D01*
X128363678Y-109892927D01*
X128363681Y-109892933D01*
X128365965Y-109897830D01*
X128369064Y-109902257D01*
X128369066Y-109902259D01*
X128498399Y-110086966D01*
X128498402Y-110086970D01*
X128501505Y-110091401D01*
X128668599Y-110258495D01*
X128673032Y-110261599D01*
X128673038Y-110261604D01*
X128854158Y-110388425D01*
X128893024Y-110432743D01*
X128907035Y-110490000D01*
X128893024Y-110547257D01*
X128854159Y-110591575D01*
X128673041Y-110718395D01*
X128668599Y-110721505D01*
X128664775Y-110725328D01*
X128664769Y-110725334D01*
X128505334Y-110884769D01*
X128505328Y-110884775D01*
X128501505Y-110888599D01*
X128498402Y-110893029D01*
X128498399Y-110893034D01*
X128369073Y-111077731D01*
X128369068Y-111077738D01*
X128365965Y-111082171D01*
X128363677Y-111087077D01*
X128363675Y-111087081D01*
X128268386Y-111291427D01*
X128268383Y-111291432D01*
X128266097Y-111296337D01*
X128264698Y-111301557D01*
X128264694Y-111301569D01*
X128206337Y-111519365D01*
X128206335Y-111519371D01*
X128204937Y-111524592D01*
X128184341Y-111760000D01*
X128204937Y-111995408D01*
X128206336Y-112000630D01*
X128206337Y-112000634D01*
X128264694Y-112218430D01*
X128264697Y-112218438D01*
X128266097Y-112223663D01*
X128268385Y-112228570D01*
X128268386Y-112228572D01*
X128363678Y-112432927D01*
X128363681Y-112432933D01*
X128365965Y-112437830D01*
X128369064Y-112442257D01*
X128369066Y-112442259D01*
X128498399Y-112626966D01*
X128498402Y-112626970D01*
X128501505Y-112631401D01*
X128668599Y-112798495D01*
X128673032Y-112801599D01*
X128673038Y-112801604D01*
X128854158Y-112928425D01*
X128893024Y-112972743D01*
X128907035Y-113030000D01*
X128893024Y-113087257D01*
X128854159Y-113131575D01*
X128733839Y-113215824D01*
X128668599Y-113261505D01*
X128664775Y-113265328D01*
X128664769Y-113265334D01*
X128505334Y-113424769D01*
X128505328Y-113424775D01*
X128501505Y-113428599D01*
X128498402Y-113433029D01*
X128498399Y-113433034D01*
X128369073Y-113617731D01*
X128369068Y-113617738D01*
X128365965Y-113622171D01*
X128363677Y-113627077D01*
X128363675Y-113627081D01*
X128268386Y-113831427D01*
X128268383Y-113831432D01*
X128266097Y-113836337D01*
X128264698Y-113841557D01*
X128264694Y-113841569D01*
X128206337Y-114059365D01*
X128206335Y-114059371D01*
X128204937Y-114064592D01*
X128184341Y-114300000D01*
X128204937Y-114535408D01*
X128206336Y-114540630D01*
X128206337Y-114540634D01*
X128264694Y-114758430D01*
X128264697Y-114758438D01*
X128266097Y-114763663D01*
X128268385Y-114768570D01*
X128268386Y-114768572D01*
X128363678Y-114972927D01*
X128363681Y-114972933D01*
X128365965Y-114977830D01*
X128369064Y-114982257D01*
X128369066Y-114982259D01*
X128498399Y-115166966D01*
X128498402Y-115166970D01*
X128501505Y-115171401D01*
X128668599Y-115338495D01*
X128673032Y-115341599D01*
X128673038Y-115341604D01*
X128854158Y-115468425D01*
X128893024Y-115512743D01*
X128907035Y-115570000D01*
X128893024Y-115627257D01*
X128854159Y-115671575D01*
X128673041Y-115798395D01*
X128668599Y-115801505D01*
X128664775Y-115805328D01*
X128664769Y-115805334D01*
X128505334Y-115964769D01*
X128505328Y-115964775D01*
X128501505Y-115968599D01*
X128498402Y-115973029D01*
X128498399Y-115973034D01*
X128369073Y-116157731D01*
X128369068Y-116157738D01*
X128365965Y-116162171D01*
X128363677Y-116167077D01*
X128363675Y-116167081D01*
X128268386Y-116371427D01*
X128268383Y-116371432D01*
X128266097Y-116376337D01*
X128264698Y-116381557D01*
X128264694Y-116381569D01*
X128206337Y-116599365D01*
X128206335Y-116599371D01*
X128204937Y-116604592D01*
X128204465Y-116609977D01*
X128204465Y-116609982D01*
X128184947Y-116833077D01*
X128184341Y-116840000D01*
X128184813Y-116845395D01*
X128199418Y-117012334D01*
X128204937Y-117075408D01*
X128206336Y-117080630D01*
X128206337Y-117080634D01*
X128264694Y-117298430D01*
X128264697Y-117298438D01*
X128266097Y-117303663D01*
X128268385Y-117308570D01*
X128268386Y-117308572D01*
X128363678Y-117512927D01*
X128363681Y-117512933D01*
X128365965Y-117517830D01*
X128369064Y-117522257D01*
X128369066Y-117522259D01*
X128498399Y-117706966D01*
X128498402Y-117706970D01*
X128501505Y-117711401D01*
X128668599Y-117878495D01*
X128673032Y-117881599D01*
X128673038Y-117881604D01*
X128854158Y-118008425D01*
X128893024Y-118052743D01*
X128907035Y-118110000D01*
X128893024Y-118167257D01*
X128854159Y-118211575D01*
X128673041Y-118338395D01*
X128668599Y-118341505D01*
X128664775Y-118345328D01*
X128664769Y-118345334D01*
X128505334Y-118504769D01*
X128505328Y-118504775D01*
X128501505Y-118508599D01*
X128498402Y-118513029D01*
X128498399Y-118513034D01*
X128369073Y-118697731D01*
X128369068Y-118697738D01*
X128365965Y-118702171D01*
X128363677Y-118707077D01*
X128363675Y-118707081D01*
X128268386Y-118911427D01*
X128268383Y-118911432D01*
X128266097Y-118916337D01*
X128264698Y-118921557D01*
X128264694Y-118921569D01*
X128206337Y-119139365D01*
X128206335Y-119139371D01*
X128204937Y-119144592D01*
X128204465Y-119149977D01*
X128204465Y-119149982D01*
X128192419Y-119287667D01*
X128184341Y-119380000D01*
X128184813Y-119385395D01*
X128199418Y-119552334D01*
X128204937Y-119615408D01*
X128206336Y-119620630D01*
X128206337Y-119620634D01*
X128264694Y-119838430D01*
X128264697Y-119838438D01*
X128266097Y-119843663D01*
X128268385Y-119848570D01*
X128268386Y-119848572D01*
X128363678Y-120052927D01*
X128363681Y-120052933D01*
X128365965Y-120057830D01*
X128369064Y-120062257D01*
X128369066Y-120062259D01*
X128498399Y-120246966D01*
X128498402Y-120246970D01*
X128501505Y-120251401D01*
X128668599Y-120418495D01*
X128673032Y-120421599D01*
X128673038Y-120421604D01*
X128854158Y-120548425D01*
X128893024Y-120592743D01*
X128907035Y-120650000D01*
X128893024Y-120707257D01*
X128854159Y-120751575D01*
X128673041Y-120878395D01*
X128668599Y-120881505D01*
X128664775Y-120885328D01*
X128664769Y-120885334D01*
X128505334Y-121044769D01*
X128505328Y-121044775D01*
X128501505Y-121048599D01*
X128498402Y-121053029D01*
X128498399Y-121053034D01*
X128369073Y-121237731D01*
X128369068Y-121237738D01*
X128365965Y-121242171D01*
X128363677Y-121247077D01*
X128363675Y-121247081D01*
X128268386Y-121451427D01*
X128268383Y-121451432D01*
X128266097Y-121456337D01*
X128264698Y-121461557D01*
X128264694Y-121461569D01*
X128206337Y-121679365D01*
X128206335Y-121679371D01*
X128204937Y-121684592D01*
X128184341Y-121920000D01*
X128204937Y-122155408D01*
X128206336Y-122160630D01*
X128206337Y-122160634D01*
X128264694Y-122378430D01*
X128264697Y-122378438D01*
X128266097Y-122383663D01*
X128268385Y-122388570D01*
X128268386Y-122388572D01*
X128363678Y-122592927D01*
X128363681Y-122592933D01*
X128365965Y-122597830D01*
X128369064Y-122602257D01*
X128369066Y-122602259D01*
X128498399Y-122786966D01*
X128498402Y-122786970D01*
X128501505Y-122791401D01*
X128668599Y-122958495D01*
X128673032Y-122961599D01*
X128673038Y-122961604D01*
X128854158Y-123088425D01*
X128893024Y-123132743D01*
X128907035Y-123190000D01*
X128893024Y-123247257D01*
X128854159Y-123291575D01*
X128673041Y-123418395D01*
X128668599Y-123421505D01*
X128664775Y-123425328D01*
X128664769Y-123425334D01*
X128505334Y-123584769D01*
X128505328Y-123584775D01*
X128501505Y-123588599D01*
X128498402Y-123593029D01*
X128498399Y-123593034D01*
X128369073Y-123777731D01*
X128369068Y-123777738D01*
X128365965Y-123782171D01*
X128363677Y-123787077D01*
X128363675Y-123787081D01*
X128268386Y-123991427D01*
X128268383Y-123991432D01*
X128266097Y-123996337D01*
X128264698Y-124001557D01*
X128264694Y-124001569D01*
X128206337Y-124219365D01*
X128206335Y-124219371D01*
X128204937Y-124224592D01*
X128204465Y-124229977D01*
X128204465Y-124229982D01*
X128192419Y-124367667D01*
X128184341Y-124460000D01*
X128184813Y-124465395D01*
X128199418Y-124632334D01*
X128204937Y-124695408D01*
X128206336Y-124700630D01*
X128206337Y-124700634D01*
X128264694Y-124918430D01*
X128264697Y-124918438D01*
X128266097Y-124923663D01*
X128268385Y-124928570D01*
X128268386Y-124928572D01*
X128363678Y-125132927D01*
X128363681Y-125132933D01*
X128365965Y-125137830D01*
X128369064Y-125142257D01*
X128369066Y-125142259D01*
X128498399Y-125326966D01*
X128498402Y-125326970D01*
X128501505Y-125331401D01*
X128668599Y-125498495D01*
X128673032Y-125501599D01*
X128673038Y-125501604D01*
X128854158Y-125628425D01*
X128893024Y-125672743D01*
X128907035Y-125730000D01*
X128893024Y-125787257D01*
X128854159Y-125831575D01*
X128673041Y-125958395D01*
X128668599Y-125961505D01*
X128664775Y-125965328D01*
X128664769Y-125965334D01*
X128505334Y-126124769D01*
X128505328Y-126124775D01*
X128501505Y-126128599D01*
X128498402Y-126133029D01*
X128498399Y-126133034D01*
X128369073Y-126317731D01*
X128369068Y-126317738D01*
X128365965Y-126322171D01*
X128363677Y-126327077D01*
X128363675Y-126327081D01*
X128268386Y-126531427D01*
X128268383Y-126531432D01*
X128266097Y-126536337D01*
X128264698Y-126541557D01*
X128264694Y-126541569D01*
X128206337Y-126759365D01*
X128206335Y-126759371D01*
X128204937Y-126764592D01*
X128184341Y-127000000D01*
X85690500Y-127000000D01*
X85690500Y-124460000D01*
X104604435Y-124460000D01*
X104624632Y-124639255D01*
X104626928Y-124645819D01*
X104626930Y-124645824D01*
X104646109Y-124700634D01*
X104684211Y-124809522D01*
X104687912Y-124815412D01*
X104752642Y-124918430D01*
X104780184Y-124962262D01*
X104907738Y-125089816D01*
X105060478Y-125185789D01*
X105230745Y-125245368D01*
X105317667Y-125255161D01*
X105357585Y-125266661D01*
X105391465Y-125290700D01*
X105849299Y-125748534D01*
X105873338Y-125782413D01*
X105884838Y-125822331D01*
X105894632Y-125909255D01*
X105896931Y-125915824D01*
X105896931Y-125915825D01*
X105914255Y-125965336D01*
X105954211Y-126079522D01*
X106050184Y-126232262D01*
X106177738Y-126359816D01*
X106330478Y-126455789D01*
X106500745Y-126515368D01*
X106680000Y-126535565D01*
X106859255Y-126515368D01*
X107029522Y-126455789D01*
X107182262Y-126359816D01*
X107309816Y-126232262D01*
X107405789Y-126079522D01*
X107465368Y-125909255D01*
X107485565Y-125730000D01*
X107465368Y-125550745D01*
X107405789Y-125380478D01*
X107309816Y-125227738D01*
X107182262Y-125100184D01*
X107165761Y-125089816D01*
X107035412Y-125007912D01*
X107029522Y-125004211D01*
X107022959Y-125001914D01*
X107022956Y-125001913D01*
X106865825Y-124946931D01*
X106859255Y-124944632D01*
X106852333Y-124943852D01*
X106772331Y-124934838D01*
X106732413Y-124923338D01*
X106698534Y-124899299D01*
X106240700Y-124441465D01*
X106216661Y-124407585D01*
X106205161Y-124367667D01*
X106195368Y-124280745D01*
X106135789Y-124110478D01*
X106039816Y-123957738D01*
X105912262Y-123830184D01*
X105759522Y-123734211D01*
X105752959Y-123731914D01*
X105752956Y-123731913D01*
X105595824Y-123676930D01*
X105595819Y-123676928D01*
X105589255Y-123674632D01*
X105582335Y-123673852D01*
X105582334Y-123673852D01*
X105416923Y-123655215D01*
X105410000Y-123654435D01*
X105403077Y-123655215D01*
X105237665Y-123673852D01*
X105237662Y-123673852D01*
X105230745Y-123674632D01*
X105224182Y-123676928D01*
X105224175Y-123676930D01*
X105067043Y-123731913D01*
X105067036Y-123731915D01*
X105060478Y-123734211D01*
X105054590Y-123737910D01*
X105054587Y-123737912D01*
X104913638Y-123826476D01*
X104913633Y-123826479D01*
X104907738Y-123830184D01*
X104902813Y-123835108D01*
X104902809Y-123835112D01*
X104785112Y-123952809D01*
X104785108Y-123952813D01*
X104780184Y-123957738D01*
X104776479Y-123963633D01*
X104776476Y-123963638D01*
X104687912Y-124104587D01*
X104687910Y-124104590D01*
X104684211Y-124110478D01*
X104681915Y-124117036D01*
X104681913Y-124117043D01*
X104626930Y-124274175D01*
X104626928Y-124274182D01*
X104624632Y-124280745D01*
X104604435Y-124460000D01*
X85690500Y-124460000D01*
X85690500Y-119380000D01*
X104604435Y-119380000D01*
X104624632Y-119559255D01*
X104626928Y-119565819D01*
X104626930Y-119565824D01*
X104646109Y-119620634D01*
X104684211Y-119729522D01*
X104687912Y-119735412D01*
X104752642Y-119838430D01*
X104780184Y-119882262D01*
X104907738Y-120009816D01*
X105060478Y-120105789D01*
X105230745Y-120165368D01*
X105317667Y-120175161D01*
X105357585Y-120186661D01*
X105391465Y-120210700D01*
X109659299Y-124478534D01*
X109683338Y-124512413D01*
X109694838Y-124552331D01*
X109704632Y-124639255D01*
X109764211Y-124809522D01*
X109767912Y-124815412D01*
X109832642Y-124918430D01*
X109860184Y-124962262D01*
X109987738Y-125089816D01*
X110140478Y-125185789D01*
X110310745Y-125245368D01*
X110490000Y-125265565D01*
X110669255Y-125245368D01*
X110839522Y-125185789D01*
X110992262Y-125089816D01*
X111119816Y-124962262D01*
X111215789Y-124809522D01*
X111275368Y-124639255D01*
X111295565Y-124460000D01*
X111275368Y-124280745D01*
X111215789Y-124110478D01*
X111119816Y-123957738D01*
X110992262Y-123830184D01*
X110839522Y-123734211D01*
X110832959Y-123731914D01*
X110832956Y-123731913D01*
X110675825Y-123676931D01*
X110669255Y-123674632D01*
X110662333Y-123673852D01*
X110582331Y-123664838D01*
X110542413Y-123653338D01*
X110508534Y-123629299D01*
X106240700Y-119361465D01*
X106216661Y-119327585D01*
X106205161Y-119287667D01*
X106195368Y-119200745D01*
X106135789Y-119030478D01*
X106039816Y-118877738D01*
X105912262Y-118750184D01*
X105759522Y-118654211D01*
X105752959Y-118651914D01*
X105752956Y-118651913D01*
X105595824Y-118596930D01*
X105595819Y-118596928D01*
X105589255Y-118594632D01*
X105582335Y-118593852D01*
X105582334Y-118593852D01*
X105416923Y-118575215D01*
X105410000Y-118574435D01*
X105403077Y-118575215D01*
X105237665Y-118593852D01*
X105237662Y-118593852D01*
X105230745Y-118594632D01*
X105224182Y-118596928D01*
X105224175Y-118596930D01*
X105067043Y-118651913D01*
X105067036Y-118651915D01*
X105060478Y-118654211D01*
X105054590Y-118657910D01*
X105054587Y-118657912D01*
X104913638Y-118746476D01*
X104913633Y-118746479D01*
X104907738Y-118750184D01*
X104902813Y-118755108D01*
X104902809Y-118755112D01*
X104785112Y-118872809D01*
X104785108Y-118872813D01*
X104780184Y-118877738D01*
X104776479Y-118883633D01*
X104776476Y-118883638D01*
X104687912Y-119024587D01*
X104687910Y-119024590D01*
X104684211Y-119030478D01*
X104681915Y-119037036D01*
X104681913Y-119037043D01*
X104626930Y-119194175D01*
X104626928Y-119194182D01*
X104624632Y-119200745D01*
X104604435Y-119380000D01*
X85690500Y-119380000D01*
X85690500Y-113030000D01*
X104604435Y-113030000D01*
X104605215Y-113036923D01*
X104615879Y-113131574D01*
X104624632Y-113209255D01*
X104626928Y-113215819D01*
X104626930Y-113215824D01*
X104681913Y-113372956D01*
X104684211Y-113379522D01*
X104780184Y-113532262D01*
X104907738Y-113659816D01*
X105060478Y-113755789D01*
X105230745Y-113815368D01*
X105317667Y-113825161D01*
X105357585Y-113836661D01*
X105391465Y-113860700D01*
X112199299Y-120668534D01*
X112223338Y-120702413D01*
X112234838Y-120742331D01*
X112244632Y-120829255D01*
X112246931Y-120835824D01*
X112246931Y-120835825D01*
X112264255Y-120885336D01*
X112304211Y-120999522D01*
X112400184Y-121152262D01*
X112527738Y-121279816D01*
X112680478Y-121375789D01*
X112850745Y-121435368D01*
X113030000Y-121455565D01*
X113209255Y-121435368D01*
X113379522Y-121375789D01*
X113532262Y-121279816D01*
X113659816Y-121152262D01*
X113755789Y-120999522D01*
X113815368Y-120829255D01*
X113835565Y-120650000D01*
X113815368Y-120470745D01*
X113755789Y-120300478D01*
X113659816Y-120147738D01*
X113532262Y-120020184D01*
X113515761Y-120009816D01*
X113385412Y-119927912D01*
X113379522Y-119924211D01*
X113372959Y-119921914D01*
X113372956Y-119921913D01*
X113215825Y-119866931D01*
X113209255Y-119864632D01*
X113202333Y-119863852D01*
X113122331Y-119854838D01*
X113082413Y-119843338D01*
X113048534Y-119819299D01*
X106240700Y-113011465D01*
X106216661Y-112977585D01*
X106205161Y-112937667D01*
X106204120Y-112928424D01*
X106195368Y-112850745D01*
X106135789Y-112680478D01*
X106039816Y-112527738D01*
X105912262Y-112400184D01*
X105759522Y-112304211D01*
X105752959Y-112301914D01*
X105752956Y-112301913D01*
X105595824Y-112246930D01*
X105595819Y-112246928D01*
X105589255Y-112244632D01*
X105582335Y-112243852D01*
X105582334Y-112243852D01*
X105416923Y-112225215D01*
X105410000Y-112224435D01*
X105403077Y-112225215D01*
X105237665Y-112243852D01*
X105237662Y-112243852D01*
X105230745Y-112244632D01*
X105224182Y-112246928D01*
X105224175Y-112246930D01*
X105067043Y-112301913D01*
X105067036Y-112301915D01*
X105060478Y-112304211D01*
X105054590Y-112307910D01*
X105054587Y-112307912D01*
X104913638Y-112396476D01*
X104913633Y-112396479D01*
X104907738Y-112400184D01*
X104902813Y-112405108D01*
X104902809Y-112405112D01*
X104785112Y-112522809D01*
X104785108Y-112522813D01*
X104780184Y-112527738D01*
X104776479Y-112533633D01*
X104776476Y-112533638D01*
X104687912Y-112674587D01*
X104687910Y-112674590D01*
X104684211Y-112680478D01*
X104681915Y-112687036D01*
X104681913Y-112687043D01*
X104626930Y-112844175D01*
X104626928Y-112844182D01*
X104624632Y-112850745D01*
X104623852Y-112857662D01*
X104623852Y-112857665D01*
X104614838Y-112937667D01*
X104604435Y-113030000D01*
X85690500Y-113030000D01*
X85690500Y-105410000D01*
X104604435Y-105410000D01*
X104605215Y-105416923D01*
X104615879Y-105511574D01*
X104624632Y-105589255D01*
X104626928Y-105595819D01*
X104626930Y-105595824D01*
X104681913Y-105752956D01*
X104684211Y-105759522D01*
X104780184Y-105912262D01*
X104907738Y-106039816D01*
X105060478Y-106135789D01*
X105230745Y-106195368D01*
X105317667Y-106205161D01*
X105357585Y-106216661D01*
X105391465Y-106240700D01*
X116009299Y-116858534D01*
X116033338Y-116892413D01*
X116044838Y-116932331D01*
X116054632Y-117019255D01*
X116114211Y-117189522D01*
X116117912Y-117195412D01*
X116182642Y-117298430D01*
X116210184Y-117342262D01*
X116337738Y-117469816D01*
X116490478Y-117565789D01*
X116660745Y-117625368D01*
X116840000Y-117645565D01*
X117019255Y-117625368D01*
X117189522Y-117565789D01*
X117342262Y-117469816D01*
X117469816Y-117342262D01*
X117565789Y-117189522D01*
X117625368Y-117019255D01*
X117645565Y-116840000D01*
X117625368Y-116660745D01*
X117565789Y-116490478D01*
X117469816Y-116337738D01*
X117342262Y-116210184D01*
X117189522Y-116114211D01*
X117182959Y-116111914D01*
X117182956Y-116111913D01*
X117025825Y-116056931D01*
X117019255Y-116054632D01*
X117012333Y-116053852D01*
X116932331Y-116044838D01*
X116892413Y-116033338D01*
X116858534Y-116009299D01*
X106240700Y-105391465D01*
X106216661Y-105357585D01*
X106205161Y-105317667D01*
X106204120Y-105308424D01*
X106195368Y-105230745D01*
X106135789Y-105060478D01*
X106039816Y-104907738D01*
X105912262Y-104780184D01*
X105759522Y-104684211D01*
X105752959Y-104681914D01*
X105752956Y-104681913D01*
X105595824Y-104626930D01*
X105595819Y-104626928D01*
X105589255Y-104624632D01*
X105582335Y-104623852D01*
X105582334Y-104623852D01*
X105416923Y-104605215D01*
X105410000Y-104604435D01*
X105403077Y-104605215D01*
X105237665Y-104623852D01*
X105237662Y-104623852D01*
X105230745Y-104624632D01*
X105224182Y-104626928D01*
X105224175Y-104626930D01*
X105067043Y-104681913D01*
X105067036Y-104681915D01*
X105060478Y-104684211D01*
X105054590Y-104687910D01*
X105054587Y-104687912D01*
X104913638Y-104776476D01*
X104913633Y-104776479D01*
X104907738Y-104780184D01*
X104902813Y-104785108D01*
X104902809Y-104785112D01*
X104785112Y-104902809D01*
X104785108Y-104902813D01*
X104780184Y-104907738D01*
X104776479Y-104913633D01*
X104776476Y-104913638D01*
X104687912Y-105054587D01*
X104687910Y-105054590D01*
X104684211Y-105060478D01*
X104681915Y-105067036D01*
X104681913Y-105067043D01*
X104626930Y-105224175D01*
X104626928Y-105224182D01*
X104624632Y-105230745D01*
X104623852Y-105237662D01*
X104623852Y-105237665D01*
X104614838Y-105317667D01*
X104604435Y-105410000D01*
X85690500Y-105410000D01*
X85690500Y-96520000D01*
X103334435Y-96520000D01*
X103354632Y-96699255D01*
X103356928Y-96705819D01*
X103356930Y-96705824D01*
X103411913Y-96862956D01*
X103414211Y-96869522D01*
X103417912Y-96875412D01*
X103482642Y-96978430D01*
X103510184Y-97022262D01*
X103637738Y-97149816D01*
X103790478Y-97245789D01*
X103960745Y-97305368D01*
X104140000Y-97325565D01*
X104319255Y-97305368D01*
X104489522Y-97245789D01*
X104642262Y-97149816D01*
X104769816Y-97022262D01*
X104865789Y-96869522D01*
X104925368Y-96699255D01*
X104935161Y-96612330D01*
X104946661Y-96572413D01*
X104970697Y-96538536D01*
X115961044Y-85548189D01*
X115973222Y-85537510D01*
X115998282Y-85518282D01*
X116094536Y-85392841D01*
X116155044Y-85246762D01*
X116170500Y-85129361D01*
X116175682Y-85090000D01*
X116171561Y-85058698D01*
X116170500Y-85042513D01*
X116170500Y-80591162D01*
X116177459Y-80550207D01*
X116196718Y-80515359D01*
X116199816Y-80512262D01*
X116295789Y-80359522D01*
X116355368Y-80189255D01*
X116375565Y-80010000D01*
X116355368Y-79830745D01*
X116295789Y-79660478D01*
X116199816Y-79507738D01*
X116072262Y-79380184D01*
X116055761Y-79369816D01*
X115925412Y-79287912D01*
X115919522Y-79284211D01*
X115912959Y-79281914D01*
X115912956Y-79281913D01*
X115755824Y-79226930D01*
X115755819Y-79226928D01*
X115749255Y-79224632D01*
X115742335Y-79223852D01*
X115742334Y-79223852D01*
X115576923Y-79205215D01*
X115570000Y-79204435D01*
X115563077Y-79205215D01*
X115397665Y-79223852D01*
X115397662Y-79223852D01*
X115390745Y-79224632D01*
X115384182Y-79226928D01*
X115384175Y-79226930D01*
X115227043Y-79281913D01*
X115227036Y-79281915D01*
X115220478Y-79284211D01*
X115214590Y-79287910D01*
X115214587Y-79287912D01*
X115073638Y-79376476D01*
X115073633Y-79376479D01*
X115067738Y-79380184D01*
X115062813Y-79385108D01*
X115062809Y-79385112D01*
X114945112Y-79502809D01*
X114945108Y-79502813D01*
X114940184Y-79507738D01*
X114936479Y-79513633D01*
X114936476Y-79513638D01*
X114847912Y-79654587D01*
X114847910Y-79654590D01*
X114844211Y-79660478D01*
X114841915Y-79667036D01*
X114841913Y-79667043D01*
X114786930Y-79824175D01*
X114786928Y-79824182D01*
X114784632Y-79830745D01*
X114783852Y-79837662D01*
X114783852Y-79837665D01*
X114770886Y-79952742D01*
X114764435Y-80010000D01*
X114765215Y-80016923D01*
X114775879Y-80111574D01*
X114784632Y-80189255D01*
X114786928Y-80195819D01*
X114786930Y-80195824D01*
X114841913Y-80352956D01*
X114844211Y-80359522D01*
X114940184Y-80512262D01*
X114943281Y-80515359D01*
X114962541Y-80550207D01*
X114969500Y-80591162D01*
X114969500Y-84789903D01*
X114960061Y-84837356D01*
X114933181Y-84877584D01*
X104121464Y-95689299D01*
X104087585Y-95713338D01*
X104047667Y-95724838D01*
X103967666Y-95733852D01*
X103967664Y-95733852D01*
X103960745Y-95734632D01*
X103954176Y-95736930D01*
X103954174Y-95736931D01*
X103797043Y-95791913D01*
X103797036Y-95791915D01*
X103790478Y-95794211D01*
X103784590Y-95797910D01*
X103784587Y-95797912D01*
X103643638Y-95886476D01*
X103643633Y-95886479D01*
X103637738Y-95890184D01*
X103632813Y-95895108D01*
X103632809Y-95895112D01*
X103515112Y-96012809D01*
X103515108Y-96012813D01*
X103510184Y-96017738D01*
X103506479Y-96023633D01*
X103506476Y-96023638D01*
X103417912Y-96164587D01*
X103417910Y-96164590D01*
X103414211Y-96170478D01*
X103411915Y-96177036D01*
X103411913Y-96177043D01*
X103356930Y-96334175D01*
X103356928Y-96334182D01*
X103354632Y-96340745D01*
X103353852Y-96347662D01*
X103353852Y-96347665D01*
X103335215Y-96513077D01*
X103334435Y-96520000D01*
X85690500Y-96520000D01*
X85690500Y-88900000D01*
X104604435Y-88900000D01*
X104624632Y-89079255D01*
X104626928Y-89085819D01*
X104626930Y-89085824D01*
X104646109Y-89140634D01*
X104684211Y-89249522D01*
X104687912Y-89255412D01*
X104752642Y-89358430D01*
X104780184Y-89402262D01*
X104907738Y-89529816D01*
X105060478Y-89625789D01*
X105230745Y-89685368D01*
X105410000Y-89705565D01*
X105589255Y-89685368D01*
X105759522Y-89625789D01*
X105912262Y-89529816D01*
X106039816Y-89402262D01*
X106135789Y-89249522D01*
X106195368Y-89079255D01*
X106205161Y-88992330D01*
X106216661Y-88952413D01*
X106240697Y-88918536D01*
X113421044Y-81738189D01*
X113433222Y-81727510D01*
X113458282Y-81708282D01*
X113554536Y-81582841D01*
X113615044Y-81436762D01*
X113630500Y-81319361D01*
X113635682Y-81280000D01*
X113631561Y-81248698D01*
X113630500Y-81232513D01*
X113630500Y-78051162D01*
X113637459Y-78010207D01*
X113656718Y-77975359D01*
X113659816Y-77972262D01*
X113755789Y-77819522D01*
X113815368Y-77649255D01*
X113835565Y-77470000D01*
X113815368Y-77290745D01*
X113755789Y-77120478D01*
X113659816Y-76967738D01*
X113532262Y-76840184D01*
X113515761Y-76829816D01*
X113385412Y-76747912D01*
X113379522Y-76744211D01*
X113372959Y-76741914D01*
X113372956Y-76741913D01*
X113215824Y-76686930D01*
X113215819Y-76686928D01*
X113209255Y-76684632D01*
X113202335Y-76683852D01*
X113202334Y-76683852D01*
X113036923Y-76665215D01*
X113030000Y-76664435D01*
X113023077Y-76665215D01*
X112857665Y-76683852D01*
X112857662Y-76683852D01*
X112850745Y-76684632D01*
X112844182Y-76686928D01*
X112844175Y-76686930D01*
X112687043Y-76741913D01*
X112687036Y-76741915D01*
X112680478Y-76744211D01*
X112674593Y-76747908D01*
X112674582Y-76747914D01*
X112616646Y-76784318D01*
X112553456Y-76803293D01*
X112489479Y-76787171D01*
X112442827Y-76740518D01*
X112426706Y-76676540D01*
X112445681Y-76613352D01*
X112485789Y-76549522D01*
X112545368Y-76379255D01*
X112565565Y-76200000D01*
X112545368Y-76020745D01*
X112485789Y-75850478D01*
X112389816Y-75697738D01*
X112262262Y-75570184D01*
X112109522Y-75474211D01*
X112102959Y-75471914D01*
X112102956Y-75471913D01*
X111945824Y-75416930D01*
X111945819Y-75416928D01*
X111939255Y-75414632D01*
X111932335Y-75413852D01*
X111932334Y-75413852D01*
X111766923Y-75395215D01*
X111760000Y-75394435D01*
X111753077Y-75395215D01*
X111587665Y-75413852D01*
X111587662Y-75413852D01*
X111580745Y-75414632D01*
X111574182Y-75416928D01*
X111574175Y-75416930D01*
X111417043Y-75471913D01*
X111417036Y-75471915D01*
X111410478Y-75474211D01*
X111404590Y-75477910D01*
X111404587Y-75477912D01*
X111263638Y-75566476D01*
X111263633Y-75566479D01*
X111257738Y-75570184D01*
X111252813Y-75575108D01*
X111252809Y-75575112D01*
X111135112Y-75692809D01*
X111135108Y-75692813D01*
X111130184Y-75697738D01*
X111126479Y-75703633D01*
X111126476Y-75703638D01*
X111037912Y-75844587D01*
X111037910Y-75844590D01*
X111034211Y-75850478D01*
X111031915Y-75857036D01*
X111031913Y-75857043D01*
X110976931Y-76014174D01*
X110974632Y-76020745D01*
X110973852Y-76027664D01*
X110973852Y-76027666D01*
X110964838Y-76107667D01*
X110953338Y-76147585D01*
X110929299Y-76181464D01*
X106661464Y-80449299D01*
X106627585Y-80473338D01*
X106587667Y-80484838D01*
X106507666Y-80493852D01*
X106507664Y-80493852D01*
X106500745Y-80494632D01*
X106494176Y-80496930D01*
X106494174Y-80496931D01*
X106337043Y-80551913D01*
X106337036Y-80551915D01*
X106330478Y-80554211D01*
X106324590Y-80557910D01*
X106324587Y-80557912D01*
X106183638Y-80646476D01*
X106183633Y-80646479D01*
X106177738Y-80650184D01*
X106172813Y-80655108D01*
X106172809Y-80655112D01*
X106055112Y-80772809D01*
X106055108Y-80772813D01*
X106050184Y-80777738D01*
X106046479Y-80783633D01*
X106046476Y-80783638D01*
X105957912Y-80924587D01*
X105957910Y-80924590D01*
X105954211Y-80930478D01*
X105951915Y-80937036D01*
X105951913Y-80937043D01*
X105896930Y-81094175D01*
X105896928Y-81094182D01*
X105894632Y-81100745D01*
X105874435Y-81280000D01*
X105875215Y-81286923D01*
X105892097Y-81436762D01*
X105894632Y-81459255D01*
X105896928Y-81465819D01*
X105896930Y-81465824D01*
X105951913Y-81622956D01*
X105954211Y-81629522D01*
X105957912Y-81635412D01*
X106022642Y-81738430D01*
X106050184Y-81782262D01*
X106177738Y-81909816D01*
X106330478Y-82005789D01*
X106500745Y-82065368D01*
X106680000Y-82085565D01*
X106859255Y-82065368D01*
X107029522Y-82005789D01*
X107182262Y-81909816D01*
X107309816Y-81782262D01*
X107405789Y-81629522D01*
X107465368Y-81459255D01*
X107475161Y-81372330D01*
X107486661Y-81332413D01*
X107510697Y-81298536D01*
X111778536Y-77030697D01*
X111812413Y-77006661D01*
X111852330Y-76995161D01*
X111939255Y-76985368D01*
X112109522Y-76925789D01*
X112173352Y-76885681D01*
X112236540Y-76866706D01*
X112300518Y-76882827D01*
X112347171Y-76929479D01*
X112363293Y-76993456D01*
X112344318Y-77056646D01*
X112307914Y-77114582D01*
X112307908Y-77114593D01*
X112304211Y-77120478D01*
X112301915Y-77127036D01*
X112301913Y-77127043D01*
X112246930Y-77284175D01*
X112246928Y-77284182D01*
X112244632Y-77290745D01*
X112243852Y-77297662D01*
X112243852Y-77297665D01*
X112230886Y-77412743D01*
X112224435Y-77470000D01*
X112225215Y-77476923D01*
X112235247Y-77565965D01*
X112244632Y-77649255D01*
X112246928Y-77655819D01*
X112246930Y-77655824D01*
X112301913Y-77812956D01*
X112304211Y-77819522D01*
X112400184Y-77972262D01*
X112403281Y-77975359D01*
X112422541Y-78010207D01*
X112429500Y-78051162D01*
X112429500Y-80979903D01*
X112420061Y-81027356D01*
X112393181Y-81067584D01*
X105391464Y-88069299D01*
X105357585Y-88093338D01*
X105317667Y-88104838D01*
X105237666Y-88113852D01*
X105237664Y-88113852D01*
X105230745Y-88114632D01*
X105224176Y-88116930D01*
X105224174Y-88116931D01*
X105067043Y-88171913D01*
X105067036Y-88171915D01*
X105060478Y-88174211D01*
X105054590Y-88177910D01*
X105054587Y-88177912D01*
X104913638Y-88266476D01*
X104913633Y-88266479D01*
X104907738Y-88270184D01*
X104902813Y-88275108D01*
X104902809Y-88275112D01*
X104785112Y-88392809D01*
X104785108Y-88392813D01*
X104780184Y-88397738D01*
X104776479Y-88403633D01*
X104776476Y-88403638D01*
X104687912Y-88544587D01*
X104687910Y-88544590D01*
X104684211Y-88550478D01*
X104681915Y-88557036D01*
X104681913Y-88557043D01*
X104626930Y-88714175D01*
X104626928Y-88714182D01*
X104624632Y-88720745D01*
X104604435Y-88900000D01*
X85690500Y-88900000D01*
X85690500Y-73890000D01*
X105424435Y-73890000D01*
X105444632Y-74069255D01*
X105446928Y-74075819D01*
X105446930Y-74075824D01*
X105501913Y-74232956D01*
X105504211Y-74239522D01*
X105600184Y-74392262D01*
X105727738Y-74519816D01*
X105880478Y-74615789D01*
X106050745Y-74675368D01*
X106230000Y-74695565D01*
X106409255Y-74675368D01*
X106579522Y-74615789D01*
X106732262Y-74519816D01*
X106859816Y-74392262D01*
X106955789Y-74239522D01*
X107015368Y-74069255D01*
X107025161Y-73982330D01*
X107036661Y-73942413D01*
X107060697Y-73908536D01*
X111119233Y-69850000D01*
X126194435Y-69850000D01*
X126195215Y-69856923D01*
X126212715Y-70012246D01*
X126214632Y-70029255D01*
X126216928Y-70035819D01*
X126216930Y-70035824D01*
X126248584Y-70126285D01*
X126274211Y-70199522D01*
X126370184Y-70352262D01*
X126497738Y-70479816D01*
X126650478Y-70575789D01*
X126820745Y-70635368D01*
X127000000Y-70655565D01*
X127179255Y-70635368D01*
X127349522Y-70575789D01*
X127502262Y-70479816D01*
X127629816Y-70352262D01*
X127725789Y-70199522D01*
X127785368Y-70029255D01*
X127805565Y-69850000D01*
X127785368Y-69670745D01*
X127725789Y-69500478D01*
X127629816Y-69347738D01*
X127626718Y-69344640D01*
X127607459Y-69309793D01*
X127600500Y-69268838D01*
X127600500Y-68327448D01*
X128212688Y-68327448D01*
X128223631Y-68330000D01*
X129273674Y-68330000D01*
X129286549Y-68326549D01*
X129290000Y-68313674D01*
X129790000Y-68313674D01*
X129793450Y-68326549D01*
X129806326Y-68330000D01*
X131813674Y-68330000D01*
X131826549Y-68326549D01*
X131830000Y-68313674D01*
X132330000Y-68313674D01*
X132333450Y-68326549D01*
X132346326Y-68330000D01*
X133413674Y-68330000D01*
X133423195Y-68327448D01*
X161232688Y-68327448D01*
X161243631Y-68330000D01*
X162293674Y-68330000D01*
X162306549Y-68326549D01*
X162310000Y-68313674D01*
X162810000Y-68313674D01*
X162813450Y-68326549D01*
X162826326Y-68330000D01*
X164833674Y-68330000D01*
X164846549Y-68326549D01*
X164850000Y-68313674D01*
X165350000Y-68313674D01*
X165353450Y-68326549D01*
X165366326Y-68330000D01*
X166433674Y-68330000D01*
X166446549Y-68326549D01*
X166450000Y-68313674D01*
X166450000Y-67685482D01*
X166449646Y-67678885D01*
X166444426Y-67630332D01*
X166440888Y-67615358D01*
X166396452Y-67496222D01*
X166388037Y-67480810D01*
X166312501Y-67379907D01*
X166300092Y-67367498D01*
X166199189Y-67291962D01*
X166183777Y-67283547D01*
X166064641Y-67239111D01*
X166049667Y-67235573D01*
X166001114Y-67230353D01*
X165994518Y-67230000D01*
X165366326Y-67230000D01*
X165353450Y-67233450D01*
X165350000Y-67246326D01*
X165350000Y-68313674D01*
X164850000Y-68313674D01*
X164850000Y-67246326D01*
X164846549Y-67233450D01*
X164833674Y-67230000D01*
X164205482Y-67230000D01*
X164198885Y-67230353D01*
X164150332Y-67235573D01*
X164135358Y-67239111D01*
X164016222Y-67283547D01*
X164000810Y-67291962D01*
X163899907Y-67367498D01*
X163887498Y-67379907D01*
X163811962Y-67480810D01*
X163803548Y-67496220D01*
X163757385Y-67619987D01*
X163722405Y-67670366D01*
X163667561Y-67697819D01*
X163606268Y-67695630D01*
X163553522Y-67664334D01*
X163434909Y-67545721D01*
X163426643Y-67538784D01*
X163242008Y-67409501D01*
X163232676Y-67404113D01*
X163028397Y-67308856D01*
X163018263Y-67305168D01*
X162823780Y-67253056D01*
X162812551Y-67252688D01*
X162810000Y-67263631D01*
X162810000Y-68313674D01*
X162310000Y-68313674D01*
X162310000Y-67263631D01*
X162307448Y-67252688D01*
X162296219Y-67253056D01*
X162101736Y-67305168D01*
X162091602Y-67308856D01*
X161887332Y-67404110D01*
X161877982Y-67409508D01*
X161693357Y-67538784D01*
X161685092Y-67545719D01*
X161525719Y-67705092D01*
X161518784Y-67713357D01*
X161389508Y-67897982D01*
X161384110Y-67907332D01*
X161288856Y-68111602D01*
X161285168Y-68121736D01*
X161233056Y-68316219D01*
X161232688Y-68327448D01*
X133423195Y-68327448D01*
X133426549Y-68326549D01*
X133430000Y-68313674D01*
X133430000Y-67685482D01*
X133429646Y-67678885D01*
X133424426Y-67630332D01*
X133420888Y-67615358D01*
X133376452Y-67496222D01*
X133368037Y-67480810D01*
X133292501Y-67379907D01*
X133280092Y-67367498D01*
X133179189Y-67291962D01*
X133163777Y-67283547D01*
X133044641Y-67239111D01*
X133029667Y-67235573D01*
X132981114Y-67230353D01*
X132974518Y-67230000D01*
X132346326Y-67230000D01*
X132333450Y-67233450D01*
X132330000Y-67246326D01*
X132330000Y-68313674D01*
X131830000Y-68313674D01*
X131830000Y-67246326D01*
X131826549Y-67233450D01*
X131813674Y-67230000D01*
X131185482Y-67230000D01*
X131178885Y-67230353D01*
X131130332Y-67235573D01*
X131115358Y-67239111D01*
X130996222Y-67283547D01*
X130980810Y-67291962D01*
X130879907Y-67367498D01*
X130867498Y-67379907D01*
X130791962Y-67480810D01*
X130783548Y-67496220D01*
X130737385Y-67619987D01*
X130702405Y-67670366D01*
X130647561Y-67697819D01*
X130586268Y-67695630D01*
X130533522Y-67664334D01*
X130414909Y-67545721D01*
X130406643Y-67538784D01*
X130222008Y-67409501D01*
X130212676Y-67404113D01*
X130008397Y-67308856D01*
X129998263Y-67305168D01*
X129803780Y-67253056D01*
X129792551Y-67252688D01*
X129790000Y-67263631D01*
X129790000Y-68313674D01*
X129290000Y-68313674D01*
X129290000Y-67263631D01*
X129287448Y-67252688D01*
X129276219Y-67253056D01*
X129081736Y-67305168D01*
X129071602Y-67308856D01*
X128867332Y-67404110D01*
X128857982Y-67409508D01*
X128673357Y-67538784D01*
X128665092Y-67545719D01*
X128505719Y-67705092D01*
X128498784Y-67713357D01*
X128369508Y-67897982D01*
X128364110Y-67907332D01*
X128268856Y-68111602D01*
X128265168Y-68121736D01*
X128213056Y-68316219D01*
X128212688Y-68327448D01*
X127600500Y-68327448D01*
X127600500Y-67891162D01*
X127607459Y-67850207D01*
X127626718Y-67815359D01*
X127629816Y-67812262D01*
X127725789Y-67659522D01*
X127785368Y-67489255D01*
X127805565Y-67310000D01*
X127785368Y-67130745D01*
X127725789Y-66960478D01*
X127629816Y-66807738D01*
X127502262Y-66680184D01*
X127349522Y-66584211D01*
X127342959Y-66581914D01*
X127342956Y-66581913D01*
X127185824Y-66526930D01*
X127185819Y-66526928D01*
X127179255Y-66524632D01*
X127172335Y-66523852D01*
X127172334Y-66523852D01*
X127006923Y-66505215D01*
X127000000Y-66504435D01*
X126993077Y-66505215D01*
X126827665Y-66523852D01*
X126827662Y-66523852D01*
X126820745Y-66524632D01*
X126814182Y-66526928D01*
X126814175Y-66526930D01*
X126657043Y-66581913D01*
X126657036Y-66581915D01*
X126650478Y-66584211D01*
X126644590Y-66587910D01*
X126644587Y-66587912D01*
X126503638Y-66676476D01*
X126503633Y-66676479D01*
X126497738Y-66680184D01*
X126492813Y-66685108D01*
X126492809Y-66685112D01*
X126375112Y-66802809D01*
X126375108Y-66802813D01*
X126370184Y-66807738D01*
X126366479Y-66813633D01*
X126366476Y-66813638D01*
X126277912Y-66954587D01*
X126277910Y-66954590D01*
X126274211Y-66960478D01*
X126271915Y-66967036D01*
X126271913Y-66967043D01*
X126216930Y-67124175D01*
X126216928Y-67124182D01*
X126214632Y-67130745D01*
X126213852Y-67137662D01*
X126213852Y-67137665D01*
X126196467Y-67291962D01*
X126194435Y-67310000D01*
X126195215Y-67316923D01*
X126205038Y-67404110D01*
X126214632Y-67489255D01*
X126216928Y-67495819D01*
X126216930Y-67495824D01*
X126234390Y-67545721D01*
X126274211Y-67659522D01*
X126370184Y-67812262D01*
X126373281Y-67815359D01*
X126392541Y-67850207D01*
X126399500Y-67891162D01*
X126399500Y-69268838D01*
X126392541Y-69309793D01*
X126373281Y-69344640D01*
X126370184Y-69347738D01*
X126366483Y-69353627D01*
X126366479Y-69353633D01*
X126277912Y-69494587D01*
X126277910Y-69494590D01*
X126274211Y-69500478D01*
X126271915Y-69507036D01*
X126271913Y-69507043D01*
X126216930Y-69664175D01*
X126216928Y-69664182D01*
X126214632Y-69670745D01*
X126213852Y-69677662D01*
X126213852Y-69677665D01*
X126195215Y-69843077D01*
X126194435Y-69850000D01*
X111119233Y-69850000D01*
X111328536Y-69640697D01*
X111362413Y-69616661D01*
X111402330Y-69605161D01*
X111489255Y-69595368D01*
X111659522Y-69535789D01*
X111812262Y-69439816D01*
X111939816Y-69312262D01*
X112035789Y-69159522D01*
X112095368Y-68989255D01*
X112115565Y-68810000D01*
X112095368Y-68630745D01*
X112035789Y-68460478D01*
X111939816Y-68307738D01*
X111812262Y-68180184D01*
X111659522Y-68084211D01*
X111652959Y-68081914D01*
X111652956Y-68081913D01*
X111495824Y-68026930D01*
X111495819Y-68026928D01*
X111489255Y-68024632D01*
X111482335Y-68023852D01*
X111482334Y-68023852D01*
X111316923Y-68005215D01*
X111310000Y-68004435D01*
X111303077Y-68005215D01*
X111137665Y-68023852D01*
X111137662Y-68023852D01*
X111130745Y-68024632D01*
X111124182Y-68026928D01*
X111124175Y-68026930D01*
X110967043Y-68081913D01*
X110967036Y-68081915D01*
X110960478Y-68084211D01*
X110954590Y-68087910D01*
X110954587Y-68087912D01*
X110813638Y-68176476D01*
X110813633Y-68176479D01*
X110807738Y-68180184D01*
X110802813Y-68185108D01*
X110802809Y-68185112D01*
X110685112Y-68302809D01*
X110685108Y-68302813D01*
X110680184Y-68307738D01*
X110676479Y-68313633D01*
X110676476Y-68313638D01*
X110587912Y-68454587D01*
X110587910Y-68454590D01*
X110584211Y-68460478D01*
X110581915Y-68467036D01*
X110581913Y-68467043D01*
X110526931Y-68624174D01*
X110524632Y-68630745D01*
X110523852Y-68637664D01*
X110523852Y-68637666D01*
X110514838Y-68717667D01*
X110503338Y-68757585D01*
X110479299Y-68791464D01*
X106211464Y-73059299D01*
X106177585Y-73083338D01*
X106137667Y-73094838D01*
X106057666Y-73103852D01*
X106057664Y-73103852D01*
X106050745Y-73104632D01*
X106044176Y-73106930D01*
X106044174Y-73106931D01*
X105887043Y-73161913D01*
X105887036Y-73161915D01*
X105880478Y-73164211D01*
X105874590Y-73167910D01*
X105874587Y-73167912D01*
X105733638Y-73256476D01*
X105733633Y-73256479D01*
X105727738Y-73260184D01*
X105722813Y-73265108D01*
X105722809Y-73265112D01*
X105605112Y-73382809D01*
X105605108Y-73382813D01*
X105600184Y-73387738D01*
X105596479Y-73393633D01*
X105596476Y-73393638D01*
X105507912Y-73534587D01*
X105507910Y-73534590D01*
X105504211Y-73540478D01*
X105501915Y-73547036D01*
X105501913Y-73547043D01*
X105446930Y-73704175D01*
X105446928Y-73704182D01*
X105444632Y-73710745D01*
X105424435Y-73890000D01*
X85690500Y-73890000D01*
X85690500Y-54610000D01*
X87734422Y-54610000D01*
X87754722Y-54997338D01*
X87755227Y-55000531D01*
X87755229Y-55000543D01*
X87814889Y-55377224D01*
X87814891Y-55377237D01*
X87815398Y-55380433D01*
X87915786Y-55755087D01*
X87916943Y-55758102D01*
X87916946Y-55758110D01*
X88046581Y-56095820D01*
X88054786Y-56117194D01*
X88056255Y-56120077D01*
X88056259Y-56120086D01*
X88168131Y-56339647D01*
X88230875Y-56462789D01*
X88442124Y-56788084D01*
X88686219Y-57089516D01*
X88960484Y-57363781D01*
X89261916Y-57607876D01*
X89587211Y-57819125D01*
X89932806Y-57995214D01*
X90294913Y-58134214D01*
X90669567Y-58234602D01*
X91052662Y-58295278D01*
X91440000Y-58315578D01*
X91827338Y-58295278D01*
X92210433Y-58234602D01*
X92585087Y-58134214D01*
X92947194Y-57995214D01*
X93292789Y-57819125D01*
X93618084Y-57607876D01*
X93919516Y-57363781D01*
X94193781Y-57089516D01*
X94437876Y-56788084D01*
X94649125Y-56462789D01*
X94825214Y-56117194D01*
X94964214Y-55755087D01*
X95064602Y-55380433D01*
X95125278Y-54997338D01*
X95145578Y-54610000D01*
X95125278Y-54222662D01*
X95064602Y-53839567D01*
X94964214Y-53464913D01*
X94916264Y-53340000D01*
X186794422Y-53340000D01*
X186794592Y-53343244D01*
X186801132Y-53468042D01*
X186814722Y-53727338D01*
X186815227Y-53730531D01*
X186815229Y-53730543D01*
X186874889Y-54107224D01*
X186874891Y-54107237D01*
X186875398Y-54110433D01*
X186876235Y-54113557D01*
X186876237Y-54113566D01*
X186906337Y-54225900D01*
X186975786Y-54485087D01*
X186976943Y-54488102D01*
X186976946Y-54488110D01*
X187024981Y-54613244D01*
X187114786Y-54847194D01*
X187116255Y-54850077D01*
X187116259Y-54850086D01*
X187192921Y-55000543D01*
X187290875Y-55192789D01*
X187502124Y-55518084D01*
X187746219Y-55819516D01*
X188020484Y-56093781D01*
X188321916Y-56337876D01*
X188647211Y-56549125D01*
X188992806Y-56725214D01*
X189354913Y-56864214D01*
X189729567Y-56964602D01*
X190112662Y-57025278D01*
X190500000Y-57045578D01*
X190887338Y-57025278D01*
X191270433Y-56964602D01*
X191645087Y-56864214D01*
X192007194Y-56725214D01*
X192352789Y-56549125D01*
X192678084Y-56337876D01*
X192979516Y-56093781D01*
X193253781Y-55819516D01*
X193497876Y-55518084D01*
X193709125Y-55192789D01*
X193885214Y-54847194D01*
X194024214Y-54485087D01*
X194124602Y-54110433D01*
X194185278Y-53727338D01*
X194205578Y-53340000D01*
X194185278Y-52952662D01*
X194124602Y-52569567D01*
X194024214Y-52194913D01*
X193885214Y-51832806D01*
X193709125Y-51487211D01*
X193497876Y-51161916D01*
X193253781Y-50860484D01*
X192979516Y-50586219D01*
X192678084Y-50342124D01*
X192352789Y-50130875D01*
X192349901Y-50129403D01*
X192349895Y-50129400D01*
X192010086Y-49956259D01*
X192010077Y-49956255D01*
X192007194Y-49954786D01*
X192004162Y-49953622D01*
X191648110Y-49816946D01*
X191648102Y-49816943D01*
X191645087Y-49815786D01*
X191641962Y-49814948D01*
X191641957Y-49814947D01*
X191273566Y-49716237D01*
X191273557Y-49716235D01*
X191270433Y-49715398D01*
X191267237Y-49714891D01*
X191267224Y-49714889D01*
X190890543Y-49655229D01*
X190890531Y-49655227D01*
X190887338Y-49654722D01*
X190884103Y-49654552D01*
X190884099Y-49654552D01*
X190503244Y-49634592D01*
X190500000Y-49634422D01*
X190496756Y-49634592D01*
X190115900Y-49654552D01*
X190115894Y-49654552D01*
X190112662Y-49654722D01*
X190109470Y-49655227D01*
X190109456Y-49655229D01*
X189732775Y-49714889D01*
X189732758Y-49714892D01*
X189729567Y-49715398D01*
X189726446Y-49716234D01*
X189726433Y-49716237D01*
X189358042Y-49814947D01*
X189358031Y-49814950D01*
X189354913Y-49815786D01*
X189351902Y-49816941D01*
X189351889Y-49816946D01*
X188995837Y-49953622D01*
X188995828Y-49953625D01*
X188992806Y-49954786D01*
X188989929Y-49956251D01*
X188989913Y-49956259D01*
X188650104Y-50129400D01*
X188650090Y-50129408D01*
X188647211Y-50130875D01*
X188644491Y-50132641D01*
X188644483Y-50132646D01*
X188324644Y-50340352D01*
X188324638Y-50340355D01*
X188321916Y-50342124D01*
X188319396Y-50344164D01*
X188319390Y-50344169D01*
X188023002Y-50584179D01*
X188022991Y-50584188D01*
X188020484Y-50586219D01*
X188018199Y-50588503D01*
X188018189Y-50588513D01*
X187748513Y-50858189D01*
X187748503Y-50858199D01*
X187746219Y-50860484D01*
X187744188Y-50862991D01*
X187744179Y-50863002D01*
X187504169Y-51159390D01*
X187504164Y-51159396D01*
X187502124Y-51161916D01*
X187500355Y-51164638D01*
X187500352Y-51164644D01*
X187292646Y-51484483D01*
X187292641Y-51484491D01*
X187290875Y-51487211D01*
X187289408Y-51490090D01*
X187289400Y-51490104D01*
X187116259Y-51829913D01*
X187116251Y-51829929D01*
X187114786Y-51832806D01*
X187113625Y-51835828D01*
X187113622Y-51835837D01*
X186976946Y-52191889D01*
X186976941Y-52191902D01*
X186975786Y-52194913D01*
X186974950Y-52198031D01*
X186974947Y-52198042D01*
X186876237Y-52566433D01*
X186876234Y-52566446D01*
X186875398Y-52569567D01*
X186874892Y-52572758D01*
X186874889Y-52572775D01*
X186815229Y-52949456D01*
X186815227Y-52949470D01*
X186814722Y-52952662D01*
X186794422Y-53340000D01*
X94916264Y-53340000D01*
X94825214Y-53102806D01*
X94649125Y-52757211D01*
X94437876Y-52431916D01*
X94193781Y-52130484D01*
X93919516Y-51856219D01*
X93890603Y-51832806D01*
X93620609Y-51614169D01*
X93618084Y-51612124D01*
X93292789Y-51400875D01*
X93289901Y-51399403D01*
X93289895Y-51399400D01*
X92950086Y-51226259D01*
X92950077Y-51226255D01*
X92947194Y-51224786D01*
X92944162Y-51223622D01*
X92588110Y-51086946D01*
X92588102Y-51086943D01*
X92585087Y-51085786D01*
X92581962Y-51084948D01*
X92581957Y-51084947D01*
X92213566Y-50986237D01*
X92213557Y-50986235D01*
X92210433Y-50985398D01*
X92207237Y-50984891D01*
X92207224Y-50984889D01*
X91830543Y-50925229D01*
X91830531Y-50925227D01*
X91827338Y-50924722D01*
X91824103Y-50924552D01*
X91824099Y-50924552D01*
X91443244Y-50904592D01*
X91440000Y-50904422D01*
X91436756Y-50904592D01*
X91055900Y-50924552D01*
X91055894Y-50924552D01*
X91052662Y-50924722D01*
X91049470Y-50925227D01*
X91049456Y-50925229D01*
X90672775Y-50984889D01*
X90672758Y-50984892D01*
X90669567Y-50985398D01*
X90666446Y-50986234D01*
X90666433Y-50986237D01*
X90298042Y-51084947D01*
X90298031Y-51084950D01*
X90294913Y-51085786D01*
X90291902Y-51086941D01*
X90291889Y-51086946D01*
X89935837Y-51223622D01*
X89935828Y-51223625D01*
X89932806Y-51224786D01*
X89929929Y-51226251D01*
X89929913Y-51226259D01*
X89590104Y-51399400D01*
X89590090Y-51399408D01*
X89587211Y-51400875D01*
X89584491Y-51402641D01*
X89584483Y-51402646D01*
X89264644Y-51610352D01*
X89264638Y-51610355D01*
X89261916Y-51612124D01*
X89259396Y-51614164D01*
X89259390Y-51614169D01*
X88963002Y-51854179D01*
X88962991Y-51854188D01*
X88960484Y-51856219D01*
X88958199Y-51858503D01*
X88958189Y-51858513D01*
X88688513Y-52128189D01*
X88688503Y-52128199D01*
X88686219Y-52130484D01*
X88684188Y-52132991D01*
X88684179Y-52133002D01*
X88444169Y-52429390D01*
X88444164Y-52429396D01*
X88442124Y-52431916D01*
X88440355Y-52434638D01*
X88440352Y-52434644D01*
X88232646Y-52754483D01*
X88232641Y-52754491D01*
X88230875Y-52757211D01*
X88229408Y-52760090D01*
X88229400Y-52760104D01*
X88056259Y-53099913D01*
X88056251Y-53099929D01*
X88054786Y-53102806D01*
X88053625Y-53105828D01*
X88053622Y-53105837D01*
X87916946Y-53461889D01*
X87916941Y-53461902D01*
X87915786Y-53464913D01*
X87914950Y-53468031D01*
X87914947Y-53468042D01*
X87816237Y-53836433D01*
X87816234Y-53836446D01*
X87815398Y-53839567D01*
X87814892Y-53842758D01*
X87814889Y-53842775D01*
X87755229Y-54219456D01*
X87755227Y-54219470D01*
X87754722Y-54222662D01*
X87754552Y-54225894D01*
X87754552Y-54225900D01*
X87740810Y-54488110D01*
X87734422Y-54610000D01*
X85690500Y-54610000D01*
X85690500Y-47714500D01*
X85707113Y-47652500D01*
X85752500Y-47607113D01*
X85814500Y-47590500D01*
X196125500Y-47590500D01*
X196187500Y-47607113D01*
G37*
%TD.AperFunction*%
%TD*%
M02*
